<?xml version="1.0" encoding="UTF-8" standalone="no"?>
<svg width="19px" height="24px" viewBox="0 0 19 24" version="1.1" xmlns="http://www.w3.org/2000/svg" xmlns:xlink="http://www.w3.org/1999/xlink">
    <!-- Generator: sketchtool 42 (36781) - http://www.bohemiancoding.com/sketch -->
    <title>F608CB5B-3CA8-4167-A06D-A9A5200214CC</title>
    <desc>Created with sketchtool.</desc>
    <defs></defs>
    <g id="Page-1" stroke="none" stroke-width="1" fill="none" fill-rule="evenodd">
        <g id="Retention-MainPage-XL" transform="translate(-189.000000, -907.000000)" fill="#FDF0FF">
            <g id="Safety_icon_light" transform="translate(189.000000, 907.000000)">
                <path d="M9.49992278,10.7500351 C10.1076619,10.7500351 10.5998764,11.1975008 10.5998764,11.7499883 C10.5998764,12.1025413 10.3990986,12.4125521 10.0966963,12.590022 C10.0966963,12.590022 10.2041897,13.1801376 10.3249652,13.8749941 C10.3249652,14.0825104 10.140713,14.2498713 9.91244401,14.2498713 L9.08740154,14.2498713 C8.85913258,14.2498713 8.67503475,14.0825104 8.67503475,13.8749941 L8.90330371,12.590022 C8.60090139,12.4125521 8.39996911,12.1025413 8.39996911,11.7499883 C8.39996911,11.1975008 8.8921837,10.7500351 9.49992278,10.7500351 Z M7.30001544,8.9999064 L7.30001544,7.2500585 C7.30001544,6.14508354 8.28444463,5.2500117 9.49992278,5.2500117 C10.7155554,5.2500117 11.6999846,6.14508354 11.6999846,7.2500585 L11.6999846,8.9999064 L7.30001544,8.9999064 Z M5.92499614,8.9999064 L5.09995367,8.9999064 C4.49221459,8.9999064 4,9.44751252 4,10 L4,15.0000468 C4,15.5525343 4.49221459,16 5.09995367,16 L13.9000463,16 C14.507631,16 15,15.5525343 15,15.0000468 L15,10 C15,9.44751252 14.507631,8.9999064 13.9000463,8.9999064 L13.0750039,8.9999064 L13.0750039,7.2500585 C13.0750039,5.4550007 11.4743412,4 9.50007722,4 C7.52565885,4 5.92499614,5.4550007 5.92499614,7.2500585 L5.92499614,8.9999064 Z" id="Fill-1"></path>
                <path d="M17.0967104,11.6381894 L17.0967104,11.6381894 L16.9474045,13.5961171 C16.9381881,13.6369514 16.9261358,13.6773618 16.9156433,13.7180548 L16.7423746,15.7104585 C16.7409567,15.726001 16.7384045,15.7412609 16.7345761,15.7563795 C16.3676209,17.1865696 15.2474716,18.549927 13.4923821,19.6761911 C11.8892925,20.7032659 10.2799642,21.44662 9.57554627,21.7511112 C9.51159851,21.778805 9.4404194,21.778805 9.37647164,21.7512525 C8.67162836,21.44662 7.05648657,20.7032659 5.45963582,19.6761911 C3.70511343,18.5503509 2.59177015,17.1874173 2.21800896,15.7576511 C2.21375522,15.7416848 2.21134478,15.7268488 2.20992687,15.7104585 C2.19021791,15.4671482 2.08713582,14.3935872 2.01765821,13.6729817 C2.0114194,13.6472659 2.0036209,13.6218328 1.99794925,13.5961171 L1.95257612,13.0005578 L1.95257612,13.0004165 L1.95257612,13.0004165 L1.40200149,5.77203633 C1.39462836,5.67426005 1.44638209,5.58298335 1.53230746,5.53508427 C2.80048657,4.82592363 3.6756209,3.52374701 3.86746418,2.04904895 C3.88263582,1.9324804 3.97281493,1.84021463 4.09021791,1.82820454 L6.1613597,1.61569655 C7.25059851,1.50251909 8.35330746,1.4492508 9.44935224,1.44246863 L9.49614328,1.44246863 C10.5920463,1.44246863 11.6947552,1.50251909 12.783994,1.61569655 L14.8552776,1.82820454 C14.9725388,1.84021463 15.0628597,1.9324804 15.0778896,2.04904895 C15.2698746,3.5240296 16.1452925,4.82663011 17.413897,5.54144256 C17.499397,5.58962422 17.5508672,5.68061833 17.5433522,5.77811203 L17.0967104,11.6381894 Z M18.4978896,4.57244003 C17.2281507,4.0930254 16.3793896,2.8343677 16.3793896,1.42918688 C16.3793896,1.37591859 16.3793896,1.32265029 16.3860537,1.27602288 L16.4070388,0.88067889 C16.4139866,0.747720101 16.3151582,0.632705803 16.1823,0.619000168 L12.9310313,0.283847939 C11.8016657,0.170529184 10.6455015,0.110620017 9.50947164,0.103979142 L9.45601642,0.103979142 C8.31984478,0.103979142 7.16382239,0.16388831 6.03431493,0.283847939 L2.78318806,0.619000168 C2.65018806,0.632705803 2.55150149,0.747720101 2.55844925,0.88067889 L2.57929254,1.27602288 C2.57929254,1.32265029 2.58595672,1.36927771 2.58595672,1.42918688 C2.57262836,2.8343677 1.72400896,4.09966627 0.454128358,4.57244003 L0.163456716,4.68010698 C0.0586731343,4.71882187 -0.00782686567,4.82224996 0.000680597014,4.93330799 L0.748202985,14.7281743 C0.761673134,16.9924299 2.17164328,19.1433669 4.73125522,20.7883257 C6.84975522,22.1468791 8.98824776,23.0258765 9.22206119,23.1257722 L9.34244179,23.1723997 L9.47600896,23.1723997 L9.60971791,23.1723997 L9.72995672,23.1257722 C9.96391194,23.0325174 12.1024045,22.1468791 14.2209045,20.7883257 C16.7803746,19.1433669 18.1971507,16.9924299 18.2038149,14.7281743 L18.9514791,4.93754685 C18.9599866,4.82761918 18.8950463,4.72518015 18.7916806,4.6854762 L18.4978896,4.57244003 Z" id="Fill-3"></path>
            </g>
        </g>
    </g>
</svg>