<?xml version="1.0" encoding="UTF-8" standalone="no"?>
<svg width="19px" height="24px" viewBox="0 0 19 24" version="1.1" xmlns="http://www.w3.org/2000/svg" xmlns:xlink="http://www.w3.org/1999/xlink">
    <!-- Generator: sketchtool 42 (36781) - http://www.bohemiancoding.com/sketch -->
    <title>52F852DA-2AD8-4D16-887F-A4462D3C3919</title>
    <desc>Created with sketchtool.</desc>
    <defs></defs>
    <g id="Page-1" stroke="none" stroke-width="1" fill="none" fill-rule="evenodd">
        <g id="Retention-MainPage-XL" transform="translate(-1231.000000, -2538.000000)" fill="#444444">
            <g id="Group-21" transform="translate(1116.000000, 2339.000000)">
                <g id="Group-13" transform="translate(113.000000, 140.000000)">
                    <g id="Group-20" transform="translate(2.000000, 59.000000)">
                        <g id="Safety_icon_dark">
                            <path d="M9.49992278,10.7500351 C10.1076619,10.7500351 10.5998764,11.1975008 10.5998764,11.7499883 C10.5998764,12.1025413 10.3990986,12.4125521 10.0966963,12.590022 C10.0966963,12.590022 10.2041897,13.1801376 10.3249652,13.8749941 C10.3249652,14.0825104 10.140713,14.2498713 9.91244401,14.2498713 L9.08740154,14.2498713 C8.85913258,14.2498713 8.67503475,14.0825104 8.67503475,13.8749941 L8.90330371,12.590022 C8.60090139,12.4125521 8.39996911,12.1025413 8.39996911,11.7499883 C8.39996911,11.1975008 8.8921837,10.7500351 9.49992278,10.7500351 Z M7.30001544,8.9999064 L7.30001544,7.2500585 C7.30001544,6.14508354 8.28444463,5.2500117 9.49992278,5.2500117 C10.7155554,5.2500117 11.6999846,6.14508354 11.6999846,7.2500585 L11.6999846,8.9999064 L7.30001544,8.9999064 Z M5.92499614,8.9999064 L5.09995367,8.9999064 C4.49221459,8.9999064 4,9.44751252 4,10 L4,15.0000468 C4,15.5525343 4.49221459,16 5.09995367,16 L13.9000463,16 C14.507631,16 15,15.5525343 15,15.0000468 L15,10 C15,9.44751252 14.507631,8.9999064 13.9000463,8.9999064 L13.0750039,8.9999064 L13.0750039,7.2500585 C13.0750039,5.4550007 11.4743412,4 9.50007722,4 C7.52565885,4 5.92499614,5.4550007 5.92499614,7.2500585 L5.92499614,8.9999064 Z" id="Fill-1"></path>
                            <path d="M17.0967604,11.5342103 L17.0967604,11.5342103 L16.9474544,13.4921379 C16.938238,13.5329722 16.9261858,13.5733827 16.9156932,13.6140757 L16.7424246,15.6064794 C16.7410067,15.6220219 16.7384544,15.6372817 16.7346261,15.6524003 C16.3676708,17.0825904 15.2475216,18.4459479 13.492432,19.5722119 C11.8893425,20.5992868 10.2800141,21.3426409 9.57559621,21.647132 C9.51164845,21.6748259 9.44046934,21.6748259 9.37652158,21.6472733 C8.6716783,21.3426409 7.05653651,20.5992868 5.45968576,19.5722119 C3.70516337,18.4463717 2.59182009,17.0834382 2.2180589,15.653672 C2.21380517,15.6377056 2.21139472,15.6228696 2.20997681,15.6064794 C2.19026785,15.363169 2.08718576,14.2896081 2.01770815,13.5690025 C2.01146934,13.5432868 2.00367084,13.5178537 1.9979992,13.4921379 L1.95262606,12.8965786 L1.95262606,12.8964373 L1.95262606,12.8964373 L1.40205143,5.66805719 C1.3946783,5.57028091 1.44643203,5.47900421 1.5323574,5.43110513 C2.80053651,4.72194449 3.67567084,3.41976787 3.86751412,1.94506981 C3.88268576,1.82850126 3.97286487,1.73623549 4.09026785,1.7242254 L6.16140964,1.51171741 C7.25064845,1.39853995 8.3533574,1.34527166 9.44940218,1.33848949 L9.49619323,1.33848949 C10.5920962,1.33848949 11.6948052,1.39853995 12.784044,1.51171741 L14.8553276,1.7242254 C14.9725887,1.73623549 15.0629096,1.82850126 15.0779395,1.94506981 C15.2699246,3.42005046 16.1453425,4.72265097 17.413947,5.43746341 C17.499447,5.48564508 17.5509171,5.57663919 17.5434022,5.67413288 L17.0967604,11.5342103 Z M18.4979395,4.46846089 C17.2282007,3.98904626 16.3794395,2.73038856 16.3794395,1.32520774 C16.3794395,1.27193944 16.3794395,1.21867115 16.3861037,1.17204373 L16.4070887,0.776699748 C16.4140365,0.643740959 16.3152082,0.528726661 16.1823499,0.515021026 L12.9310813,0.179868797 C11.8017156,0.0665500421 10.6455514,0.00664087468 9.50952158,0 L9.45606636,0 C8.31989472,0 7.16387233,0.0599091674 6.03436487,0.179868797 L2.783238,0.515021026 C2.650238,0.528726661 2.55155143,0.643740959 2.5584992,0.776699748 L2.57934248,1.17204373 C2.57934248,1.21867115 2.58600666,1.26529857 2.58600666,1.32520774 C2.5726783,2.73038856 1.7240589,3.99568713 0.4541783,4.46846089 L0.163506658,4.57612784 C0.058723076,4.61484272 -0.007776924,4.71827082 0.000730538691,4.82932885 L0.748252927,14.6241951 C0.761723076,16.8884508 2.17169323,19.0393877 4.73130517,20.6843465 C6.84980517,22.0428999 8.9882977,22.9218974 9.22211114,23.0217931 L9.34249173,23.0684205 L9.4760589,23.0684205 L9.60976785,23.0684205 L9.73000666,23.0217931 C9.96396188,22.9285383 12.1024544,22.0428999 14.2209544,20.6843465 C16.7804246,19.0393877 18.1972007,16.8884508 18.2038649,14.6241951 L18.951529,4.8335677 C18.9600365,4.72364003 18.8950962,4.62120101 18.7917305,4.58149706 L18.4979395,4.46846089 Z" id="Fill-3"></path>
                        </g>
                    </g>
                </g>
            </g>
        </g>
    </g>
</svg>