<?xml version="1.0" standalone="no"?>
<!DOCTYPE svg PUBLIC "-//W3C//DTD SVG 1.1//EN" "http://www.w3.org/Graphics/SVG/1.1/DTD/svg11.dtd" >
<svg>
    <metadata>
        Created by FontForge 20090622 at Tue Nov 29 10:21:29 2016
        By deploy user
        Copyright (c) 2010 by MRfrukta (Frolov Alexey). All rights reserved.
    </metadata>
    <defs>
        <font id="TotShrift-BoldBold" horiz-adv-x="771">
            <font-face
                    font-family="TotShriftBold"
                    font-weight="700"
                    font-stretch="normal"
                    units-per-em="1000"
                    panose-1="0 0 0 0 0 0 0 0 0 0"
                    ascent="750"
                    descent="-250"
                    x-height="615"
                    cap-height="782"
                    bbox="-714 -681 1520 1578"
                    underline-thickness="50"
                    underline-position="-50"
                    unicode-range="U+000D-U+2122"
            />
            <missing-glyph horiz-adv-x="417"
                           d="M21 770h375v-770h-375v770zM333 63v645h-250v-645h250z"/>
            <glyph glyph-name=".notdef" horiz-adv-x="417"
                   d="M21 770h375v-770h-375v770zM333 63v645h-250v-645h250z"/>
            <glyph glyph-name="NULL" horiz-adv-x="0"
            />
            <glyph glyph-name="NULL" horiz-adv-x="0"
            />
            <glyph glyph-name="nonmarkingreturn" unicode="&#xd;" horiz-adv-x="500"
            />
            <glyph glyph-name="space" unicode=" " horiz-adv-x="500"
            />
            <glyph glyph-name="afii10070" unicode="&#x435;" horiz-adv-x="496"
                   d="M473 220l-32 -204h-441v80l48 14v408l-48 8v104l189 -16h252l32 -204h-95l-31 110l-158 -16l1 -142h157l3 -95h-160l-1 -141l158 -16l31 110h95z"/>
            <glyph glyph-name="afii10072" unicode="&#x436;" horiz-adv-x="710"
                   d="M220 96l47 14v158l-30 -1l-33 -125.5l-33 -125.5h-27h-58h-60h-26v80l47 14l64 221l-61 186l-47 9l-1 104l168 -16l67 -236h31l-1 139l-47 9v104l189 -16v-213v-24l32 1l9 31l56 205l156 14l12 -102l-47 -9l-61 -187l64 -220l47 -14v-81h-27q-14 1 -28 1h-31h-30.5
t-28.5 -1h-26l-65 252h-31v-157l47 -14v-81h-37h-82h-81h-37v81z"/>
            <glyph glyph-name="afii10073" unicode="&#x437;" horiz-adv-x="480"
                   d="M33 614l29 6t74 9t99 -1.5t103 -24.5q48 -20 63 -63q8 -21 16 -45.5t16 -52.5q20 -71 -1 -99q-5 -7 -9.5 -12t-6.5 -9q-4 -4 -5 -7l1 -1q17 -3 31 -32q15 -27 0 -92q-18 -84 -55.5 -125.5t-91 -55.5t-120.5 -8.5t-143 15.5q-9 51 -16.5 102l-15.5 102h94l31 -110h35
q35 0 77 12q52 12 52 54q1 20 2 43t3 48h-84h-83q0 2 0.5 13l1.5 33q0 22 0.5 34t0.5 15h80h56h26q-3 25 -5 47.5t-3 42.5q-2 39 -49 53q-20 6 -39 9.5t-36 3.5q-9 0 -15 0.5t-11 0.5t-9 1l-31 -112l-95 -1z"/>
            <glyph glyph-name="afii10074" unicode="&#x438;" horiz-adv-x="546"
                   d="M0 95l48 15v407l-48 9v104l189 -16v-253l143 253h142l-1 -504l48 -15l-1 -79h-37h-81h-81h-37v79l47 15l2 269l-143 -253v-17l47 -14l-1 -79h-37h-81h-81h-37v79z"/>
            <glyph glyph-name="afii10075" unicode="&#x439;" horiz-adv-x="546"
                   d="M0 96l47 14l1 407l-48 9v104l189 -16v-253l143 253h142l-1 -504l48 -14l-1 -80h-37h-81h-81h-37v80l47 14l2 269l-143 -253v-16l47 -14l-1 -80h-37h-81h-81h-37v80zM147 755l265 -46l-19 -77l-273 14z"/>
            <glyph glyph-name="afii10076" unicode="&#x43a;" horiz-adv-x="479"
                   d="M0 96l47 14q0 102 0.5 203.5t0.5 203.5l-48 9v104l189 -16v-213v-24l31 1l10 31l56 205l168 16v-104l-47 -9l-61 -187l64 -220l47 -14v-80h-86h-31.5t-27.5 -0.5t-19 -0.5h-7l-66 252h-30l-1 -157l47 -14v-80h-37h-81h-81h-37v80z"/>
            <glyph glyph-name="afii10077" unicode="&#x43b;" horiz-adv-x="554"
                   d="M94 631l292 -17l96 -504l46 -15v-79h-34h-72h-74h-33l1 79l46 15l-24 110l-13 94l1 35l-38 153h-32l-42 -156l-1 -33l-13 -93l-26 -110l46 -15v-79h-34h-76h-76h-34v79l47 15l106 432l-55 -4z"/>
            <glyph glyph-name="afii10078" unicode="&#x43c;" horiz-adv-x="694"
                   d="M0 96l47 9l27 413l-48 9v103l189 -16l47 -31l63 -221l63 221l47 31l143 1l36 -504l48 -15l-1 -79h-236v79l47 15l-36 283l-48 -173l-63 -7l-63 7l-48 173l-25 -283l47 -15l1 -80h-237v80z"/>
            <glyph glyph-name="afii10079" unicode="&#x43d;" horiz-adv-x="562"
                   d="M0 96l47 14v407l-47 9v104l190 -16l-1 -220h157v220h142v-504l47 -14v-80h-236v80l47 14v173h-157l1 -173l47 -14v-80h-237v80z"/>
            <glyph glyph-name="afii10080" unicode="&#x43e;" horiz-adv-x="547"
                   d="M520 317q1 -135 -55 -227q-57 -89 -195 -91q-117 0 -196 59q-77 59 -74 256q1 91 38 175q38 83 113 113q32 14 66.5 22t68.5 6q91 -8 161 -69q72 -62 73 -244zM263 502q-106 0 -106 -185q0 -97 20 -143q20 -50 81 -50q60 0 83 53q22 53 22 146q0 94 -22 136.5t-78 42.5z
"/>
            <glyph glyph-name="afii10081" unicode="&#x43f;" horiz-adv-x="562"
                   d="M0 96l47 14l1 408l-48 8v104l190 -16h298v-504l47 -14v-80h-236v80l47 14v384l-157 12l1 -364v-31l47 -15v-80h-237v80z"/>
            <glyph glyph-name="afii10082" unicode="&#x440;" horiz-adv-x="465"
                   d="M0 96l48 14v408l-48 8v104l189 -16q113 -7 181 -62.5t72 -159.5q0 -13 -0.5 -29t-3 -33.5t-8.5 -35.5t-18 -34t-30 -29.5t-44.5 -23.5t-63 -14.5t-84.5 -2.5v-79l47 -15v-80h-237v80zM189 299q31 -2 56 5q21 6 38 22.5t16 51.5q0 35 -17.5 52t-37.5 23t-37.5 5l-17.5 -1
v-158z"/>
            <glyph glyph-name="afii10083" unicode="&#x441;" horiz-adv-x="514"
                   d="M488 418h-96l-27 100q-4 -1 -9 -1t-11.5 -0.5t-14.5 -0.5q-18 -1 -36.5 -4.5t-38.5 -9.5q-59 -15 -77 -72q-19 -57 -20 -119q0 -32 3.5 -61.5t12.5 -58.5q17 -56 80 -72q42 -12 76 -12q8 0 14.5 0.5t11.5 0.5h9l31 110h94l-30 -192q-26 -3 -48 -8l-42 -10t-46.5 -8
t-61.5 -2q-113 0 -189 62t-71 253q0 90 38 174q38 83 113 114q32 13 67.5 19t69.5 7.5t64.5 -1t53.5 -5.5t36.5 -6l13.5 -3z"/>
            <glyph glyph-name="afii10084" unicode="&#x442;" horiz-adv-x="634"
                   d="M184 95l47 15v399l-105 10l-32 -112l-94 1l32 206v16l187 -16h354l31 -206h-94l-32 112l-105 -10v-399l47 -16l1 -79h-238z"/>
            <glyph glyph-name="afii10085" unicode="&#x443;" horiz-adv-x="477"
                   d="M391 15h-37h-82h-81h-37v79l48 16l32 157q-5 0 -12 1q-6 0 -14 0.5t-19 1.5q-46 3 -80 61l-61 186l-48 9v104l168 -16l58 -205l8 -31h32l33 239l155 13v-104l-47 -8l-63 -408l47 -16v-79z"/>
            <glyph glyph-name="afii10086" unicode="&#x444;" horiz-adv-x="682"
                   d="M254 425l-17 1t-37.5 -5t-37.5 -22.5t-18 -52.5q-1 -35 16 -51.5t38 -22.5q25 -7 56 -5v158zM396 266l17 -0.5t38 5.5t38 23t17 52q-1 35 -18 52t-37.5 23t-38 4.5l-17.5 -1.5zM206 96l48 14v48h-63q-43 0 -88 18q-44 18 -76 59q-31 41 -26 125q4 78 38 122
q17 23 35.5 39t39.5 26q21 11 42 17.5t41 9.5l57 8v44l142 -12v-16v-16q109 -9 179 -65q71 -56 75 -157q0 -14 -1 -29t-3 -34q-5 -38 -28 -70q-12 -16 -30 -29.5t-44.5 -23.5t-63 -14.5t-84.5 -2.5v-47l47 -14v-80h-237v80z"/>
            <glyph glyph-name="afii10087" unicode="&#x445;" horiz-adv-x="538"
                   d="M171 16h-171v79l47 15l64 221l-61 186l-48 9v104l168 -16l66 -236h41l65 236h168v-88l-47 -9l-61 -186l64 -221l47 -15v-79h-171l-65 251h-27q1 1 6 1h5t0.5 -0.5t-7 -0.5h-18.5z"/>
            <glyph glyph-name="afii10088" unicode="&#x446;" horiz-adv-x="578"
                   d="M0 96l48 14v408l-48 8v104l189 -16l1 -503l47 -9h46l47 8l2 506h142l-1 -513l78 3l-16 -200h-93q-1 5 -2 12l-2.5 15l-3.5 21q-4 22 -6 35q-1 7 -2 11q-7 1 -17 1h-20.5t-29.5 1l-146 6l-147 6q-17 0 -29.5 0.5t-20.5 0.5q-10 0 -16 1v80z"/>
            <glyph glyph-name="afii10089" unicode="&#x447;" horiz-adv-x="477"
                   d="M454 16h-37h-82h-81h-36v80l48 14v158q-33 -2 -64 -1.5t-63 0.5t-51.5 12.5t-30 33.5t-13.5 47.5t-2.5 54t3 54.5t3.5 48l-48 9v104l168 -16l11 -232l55 -4h32v236h140l1 -504l47 -14v-80z"/>
            <glyph glyph-name="afii10090" unicode="&#x448;" horiz-adv-x="679"
                   d="M0 96l47 14l1 407l-48 9v104l189 -16l1 -503l47 -9h15v512h142v-513l15 -1l47 10l1 504h141v-504l48 -14v-40q0 -10 0.5 -17.5t0.5 -12.5v-10q-87 -5 -162.5 -10.5t-154.5 -5.5q-50 0 -98 1.5t-96 5.5q-48 5 -81.5 6.5l-54.5 2.5v80z"/>
            <glyph glyph-name="afii10091" unicode="&#x449;" horiz-adv-x="710"
                   d="M0 96l47 14l1 408l-48 8v104l189 -16l1 -503l47 -9h15v512h142v-513h15l47 9l1 504h141v-512l79 2l-16 -199q-33 0 -52 0.5t-43 0.5q-1 5 -2 12q-1 6 -2 14.5t-3 20.5q-2 11 -3 20t-2 15q-1 7 -2 11q-10 0 -22 1q-11 0 -27 0.5t-37 1.5l-191 5l-189 6q-22 1 -37.5 1
t-26.5 1q-12 0 -22 1v80z"/>
            <glyph glyph-name="afii10092" unicode="&#x44a;" horiz-adv-x="538"
                   d="M63 16v80l47 14v407l-16 3l-32 -64l-62 1l16 173h47l189 -16l1 -179q142 6 201 -48q30 -27 42.5 -65t9.5 -89q-6 -98 -56 -145q-47 -46 -115 -64q-66 -18 -141 -15zM252 158l8 -1t20 0t26.5 4.5t26.5 12.5t20.5 23.5t8.5 38.5q0 35 -17.5 52t-37.5 23q-25 7 -55 4v-157z
"/>
            <glyph glyph-name="afii10093" unicode="&#x44b;" horiz-adv-x="695"
                   d="M189 158l17 -1t37.5 5t38 22.5t17.5 51.5t-17 52t-38 23t-38 5l-17 -1v-157zM0 95l47 15l1 408l-48 8v104l189 -16l1 -179q144 6 201 -48q58 -54 52 -154q-8 -99 -56 -144q-49 -47 -115 -65q-68 -17 -141 -14q-76 3 -131 6v79zM426 101l46 9l1 391l-47 9v104l188 -16
v-487l48 -9v-86h-237z"/>
            <glyph glyph-name="afii10094" unicode="&#x44c;" horiz-adv-x="472"
                   d="M0 95l47 15l1 408l-48 8v104l189 -16l1 -179q144 6 201 -48q58 -54 52 -154q-8 -99 -56 -144q-49 -47 -115 -65q-68 -17 -141 -14q-76 3 -131 6v79zM189 158l17 -1t37.5 5t38 22.5t17.5 51.5t-17 52t-38 23t-38 5l-17 -1v-157z"/>
            <glyph glyph-name="afii10095" unicode="&#x44d;" horiz-adv-x="516"
                   d="M33 614l29 6t74 9t99 -1.5t103 -24.5q75 -31 112 -113q36 -83 39 -175q3 -134 -35 -202q-36 -67 -102 -93q-32 -13 -69 -17.5t-79 -2.5t-84.5 6.5l-86.5 9.5q-9 51 -16.5 101.5l-15.5 103.5h94l31 -111h35q35 0 77 12q49 12 71 54q20 42 23 92q-12 -1 -26 -1h-58h-83
q0 2 0.5 13t0.5 33q1 22 1.5 34t0.5 15h80h56h26q-3 25 -9.5 48t-17.5 42t-27.5 33t-40.5 21q-20 5 -38.5 8.5t-35.5 3.5q-9 0 -15 0.5t-11 0.5t-9 1l-31 -112h-95z"/>
            <glyph glyph-name="afii10096" unicode="&#x44e;" horiz-adv-x="790"
                   d="M752 317q1 -136 -56 -219q-57 -82 -195 -82q-106 -1 -183 41q-73 42 -84 194h-23q-5 0 -9.5 0.5t-6.5 0.5h-5q-1 0 -1 -22v-49q0 -32 1 -71q2 -1 6 -2q3 -1 7 -2.5t10 -3.5l24 -6v-40v-40h-37h-82h-81h-37v39v41q2 0 6 1q3 1 7 2t10 3l10.5 3.5l7.5 2.5q4 1 6 2v63v140
v141q0 16 0.5 28t0.5 20v16q-2 0 -6 1q-3 1 -7.5 1t-9.5 2q-11 2 -17.5 3t-7.5 1v50v54h7q4 0 9.5 -1t13.5 -2l64 -5l65 -5l30 -3v-40v-88v-88q1 -20 1 -29t0 -8h5h7t10 1h23q11 81 46 146q38 68 102 94q32 13 66.5 21t68.5 6q91 -8 161 -69q72 -62 73 -243zM494 519
q-106 0 -106 -185q0 -97 20 -144q21 -49 82 -49t82 53q22 53 22 146q0 94 -22 136.5t-78 42.5z"/>
            <glyph glyph-name="afii10097" unicode="&#x44f;" horiz-adv-x="480"
                   d="M457 16h-237v80l47 14v79q-27 -2 -51 0q-1 -3 -2 -7t-2 -8.5t-3 -11.5l-16 -60l-15 -60q-2 -7 -3 -11.5t-2 -7.5q-1 -4 -2 -7h-27h-58h-60h-26v40v40q2 0 6 1q3 1 7 2t10 3l10.5 3.5l7.5 2.5q4 1 6 2l5 18l11.5 39.5l12 40l5.5 18.5q-51 32 -59 82q-4 25 -6 45.5t-2 37.5
q1 52 20 92t52 68t79 43.5t103 19.5l189 16v-104l-47 -9v-407l47 -14v-80zM268 456l-17.5 1t-37.5 -5t-37.5 -22.5t-17.5 -51.5q-1 -35 16 -52t38 -23t38.5 -5l17.5 1v157z"/>
            <glyph glyph-name="afii10017.001" horiz-adv-x="692"
                   d="M116 781l365 -21l121 -630l58 -11l-1 -100h-42h-91h-92h-41l1 99l58 11l-31 139h-172l-33 -139l58 -11l1 -107q-17 1 -60 -6q-21 -4 -42.5 -6.5t-44.5 -4.5t-43.5 -2.5t-39.5 1.5q-38 3 -45 27v98l58 11l132 540l-68 -3zM314 622l-48 -197l-1 -42l140 2v43l-31 194h-60z
"/>
            <glyph glyph-name="afii10020.001" horiz-adv-x="620"
                   d="M296 120v-17.5t-1 -36.5q-1 -12 -1 -20.5v-14.5v-11h-46h-101h-101h-46v100l59 14l1 508l-60 12v129l236 -19h133l183 -1l39 -254h-119l-38 136l-198 -19q0 -126 0.5 -245t0.5 -244q3 -1 7 -2q4 -2 9 -3.5t13 -3.5q16 -5 22 -6z"/>
            <glyph glyph-name="afii10021.001" horiz-adv-x="723"
                   d="M126 787l365 -21h119l20 -630l59 -18l-20 -235h-137l-20 116h-334l-20 -116h-22h-47.5t-47 -0.5l-21.5 -0.5q-1 4 -1 9q-1 5 -1 11.5t-1 16.5l-7 81l-7 81q-1 9 -1.5 16t-0.5 12q-1 5 -1 9l59 18l72 256l70 284l-69 -4zM333 622l-77 -447v-40l217 1l-22 494z"/>
            <glyph glyph-name="afii10022.001" horiz-adv-x="620"
                   d="M591 275l-40 -255h-551v100l60 17v510l-60 11v130l236 -20h315l40 -256h-118l-39 138l-198 -20l1 -177h197l4 -119h-201l-1 -176l198 -20l39 137h118z"/>
            <glyph glyph-name="afii10024.001" horiz-adv-x="888"
                   d="M275 120l59 17v198l-38 -1l-41.5 -157l-40.5 -157h-34h-73h-74h-33v100l59 17l80 277l-77 232l-58 12l-1 129l210 -20l83 -295h39l-1 174l-59 12v129l236 -20v-266v-30l40 1l11 39l71 256l194 18l16 -128l-59 -11l-76 -233l79 -276l59 -17v-101h-34q-17 1 -35 1h-38
h-38.5t-35.5 -1h-33l-81 315h-39v-197l59 -17v-101h-46h-102h-102h-46v101z"/>
            <glyph glyph-name="afii10025.001" horiz-adv-x="600"
                   d="M41 768l16.5 3.5t45.5 7.5t67.5 7t80.5 1.5t86 -9t85 -24.5q61 -25 79 -79q10 -26 19.5 -56.5l20.5 -65.5q25 -88 -1 -124l-11.5 -15t-7.5 -11l-7 -9l1 -1q22 -4 39 -40q18 -34 0 -116q-15 -70 -41 -115.5t-62 -72.5t-80.5 -37.5t-96.5 -11.5t-111 5.5t-122 14.5
q-11 63 -20.5 127l-19.5 128h118l39 -137h11q5 0 13 -0.5t19 -0.5q43 0 96 15q64 16 66 68q1 51 6 114h-105h-104q0 2 0.5 16l1.5 41l1.5 43t0.5 19h100h70h32q-4 31 -6.5 59t-3.5 53q-1 49 -61 66q-53 16 -94 17q-11 0 -19 0.5t-13 0.5q-6 0 -11 1l-39 -140l-119 -1z"/>
            <glyph glyph-name="afii10026.001" horiz-adv-x="683"
                   d="M0 119l60 18v509l-60 12v130l236 -20v-317l179 317h177l-1 -631l60 -18l-1 -99h-46h-102h-101h-46v99l59 18l2 337l-179 -316v-22l59 -17l-1 -99h-46h-102h-101h-46v99z"/>
            <glyph glyph-name="afii10027.001" horiz-adv-x="683"
                   d="M0 120l59 17l1 509l-60 12v130l236 -20v-317l179 317h177l-1 -631l60 -17l-1 -100h-46h-102h-101h-46v100l59 17l2 337l-179 -316v-21l59 -17l-1 -100h-46h-102h-101h-46v100zM184 944l331 -58l-24 -96l-341 17z"/>
            <glyph glyph-name="afii10028.001" horiz-adv-x="599"
                   d="M0 120l59 17q0 128 0.5 254.5t0.5 254.5l-60 12v129l236 -20v-266v-30l39 1l12 39l71 256l210 20l-1 -130l-58 -11l-76 -233l79 -276l59 -17v-100h-107h-39.5t-34.5 -0.5t-24 -0.5h-9l-82 315h-38l-1 -197l59 -17v-100h-46h-102h-101h-46v100z"/>
            <glyph glyph-name="afii10029.001" horiz-adv-x="693"
                   d="M117 789l365 -21l121 -631l57 -18v-99h-42h-91h-92h-41l1 99l58 18l-31 138l-16 118l1 43l-47 192h-40l-53 -195l-1 -42l-16 -116l-33 -138l58 -18v-99h-43h-95h-94h-43v99l59 18l132 540l-68 -4z"/>
            <glyph glyph-name="afii10030.001" horiz-adv-x="868"
                   d="M0 120l59 11l33 516l-59 12v129l236 -20l59 -39l78 -276l79 276l59 39l178 1l45 -630l60 -19l-1 -99h-295v99l59 19l-45 354l-60 -217l-79 -9l-78 9l-60 216l-32 -353l59 -19l1 -100h-296v100z"/>
            <glyph glyph-name="afii10031.001" horiz-adv-x="703"
                   d="M0 120l59 17v509l-59 12v129l237 -19l-1 -276h197v276h177v-631l59 -17v-100h-295v100l59 17v217h-197l1 -217l59 -17v-100h-296v100z"/>
            <glyph glyph-name="afii10032.001" horiz-adv-x="684"
                   d="M650 396q2 -171 -69 -284q-70 -111 -244 -113q-146 0 -244 74q-98 75 -93 320q2 116 48 218q46 103 141 142q40 17 83 27t86 7q112 -9 201 -86q90 -77 91 -305zM329 628q-133 0 -133 -232q0 -119 25 -179q26 -62 102 -62t103 66q28 66 28 183t-27.5 170.5t-97.5 53.5z
"/>
            <glyph glyph-name="afii10033.001" horiz-adv-x="703"
                   d="M0 120l59 18l1 509l-60 11v130l237 -20h373v-630l59 -18v-100h-295v100l59 18v480l-197 15l1 -456v-38l59 -19v-100h-296v100z"/>
            <glyph glyph-name="afii10034.001" horiz-adv-x="581"
                   d="M0 120l60 18v509l-60 11v130l236 -20q70 -5 127.5 -24.5t99 -54t64.5 -84.5t26 -115q0 -17 -0.5 -37t-4 -41.5t-11 -43.5t-22.5 -43q-15 -20 -37.5 -37t-56 -29.5t-79 -18.5t-105.5 -3v-98l59 -19v-100h-296v100zM236 374q39 -3 70 6q26 7 47.5 28t20.5 65q-1 29 -11 48
t-25.5 29.5t-33 15t-32.5 6t-25.5 0.5l-10.5 -1v-197z"/>
            <glyph glyph-name="afii10035.001" horiz-adv-x="643"
                   d="M610 522h-120l-34 125q-5 -1 -11 -1q-5 0 -13.5 -0.5t-19.5 -0.5q-42 -1 -93 -17q-74 -20 -96 -90q-11 -35 -17.5 -72t-7.5 -77q-2 -81 19 -150t100 -90q52 -15 95 -15q11 0 19.5 0.5t13.5 0.5h11l39 137h117l-37 -240q-32 -4 -59.5 -9.5t-52.5 -12.5t-58.5 -10.5
t-77.5 -2.5q-141 1 -236 78q-94 77 -89 316q1 114 48 218q46 103 141 142q41 16 85 23.5t86.5 9.5t81 -1t67 -7t45.5 -7.5l17 -3.5z"/>
            <glyph glyph-name="afii10036.001" horiz-adv-x="792"
                   d="M230 119l59 19v498l-132 13l-39 -140l-118 1l40 257v20l234 -20l442 1l39 -258h-118l-39 140l-132 -13v-498l59 -20l1 -99h-297z"/>
            <glyph glyph-name="afii10037.001" horiz-adv-x="596"
                   d="M489 19h-47h-102h-101h-46v99l60 20l39 196q-6 0 -14 1q-7 0 -17.5 0.5t-24.5 1.5q-57 5 -100 77l-76 232l-60 12v129l210 -20l72 -256l10 -38l40 -1l42 299l194 17l-1 -130l-58 -11l-79 -510l59 -19v-99z"/>
            <glyph glyph-name="afii10038.001" horiz-adv-x="852"
                   d="M318 531l-21.5 1t-47 -6t-47 -28t-22.5 -65t20.5 -65t47.5 -28q31 -9 70 -6v197zM495 333l10 -1t25.5 0.5t33.5 6t33 15.5t25 30t10 48t-10.5 48t-26 30t-33 15.5t-32.5 5.5t-25.5 0l-10.5 -1zM258 120l59 17v60h-78q-27 1 -54.5 6.5t-55.5 16.5q-55 22 -95 74
q-39 52 -33 156q6 97 48 153t94 81q51 26 103 34l72 10v55l177 -15v-20v-20q138 -12 224 -82q89 -69 93 -196q0 -17 -1.5 -36.5t-3.5 -42.5q-5 -47 -34 -87q-15 -20 -37.5 -37t-56 -29.5t-79 -18.5t-105.5 -3v-59l59 -17v-100h-296v100z"/>
            <glyph glyph-name="afii10039.001" horiz-adv-x="673"
                   d="M214 20h-214v99l59 19l80 276l-77 232l-59 12v129l210 -20l82 -294h51l82 294l210 1v-110l-59 -12l-77 -232l80 -276l59 -19v-99h-214l-81 314h-33q1 1 7 1h5.5t1 -0.5t-8.5 -0.5h-23z"/>
            <glyph glyph-name="afii10040.001" horiz-adv-x="723"
                   d="M0 120l60 18v509l-60 11v130l236 -20l1 -629l59 -11l58 -1l59 11l2 632h177l-1 -641l98 3l-20 -249h-117q0 6 -2 15q-2 8 -4 18.5t-4 25.5q-2 14 -4 25t-3 19q-2 9 -2 14l-84 3l-183 7l-183 7q-21 1 -36 1t-26 1q-12 0 -21 1v100z"/>
            <glyph glyph-name="afii10041.001" horiz-adv-x="596"
                   d="M568 20h-47h-102h-101h-46v100l60 17v198q-42 -2 -80 -1.5t-78 0.5t-65 15.5t-38 41.5t-17 59t-3 68t4.5 68t4.5 60l-60 12v129l210 -19l14 -291l68 -4l40 -1v296h176l1 -631l59 -17v-100z"/>
            <glyph glyph-name="afii10042.001" horiz-adv-x="849"
                   d="M0 120l59 18l1 508l-60 12v130l236 -20l1 -629l59 -12h19v641h177v-642l19 -1l59 12l1 631h177v-630l59 -18v-13v-15.5t1 -21.5q0 -13 0.5 -22t0.5 -15v-13q-108 -5 -203 -12.5t-193 -7.5q-125 0 -243 9q-60 5 -102 7.5t-68 3.5v100z"/>
            <glyph glyph-name="afii10043.001" horiz-adv-x="888"
                   d="M0 120l59 18l1 509l-60 11v130l236 -20l1 -629l59 -11l19 -1v641h177v-642h19l59 11l1 631h177v-640l98 2l-20 -249h-36t-28.5 0.5t-26 0.5h-27.5q-1 6 -2 15q-2 8 -3.5 18.5l-3.5 25.5q-2 14 -4 25t-3 19q-2 9 -2 14l-108 3l-238 7l-237 7q-52 1 -80 3q-16 1 -27 1v100z
"/>
            <glyph glyph-name="afii10044.001" horiz-adv-x="673"
                   d="M79 20v100l59 18v508l-20 4l-40 -80l-78 1l20 216h59l236 -19l1 -224q178 7 252 -60q73 -67 65 -193q-9 -123 -70 -181q-59 -57 -144 -80q-81 -22 -176 -19zM315 197l21 -1.5t47 6t47.5 28.5t22.5 65q0 22 -6 37.5t-16 27t-22 18t-25 10.5q-31 9 -69 6v-197z"/>
            <glyph glyph-name="afii10045.001" horiz-adv-x="869"
                   d="M236 197l21 -1t47 6t47.5 28t22.5 65q0 44 -21.5 65t-47.5 28.5t-47.5 6.5l-21.5 -1v-197zM0 119l59 19l1 509l-60 11v130l236 -20l2 -224q179 8 251 -60q73 -67 65 -193q-9 -122 -70 -180q-60 -59 -144 -81q-83 -21 -176 -18q-46 2 -87 4t-77 4v99zM532 126l58 12l1 488
l-59 12v129l236 -20v-608l59 -12l1 -107h-297z"/>
            <glyph glyph-name="afii10046.001" horiz-adv-x="590"
                   d="M0 119l59 19l1 509l-60 11v130l236 -20l2 -224q179 8 251 -60q73 -67 65 -193q-9 -122 -70 -180q-60 -59 -144 -81q-83 -21 -176 -18q-46 2 -87 4t-77 4v99zM236 197l21 -1t47 6t47.5 28t22.5 65q0 44 -21.5 65t-47.5 28.5t-47.5 6.5l-21.5 -1v-197z"/>
            <glyph glyph-name="afii10047.001" horiz-adv-x="645"
                   d="M41 768l16.5 3.5t45.5 7.5t67.5 7t80.5 1.5t86 -9t85 -24.5q94 -39 140 -142q46 -101 49 -218q4 -166 -43 -253q-47 -84 -128 -116q-78 -31 -185 -25q-52 3 -105.5 8t-108.5 12q-11 63 -20.5 126.5l-19.5 129.5h118l39 -138h11q5 0 13 -0.5t19 -0.5q43 0 96 15
q63 16 89 68q24 49 29 115q-15 -1 -33 -1h-72h-104q0 2 0.5 16l1.5 41l1.5 43t0.5 19h100h70h32q-4 31 -12 59.5t-21.5 52.5t-34 41t-50.5 26q-25 7 -48 11t-45 5q-11 0 -19 0.5t-13 0.5q-6 0 -11 1l-39 -140h-119z"/>
            <glyph glyph-name="afii10048.001" horiz-adv-x="988"
                   d="M940 396q1 -169 -70 -274q-71 -102 -244 -102q-134 -2 -228 51q-92 52 -106 243h-28q-7 0 -12 0.5t-8 0.5h-7l-0.5 -7.5t-0.5 -20v-28.5v-33q0 -40 1 -89q3 -1 7 -2q4 -2 9 -3.5t13 -3.5q16 -5 22 -6l8 -2v-50v-50h-46h-102h-102h-46v49v51q3 1 7 2q6 1 22 6l30 9v79v175
v176q0 20 0.5 35t0.5 25v20q-3 0 -7 1t-9.5 1.5t-12.5 2.5q-29 6 -31 6v62v68q4 0 9 -1q9 -2 28 -3l81 -7l81 -6q9 -1 16 -1.5t12 -0.5q5 -1 9 -1v-51v-110v-109q1 -25 1 -36.5t0 -10.5h7h8.5t12.5 1q7 0 12.5 0.5t9.5 0.5h7q12 100 57 182q46 84 128 118q40 16 83 26t85 7
q113 -9 202 -86q90 -77 91 -304zM618 649q-133 0 -133 -232q0 -119 25 -179q26 -62 102 -62t103 66q28 66 28 183t-27.5 170.5t-97.5 53.5z"/>
            <glyph glyph-name="afii10049.001" horiz-adv-x="600"
                   d="M571 20h-296v100l59 17v99q-34 -1 -64 0q-1 -3 -2 -8q-2 -5 -3.5 -11.5l-3.5 -14.5l-20 -75l-19 -74l-3.5 -14.5l-2.5 -10.5q-1 -5 -2 -8h-34h-73h-74h-33v50v50q3 1 7 2q6 1 22 6l30 9l6.5 22.5l14 50t14.5 50l7 22.5q-63 41 -74 103q-9 61 -9 104q2 65 25 115
t64.5 84.5t99 54.5t128.5 25l236 19v-129l-59 -12v-509l59 -17v-100zM335 570l-21.5 1t-47 -6t-47 -28t-22.5 -65q-1 -29 9 -48t25.5 -30t33.5 -15.5t33.5 -6t26 -0.5t10.5 2v196z"/>
            <glyph glyph-name="afii10069" unicode="&#x434;" horiz-adv-x="578"
                   d="M101 630l292 -17h95l16 -504l47 -15l-16 -188h-109l-16 93h-268l-16 -93h-110q-1 3 -1 7t-0.5 9t-0.5 13l-6 65l-6 65q-1 8 -1 13v9t-1 7l47 15l58 205l56 227l-55 -3zM266 498l-61 -358v-32l173 1l-17 395z"/>
            <glyph glyph-name="afii10018.001" horiz-adv-x="683"
                   d="M650 303q0 -71 -17 -123.5t-46.5 -89t-69 -59t-84 -33.5t-92 -11.5t-92.5 5.5q-8 1 -29 4.5l-55 9.5q-65 13 -125 13v99l59 11v509l-59 11v129l236 -19h131l184 -1l38 -251l-123 16l-33 118l-138 -3l-59 -17l-2 -117q78 14 170 5q94 -9 160 -66l1 -1q44 -36 45 -139z
M275 141q19 1 38 1.5t39 0.5q47 1 91 42q44 42 29 134q-3 17 -18.5 27.5t-37.5 16t-47 7.5t-46 2t-35 -1l-14 -1z"/>
            <glyph glyph-name="afii10019.001" horiz-adv-x="671"
                   d="M275 458q50 -4 90 3q34 6 61.5 24t28.5 57v19v21q-1 24 -13 38t-29 20t-38 4.5t-40.5 -7t-35.5 -15t-23 -20.5zM209 -8q-18 3 -38 7.5t-42 8.5t-45 7t-45 3l1 100l59 10v510l-59 11v129l235 -19q174 49 241 -6q68 -54 78 -136v-2q10 -81 -12 -121q-21 -41 -48 -48
q25 0 41 -13h1q24 -21 43 -125q21 -105 -46 -205q-39 -59 -138 -95q-100 -35 -226 -16zM273 130l77 3q47 0 91 41q43 42 30 135q-3 17 -19 27t-38 15.5t-46.5 7.5t-45.5 2t-35 -1l-14 -1v-229z"/>
            <glyph glyph-name="afii10066" unicode="&#x431;" horiz-adv-x="546"
                   d="M520 242q0 -86 -29.5 -138t-76.5 -79t-104 -33t-111 2q-7 0 -23.5 3l-43.5 8t-52 7.5t-48 2.5v79l47 9v407l-47 9v103l189 -15h105l147 -1l30 -200l-98 12l-27 95l-110 -3l-47 -13l-2 -94q31 5 64.5 6.5t71.5 -2.5q77 -8 128 -53h1q35 -30 36 -112zM220 113q15 1 30 1h32
q38 2 72 34q36 33 24 107q-2 14 -15 22t-30.5 12.5t-37.5 6t-37 1.5t-28 -0.5l-11 -0.5z"/>
            <glyph glyph-name="afii10067" unicode="&#x432;" horiz-adv-x="537"
                   d="M220 366q40 -4 72 2q27 5 49 19.5t23 46.5v15v17q-2 28 -21 39t-43 10.5t-47 -10.5t-32 -23zM167 -6q-28 4 -64 12.5t-72 7.5l1 80l47 8v408l-47 9v103l188 -15q139 40 193 -5q55 -42 62 -108v-2q9 -64 -9 -97q-19 -33 -39 -38q21 0 33 -11h1q19 -16 34 -100
q16 -84 -37 -164q-29 -46 -110 -76q-39 -14 -84.5 -17t-96.5 5zM218 104l62 2q37 0 73 33q34 34 24 108q-3 13 -15.5 21.5t-30 13t-37.5 6t-37 1.5t-28 -1l-11 -1v-183z"/>
            <glyph glyph-name="A.001" horiz-adv-x="692"
                   d="M116 781l365 -21l121 -630l58 -11l-1 -100h-42h-91h-92h-41l1 99l58 11l-31 139h-172l-33 -139l58 -11l1 -107q-17 1 -60 -6q-21 -4 -42.5 -6.5t-44.5 -4.5t-43.5 -2.5t-39.5 1.5q-38 3 -45 27v98l58 11l132 540l-68 -3zM314 622l-48 -197l-1 -42l140 2v43l-31 194h-60z
"/>
            <glyph glyph-name="B.001" horiz-adv-x="671"
                   d="M275 458q50 -4 90 3q34 6 61.5 24t28.5 57v19v21q-1 24 -13 38t-29 20t-38 4.5t-40.5 -7t-35.5 -15t-23 -20.5zM209 -8q-18 3 -38 7.5t-42 8.5t-45 7t-45 3l1 100l59 10v510l-59 11v129l235 -19q174 49 241 -6q68 -54 78 -136v-2q10 -81 -12 -121q-21 -41 -48 -48
q25 0 41 -13h1q24 -21 43 -125q21 -105 -46 -205q-39 -59 -138 -95q-100 -35 -226 -16zM273 130l77 3q47 0 91 41q43 42 30 135q-3 17 -19 27t-38 15.5t-46.5 7.5t-45.5 2t-35 -1l-14 -1v-229z"/>
            <glyph glyph-name="C.001" horiz-adv-x="643"
                   d="M610 522h-120l-34 125q-5 -1 -11 -1q-5 0 -13.5 -0.5t-19.5 -0.5q-42 -1 -93 -17q-74 -20 -96 -90q-11 -35 -17.5 -72t-7.5 -77q-2 -81 19 -150t100 -90q52 -15 95 -15q11 0 19.5 0.5t13.5 0.5h11l39 137h117l-37 -240q-32 -4 -59.5 -9.5t-52.5 -12.5t-58.5 -10.5
t-77.5 -2.5q-141 1 -236 78q-94 77 -89 316q1 114 48 218q46 103 141 142q41 16 85 23.5t86.5 9.5t81 -1t67 -7t45.5 -7.5l17 -3.5z"/>
            <glyph glyph-name="zero.001" horiz-adv-x="578"
                   d="M277 629q-101 0 -101 -232q0 -59 4 -103.5t15 -75.5t29.5 -46.5t47.5 -15.5q30 0 49.5 17t31 49.5t16 78.5t4.5 104q0 117 -21 170.5t-75 53.5zM550 396q0 -172 -60 -284q-58 -111 -205 -113q-125 0 -208 74q-82 74 -77 320q2 116 40 218q39 103 120 142q33 17 70 26.5
t72 6.5q95 -9 170 -86q77 -77 78 -304z"/>
            <glyph glyph-name="one.001" horiz-adv-x="441"
                   d="M420 118v-17.5t-1 -36.5q-1 -12 -1 -20.5v-14.5v-11h-46h-101h-101h-45v99l59 15v508l-29 6l-36 -127h-119l40 255l163 1l158 -13v-635q3 0 7 -1t9 -2t13 -2q8 -2 13 -2t9 -1t8 -1z"/>
            <glyph glyph-name="two.001" horiz-adv-x="518"
                   d="M40 755q205 57 316 -3q111 -59 134 -199v-2q3 -104 -30 -180q-32 -73 -74 -124q-20 -25 -39.5 -43t-36.5 -30q-9 -6 -15 -10.5t-11 -7.5l-9 -6l33 -3l74 -7l73 -7q8 -1 14.5 -1.5t11.5 -0.5q5 -1 8 -1q-1 -6 -2 -14q-2 -7 -3.5 -17l-3.5 -24l-3.5 -24l-2.5 -17
q-1 -8 -2 -14h-74h-163h-162h-73v49v49l21 30l21 30h18h19q91 38 166 155q79 119 89 207v2q-3 92 -73 96q-71 4 -108 0l-35 -126h-118z"/>
            <glyph glyph-name="three.001" horiz-adv-x="507"
                   d="M0 656v130q5 -1 54 -1q48 2 49 2q205 67 297 -47q52 -65 53 -162q3 -96 -36 -152v-1q32 -13 49 -68q17 -53 15 -118t-22 -124q-21 -60 -65 -87q-59 -36 -139 -37q-42 -1 -80 1t-75 7q-29 3 -54 8.5l-46 10.5v50v50l99 39l20 -7l19 -6.5t20 -6.5q34 -11 57 -7t38.5 17.5
t24 33.5t12.5 41.5t5 41t1 32.5t-8.5 22t-22.5 15t-32 9t-36 5q-19 2 -36 2.5t-31 -0.5l-31 -2l-1 134l14.5 -1.5t36.5 -1.5t47.5 2t47.5 8t36.5 17t15.5 29q2 45 -5.5 72t-20.5 42t-29.5 19.5t-32.5 3.5t-29.5 -5l-20.5 -6q-12 -5 -22.5 -8t-18.5 -6q-10 -4 -18 -6z"/>
            <glyph glyph-name="four" unicode="4" horiz-adv-x="600"
                   d="M253 120l59 18l1 79q-78 -1 -156.5 -0.5t-156.5 -0.5v178l191 374h298v-412l83 -1l-1 -138q-4 -1 -10 -1q-5 0 -13 -0.5t-18 -0.5q-11 -1 -18.5 -1h-12.5h-10v-38v-37l60 -19v-100h-46h-102h-102h-46v100zM295 669l-118 -275v-40h138v315h-20z"/>
            <glyph glyph-name="five.001" horiz-adv-x="566"
                   d="M521 521h-118l-39 139l-197 -20l-0.5 -8t-1.5 -20.5t-2.5 -28.5t-2.5 -32l-6 -88q5 0 27.5 2.5t60.5 7.5q78 10 163 -12q72 -20 103 -113q32 -94 -2 -187q-33 -94 -144 -149q-110 -55 -325 1l-2 10t-1.5 11.5t-2.5 16.5l-13 83l-13 84q-2 9 -2.5 16t-1.5 12t-1 10h60h60
q1 -7 4 -16l5 -19.5t8 -27.5t8 -27t5 -19q3 -9 5 -16q122 -18 165 16t44 80q1 34 -10.5 60.5t-36 41t-62 16.5t-88.5 -13h-1h-36q-17 1 -50.5 1h-82.5q1 7 1 18v22t1 31l3 157l4 158q0 18 0.5 31.5t0.5 22.5q0 11 1 18l6.5 -0.5t17.5 -1.5t25.5 -2.5t29.5 -2.5l80 -6
q111 1 213 0q26 -1 44.5 -1h31.5h26z"/>
            <glyph glyph-name="six.001" horiz-adv-x="609"
                   d="M456 663q-111 12 -199 -37q-88 -48 -76 -199q163 115 266 52q103 -61 118 -177q17 -114 -69 -218q-85 -103 -296 -73q-110 17 -165 164q-54 149 -27 307q27 157 149 264q123 106 369 39zM312 347q-21 0 -40 -8t-33.5 -22t-22.5 -32.5t-8 -39.5t8 -40t22.5 -33t33.5 -22
t40 -8t40.5 8t33.5 22t22.5 33t8.5 40t-8.5 39.5t-22.5 32.5t-33.5 22t-40.5 8z"/>
            <glyph glyph-name="seven.001" horiz-adv-x="490"
                   d="M447 19h-47h-101h-102h-46l1 99l59 20l40 197l6 45l13 100l13 100q2 11 3 20t2 15q1 7 2 11l-136 11l-35 -127h-119l41 257v21l234 -20l15 1l176 -1l1 -121l-79 -510l59 -19v-99z"/>
            <glyph glyph-name="eight.001" horiz-adv-x="579"
                   d="M275 816q37 -3 72.5 -13.5t66 -28t54.5 -42.5t39 -56q31 -62 31 -105q0 -41 -3 -71q-2 -14 -6 -28.5t-11 -28.5l-12 -27q12 -5 28 -67q17 -62 6 -136q-10 -72 -67 -133q-56 -60 -190 -60q-149 0 -208 58q-61 59 -71 129q-11 72 9 135q20 64 31 74l-3 9l-4.5 11t-5.5 15
q-12 33 -15 52q-4 15 -1 87q4 70 63 136q58 66 128 78zM172 596q-14 -77 30 -91q46 -14 81 -13q42 2 76 22q36 21 17 91q-10 37 -41 53.5t-65 14.5t-63 -22t-35 -55zM171 232q5 -42 33.5 -65.5t62.5 -26t65.5 17.5t42.5 64q18 81 -17 107q-33 24 -77 26q-35 1 -81 -16
q-42 -16 -29 -107z"/>
            <glyph glyph-name="nine.001" horiz-adv-x="616"
                   d="M111 151q109 -12 198 36q89 50 77 200q-163 -114 -267 -52q-102 61 -117 176q-15 114 69 218q86 104 297 74q109 -16 163 -164q55 -147 28 -307q-27 -159 -150 -265q-121 -106 -368 -38zM255 467q21 0 40 8t33.5 22t22.5 33t8 40t-8 39.5t-22.5 33t-33.5 22.5t-40 8
q-22 0 -41 -8t-33.5 -22.5t-22.5 -33t-8 -39.5t8 -40t22.5 -33t33.5 -22t41 -8z"/>
            <glyph glyph-name="slash" unicode="/" horiz-adv-x="312"
                   d="M205 -37h-205v138l46 228q1 5 2 13q1 7 2 16.5t3 23.5q4 26 8 55l8 61l15 116l3.5 23l2.5 17q1 8 2 13l-1 163l206 1v-140l-91 -591z"/>
            <glyph glyph-name="question.001" horiz-adv-x="571"
                   d="M173 167l200 -11l-4 -167h-192zM51 790q206 56 333 -4q127 -58 150 -200q10 -67 -19 -149q-28 -78 -97 -95q-4 -2 -10 -4q-11 -3 -31 -6h-1l-2 -24.5t-5 -53t-5 -53l-2 -24.5q-49 2 -89 5q-17 1 -33 1.5t-28.5 1.5t-20 1.5l-7.5 0.5q1 -1 1 42q1 22 1 46v50v97v44
q54 2 124 21q71 20 68 89q-1 30 -14 50t-32.5 31t-43 15.5t-46.5 5t-43.5 -1.5t-33.5 -4l-36 -126h-118z"/>
            <glyph glyph-name="exclam.001" horiz-adv-x="263"
                   d="M8 464l-12 352h255l-13 -351q0 -5 -1 -11q-2 -13 -3 -34l-9 -99l-9 -99q-2 -11 -2 -19.5t-1 -13.5q-1 -6 -1 -11l-13.5 0.5t-33 1.5t-43 2t-43 2.5t-32.5 2l-13 0.5zM22 167l200 -11l-3 -166h-192z"/>
            <glyph glyph-name="e" unicode="&#x22;" horiz-adv-x="232"
                   d="M0 645v143l104 -4l-11 -142q-1 -5 -2 -14q-1 -8 -2.5 -19l-3.5 -25t-3 -25t-2 -18q-1 -9 -2 -14l-36 3l-36 3zM118 642v143l103 -4l-10 -142q-1 -5 -2 -14q-1 -8 -2.5 -19l-3.5 -25t-3 -25t-2 -18q-1 -9 -2 -14l-36 3q-9 1 -15 1t-11 1q-5 0 -9 1z"/>
            <glyph glyph-name="F.001" horiz-adv-x="620"
                   d="M295 20h-295v100l59 18l1 508l-60 12v130l236 -20h315l40 -256h-118l-39 138l-198 -20l1 -177h197l4 -119h-201l-1 -196l59 -20v-98z"/>
            <glyph glyph-name="D.001" horiz-adv-x="673"
                   d="M64 752l17 4t46 8t67 6.5t80.5 1t86.5 -9t85 -23.5q95 -39 144 -142q51 -104 45 -219q-13 -258 -179 -323q-162 -64 -397 -35h-59v715zM177 124h57q56 0 110 23q21 10 36.5 26t26.5 35.5t16.5 41t7.5 42.5q8 99 -1.5 159t-25.5 88q-15 27 -50 59q-35 34 -177 38v-512z
"/>
            <glyph glyph-name="L.001" horiz-adv-x="620"
                   d="M591 275l-40 -255h-551v100l59 18l1 508l-60 12v130l236 -20l1 -611l197 -19l39 137h118z"/>
            <glyph glyph-name="J.001" horiz-adv-x="498"
                   d="M158 320l2 -20q-1 -44 20.5 -65t47.5 -28.5t47.5 -6l21.5 1.5l-1 450l-58 12v129l236 -20v-122l1 -631q-24 -3 -55 -4q-26 -1 -62.5 -0.5t-81.5 5.5q-98 8 -164 45q-23 12 -39.5 29.5t-28.5 37.5t-20 41.5t-13 42.5q-11 48 -11 102z"/>
            <glyph glyph-name="I" unicode="I" horiz-adv-x="311"
                   d="M296 120v-17.5t-1 -36.5q-1 -12 -1 -20.5v-14.5v-11h-46h-101h-101h-46v100l60 14v509l-60 11v130l236 -20q0 -160 0.5 -317.5t0.5 -317.5q3 0 7 -1t9 -2t13 -2q8 -2 13 -2t9 -1t8 -1z"/>
            <glyph glyph-name="G.001" horiz-adv-x="659"
                   d="M609 526h-120l-35 124q-5 -1 -11 -1q-5 0 -13 -0.5t-19 -0.5q-22 -1 -45 -5t-49 -11q-72 -19 -96 -91q-23 -71 -24 -149q-3 -80 18 -149t100 -91q54 -14 96 -14q11 0 19.5 0.5t13.5 0.5h11l39 137l-97 -3l-1 98l232 -1l-17 -94l-37 -240q-32 -4 -60 -9.5t-53 -12.5
q-51 -14 -136 -14q-141 1 -236 78q-94 77 -89 317q3 116 49 218q46 103 141 142q40 16 84 23.5t86.5 9t81 -1.5t67.5 -7t46 -7.5l17 -3.5z"/>
            <glyph glyph-name="N.001" horiz-adv-x="683"
                   d="M650 20h-46h-102h-101h-46l-1 99l59 17v22l-178 316l1 -337l59 -18v-99h-46h-102h-101h-46v99l59 18v509l-59 12v130l235 -20l179 -317l-1 317h177l1 -631l59 -18v-99z"/>
            <glyph glyph-name="Q.001" horiz-adv-x="683"
                   d="M650 397q1 -94 -18.5 -171.5t-65.5 -131.5q4 -1 10 -2q5 -1 12 -2t17 -3t17 -3t12 -2l10 -2l-3 -12q-2 -6 -4.5 -15t-5.5 -21l-5 -20.5t-4 -14.5l-3 -12q-65 4 -121 8q-24 1 -48.5 2.5t-46.5 2.5t-39 1.5t-27 0.5q-146 0 -244 74q-98 75 -93 320q3 117 49 218
q46 103 141 142q39 17 82.5 27t85.5 7q112 -9 201 -86q89 -76 91 -305zM330 629q-134 0 -134 -232q0 -119 25 -179q26 -62 102 -62t103 66q28 66 28 183t-27.5 170.5t-96.5 53.5z"/>
            <glyph glyph-name="R.001" horiz-adv-x="600"
                   d="M0 120l59 17l1 509l-60 12v129l236 -19q70 -5 127.5 -25t99 -54.5t64.5 -84.5t26 -115q0 -45 -10 -104q-9 -61 -72 -103q-1 -1 5.5 -23.5l14.5 -49.5l21 -72q3 -1 7 -2q4 -2 9 -3.5t13 -3.5q16 -5 22 -6l8 -2v-50v-50h-34h-73h-74h-33l-9 33l-20 74l-19 75q-4 16 -6 26
q-1 5 -2 8q-30 -1 -64 0v-99l59 -17v-100h-296v100zM236 374q0 -1 10.5 -2t26 0.5t33.5 6t33.5 15.5t25.5 30t9 48q-1 44 -22.5 65t-47 28t-47 6l-21.5 -1v-196z"/>
            <glyph glyph-name="S.001" horiz-adv-x="568"
                   d="M523 530h-118l-35 125q-13 2 -33.5 4t-44 1.5t-47.5 -5t-43.5 -16t-32 -30.5t-13.5 -49q-1 -24 4.5 -39.5t16.5 -24.5t26 -13t33 -5q37 -2 82.5 0t88.5 -8q72 -20 103 -113q32 -96 -2 -187q-33 -94 -144 -149t-325 0l-2 10t-1.5 11.5t-2.5 16.5l-13 83l-13 84q-2 9 -3 16
t-2 12t-1 10h60h61q1 -7 4 -16l5 -19.5t8 -27.5t8 -27t5 -19q3 -9 5 -16q121 -16 164 16q44 35 45 80q2 26 -3 56q-3 31 -23 28q-113 -17 -169 -6l-24 5t-17 4q-8 2 -14 3q-69 17 -97 95q-29 79 -18 150q21 140 149 200q127 60 333 3z"/>
            <glyph glyph-name="U.001" horiz-adv-x="645"
                   d="M0 659v130l236 -20l3 -388q2 -68 12 -155q10 -86 85 -85q64 -1 82 75q18 78 18 174l-3 379h177q0 -177 2 -307t-12 -220q-24 -146 -94 -201q-71 -56 -161 -57h-7q-78 1 -129 24t-82 64.5t-45.5 100t-19.5 131.5t-4 159.5t1 183.5z"/>
            <glyph glyph-name="V.001" horiz-adv-x="662"
                   d="M216 21l-22 96l-134 530l-60 12v129q14 -1 31 -2q14 -1 32 -2t38 -3l70 -4q8 -1 14 -1h10t8 -1l16 -118l34 -138l70 -353h40l61 353l32 138l17 117h158l-26 -118l-113 -635h-276z"/>
            <glyph glyph-name="W.001" horiz-adv-x="815"
                   d="M768 653l-43 -633h-172l-54 36l-79 276l-78 -276l-58 -36h-180l-45 627l-59 12v129l218 -24l19 -118l45 -355l60 217l78 9l79 -9l60 -216l31 353l13 120h173z"/>
            <glyph glyph-name="Y.001" horiz-adv-x="649"
                   d="M162 121l59 18v158l-59 38l-102 312l-60 12v129l210 -20l83 -294l33 -1l82 296l210 -1v-110l-59 -12l-102 -311q-4 -2 -8 -5q-4 -2 -9 -6t-13 -9t-13 -8.5t-9 -5.5q-4 -3 -7 -5l-1 -156l60 -19l1 -101h-47h-102h-101h-46v101z"/>
            <glyph glyph-name="Z.001" horiz-adv-x="620"
                   d="M0 119l40 12l295 501l-178 18l-39 -138h-118l40 256l490 1l1 -159l-275 -456l178 -17l38 137h119l-40 -254h-551v99z"/>
            <glyph glyph-name="colon.001" horiz-adv-x="111"
                   d="M2 607l101 -8l2 -117l-105 6zM3 465l101 -8l2 -117l-106 6z"/>
            <glyph glyph-name="semicolon.001" horiz-adv-x="110"
                   d="M0 331v142l103 -4l-10 -141q-1 -5 -2 -14q-1 -8 -2.5 -19l-3.5 -25q-2 -15 -3 -25.5t-2 -18.5q-1 -9 -2 -14l-36 3q-18 1 -27 3q-5 1 -9 1zM2 607l101 -8l2 -117l-105 6z"/>
            <glyph glyph-name="period" unicode="." horiz-adv-x="108"
                   d="M0 139l101 -8l2 -117l-105 6z"/>
            <glyph glyph-name="b.001" horiz-adv-x="378"
                   d="M0 -17l90 28l1 775l-90 17l-1 197l360 -29v-1140q-6 -1 -14 -2q-7 -1 -17.5 -1.5t-24.5 -2.5q-28 -4 -59 -7t-65 -7l-124 -14q-14 -2 -24.5 -3t-17.5 -2q-8 -1 -14 -2v193z"/>
            <glyph glyph-name="bar.001" horiz-adv-x="312"
                   d="M91 100l-91 591v140l206 -1l-1 -163q1 -5 2 -13q1 -7 2 -17t3 -23q4 -26 8 -55l8 -61l15 -116q2 -14 3.5 -23.5t2.5 -16.5q1 -8 2 -13l46 -228v-138h-205z"/>
            <glyph glyph-name="backslash" unicode="\" horiz-adv-x="312"
                   d="M91 100l-91 591v140l206 -1l-1 -163q1 -5 2 -13q1 -7 2 -17t3 -23q4 -26 8 -55l8 -61l15 -116q2 -14 3.5 -23.5t2.5 -16.5q1 -8 2 -13l46 -228v-138h-205z"/>
            <glyph glyph-name="bracketright" unicode="]" horiz-adv-x="378"
                   d="M0 -17l90 28l1 775l-90 17l-1 197l360 -29v-1140q-6 -1 -14 -2q-7 -1 -17.5 -1.5t-24.5 -2.5q-28 -4 -59 -7t-65 -7l-124 -14q-14 -2 -24.5 -3t-17.5 -2q-8 -1 -14 -2v193z"/>
            <glyph glyph-name="bracketleft" unicode="[" horiz-adv-x="378"
                   d="M361 -210q-6 1 -14 2t-18.5 2t-24.5 3l-124 14q-34 4 -64.5 7t-59.5 7q-14 2 -24.5 2.5t-17.5 1.5q-8 1 -14 2v1140l360 29v-197l-90 -17l1 -775l89 -28z"/>
            <glyph glyph-name="comma" unicode="," horiz-adv-x="145"
                   d="M138 83l-47 -333l-96 21l5 341z"/>
            <glyph glyph-name="quotesingle" unicode="'" horiz-adv-x="108"
                   d="M0 645v143l104 -4l-11 -142q-1 -5 -2 -14q-1 -8 -2.5 -19l-3.5 -25t-3 -25t-2 -18q-1 -9 -2 -14l-36 3l-36 3z"/>
            <glyph glyph-name="braceright.001" horiz-adv-x="537"
                   d="M510 772q-146 -25 -199 -121q-50 -94 -55 -231q-4 -139 44 -247q49 -105 210 -110v-9v-23t0.5 -32.5t0.5 -37.5q1 -45 1 -102q-291 -10 -404 134q-112 143 -107 427q5 167 70 311q66 147 200 203q57 24 118 34.5t121 12.5v-209v0z"/>
            <glyph glyph-name="_40" unicode="(" horiz-adv-x="537"
                   d="M510 772q-146 -25 -199 -121q-50 -94 -55 -231q-4 -139 44 -247q49 -105 210 -110v-9v-23t0.5 -32.5t0.5 -37.5q1 -45 1 -102q-291 -10 -404 134q-112 143 -107 427q5 167 70 311q66 147 200 203q57 24 118 34.5t121 12.5v-209v0z"/>
            <glyph glyph-name="parenright" unicode=")" horiz-adv-x="542"
                   d="M3 772l-0.5 15.5t-0.5 38.5v50.5v50.5v38.5v15.5q60 -2 121.5 -12.5t118.5 -34.5q134 -56 199 -203q65 -144 70 -311q6 -284 -106 -427q-113 -144 -404 -134v15v38t0.5 49.5t1 49t0.5 37.5v15q161 5 209 110q48 108 44 247q-3 137 -55 231q-53 96 -198 121z"/>
            <glyph glyph-name="E.001" horiz-adv-x="620"
                   d="M591 275l-40 -255h-551v100l60 17v510l-60 11v130l236 -20h315l40 -256h-118l-39 138l-198 -20l1 -177h197l4 -119h-201l-1 -176l198 -20l39 137h118z"/>
            <glyph glyph-name="H.001" horiz-adv-x="703"
                   d="M0 120l59 17v509l-59 12v129l237 -19l-1 -276h197v276h177v-631l59 -17v-100h-295v100l59 17v217h-197l1 -217l59 -17v-100h-296v100z"/>
            <glyph glyph-name="K.001" horiz-adv-x="599"
                   d="M0 120l59 17q0 128 0.5 254.5t0.5 254.5l-60 12v129l236 -20v-266v-30l39 1l12 39l71 256l210 20l-1 -130l-58 -11l-76 -233l79 -276l59 -17v-100h-107h-39.5t-34.5 -0.5t-24 -0.5h-9l-82 315h-38l-1 -197l59 -17v-100h-46h-102h-101h-46v100z"/>
            <glyph glyph-name="M.001" horiz-adv-x="868"
                   d="M0 120l59 11l33 516l-59 12v129l236 -20l59 -39l78 -276l79 276l59 39l178 1l45 -630l60 -19l-1 -99h-295v99l59 19l-45 354l-60 -217l-79 -9l-78 9l-60 216l-32 -353l59 -19l1 -100h-296v100z"/>
            <glyph glyph-name="O.001" horiz-adv-x="684"
                   d="M650 396q2 -171 -69 -284q-70 -111 -244 -113q-146 0 -244 74q-98 75 -93 320q2 116 48 218q46 103 141 142q40 17 83 27t86 7q112 -9 201 -86q90 -77 91 -305zM329 628q-133 0 -133 -232q0 -119 25 -179q26 -62 102 -62t103 66q28 66 28 183t-27.5 170.5t-97.5 53.5z
"/>
            <glyph glyph-name="P.001" horiz-adv-x="581"
                   d="M0 120l60 18v509l-60 11v130l236 -20q70 -5 127.5 -24.5t99 -54t64.5 -84.5t26 -115q0 -17 -0.5 -37t-4 -41.5t-11 -43.5t-22.5 -43q-15 -20 -37.5 -37t-56 -29.5t-79 -18.5t-105.5 -3v-98l59 -19v-100h-296v100zM236 374q39 -3 70 6q26 7 47.5 28t20.5 65q-1 29 -11 48
t-25.5 29.5t-33 15t-32.5 6t-25.5 0.5l-10.5 -1v-197z"/>
            <glyph glyph-name="T.001" horiz-adv-x="792"
                   d="M230 119l59 19v498l-132 13l-39 -140l-118 1l40 257v20l234 -20l442 1l39 -258h-118l-39 140l-132 -13v-498l59 -20l1 -99h-297z"/>
            <glyph glyph-name="X.001" horiz-adv-x="673"
                   d="M214 20h-214v99l59 19l80 276l-77 232l-59 12v129l210 -20l82 -294h51l82 294l210 1v-110l-59 -12l-77 -232l80 -276l59 -19v-99h-214l-81 314h-33q1 1 7 1h5.5t1 -0.5t-8.5 -0.5h-23z"/>
            <glyph glyph-name="a" unicode="a" horiz-adv-x="554"
                   d="M93 625l292 -17l97 -504l46 -9l-1 -80h-33h-73h-74h-33l1 79l47 9l-25 111h-138l-26 -111l46 -9l1 -85q-12 1 -48 -5q-17 -3 -34.5 -5l-35.5 -4t-34.5 -2.5t-31.5 1.5q-30 3 -36 22v78l46 9l106 432l-54 -2zM251 498l-38 -158l-1 -34l112 2v34l-25 156h-48z"/>
            <glyph glyph-name="b" unicode="b" horiz-adv-x="537"
                   d="M220 366q40 -4 72 2q27 5 49 19.5t23 46.5v15v17q-2 28 -21 39t-43 10.5t-47 -10.5t-32 -23zM167 -6q-28 4 -64 12.5t-72 7.5l1 80l47 8v408l-47 9v103l188 -15q139 40 193 -5q55 -42 62 -108v-2q9 -64 -9 -97q-19 -33 -39 -38q21 0 33 -11h1q19 -16 34 -100
q16 -84 -37 -164q-29 -46 -110 -76q-39 -14 -84.5 -17t-96.5 5zM218 104l62 2q37 0 73 33q34 34 24 108q-3 13 -15.5 21.5t-30 13t-37.5 6t-37 1.5t-28 -1l-11 -1v-183z"/>
            <glyph glyph-name="c" unicode="c" horiz-adv-x="514"
                   d="M488 418h-96l-27 100q-4 -1 -9 -1t-11.5 -0.5t-14.5 -0.5q-18 -1 -36.5 -4.5t-38.5 -9.5q-59 -15 -77 -72q-19 -57 -20 -119q0 -32 3.5 -61.5t12.5 -58.5q17 -56 80 -72q42 -12 76 -12q8 0 14.5 0.5t11.5 0.5h9l31 110h94l-30 -192q-26 -3 -48 -8l-42 -10t-46.5 -8
t-61.5 -2q-113 0 -189 62t-71 253q0 90 38 174q38 83 113 114q32 13 67.5 19t69.5 7.5t64.5 -1t53.5 -5.5t36.5 -6l13.5 -3z"/>
            <glyph glyph-name="d" unicode="d" horiz-adv-x="538"
                   d="M51 602l29.5 5.5t74.5 8.5t99 -1t103 -24q77 -32 115 -113q40 -84 36 -176q-10 -207 -143 -258q-130 -51 -318 -28h-47v572zM142 99h45q44 0 88 19q34 16 51 49.5t19 66.5q7 78 -1 126.5t-21 70.5q-13 24 -40 47q-26 26 -141 31v-410z"/>
            <glyph glyph-name="_101" unicode="e" horiz-adv-x="496"
                   d="M473 220l-32 -204h-441v80l48 14v408l-48 8v104l189 -16h252l32 -204h-95l-31 110l-158 -16l1 -142h157l3 -95h-160l-1 -141l158 -16l31 110h95z"/>
            <glyph glyph-name="f" unicode="f" horiz-adv-x="496"
                   d="M236 16h-236v80l47 14l1 407l-48 9v104l189 -16h252l32 -204h-95l-31 110l-158 -16l1 -142h157l3 -95h-160l-1 -157l47 -16v-78z"/>
            <glyph glyph-name="g" unicode="g" horiz-adv-x="527"
                   d="M487 421h-96l-28 99q-3 -1 -8 -1t-11.5 -0.5t-14.5 -0.5q-17 0 -36 -3.5t-39 -8.5q-57 -16 -77 -73q-9 -29 -14 -58t-5 -61q-3 -63 14 -120q16 -54 80 -72q42 -12 77 -12q8 0 14.5 0.5t11.5 0.5h9l31 110l-77 -3l-1 79l185 -1l-13 -75l-30 -192q-25 -3 -47.5 -8
t-42.5 -10q-42 -11 -109 -11q-112 1 -189 62q-74 62 -71 254q2 47 11 89.5t28 84.5q37 82 113 114q48 20 102 24t99 1q53 -4 105 -15z"/>
            <glyph glyph-name="h" unicode="h" horiz-adv-x="562"
                   d="M0 96l47 14v407l-47 9v104l190 -16l-1 -220h157v220h142v-504l47 -14v-80h-236v80l47 14v173h-157l1 -173l47 -14v-80h-237v80z"/>
            <glyph glyph-name="i" unicode="i" horiz-adv-x="249"
                   d="M237 96v-13.5t-1 -29.5q-1 -10 -1 -16.5v-11.5v-9h-37h-80h-81h-37v80l48 11v407l-48 9v104l189 -16q0 -128 0.5 -254t0.5 -254q2 0 6 -1q7 -2 17 -3l24 -3v0z"/>
            <glyph glyph-name="j" unicode="j" horiz-adv-x="398"
                   d="M126 256l2 -16q-1 -35 16 -52t38 -23t38.5 -4.5l17.5 1.5l-1 360l-47 9v103l189 -16v-97l1 -505q-19 -2 -44 -3q-21 -1 -50 -0.5t-65 4.5q-79 6 -131 36q-36 20 -54.5 53.5t-26.5 66.5q-10 39 -9 82z"/>
            <glyph glyph-name="k" unicode="k" horiz-adv-x="479"
                   d="M0 96l47 14q0 102 0.5 203.5t0.5 203.5l-48 9v104l189 -16v-213v-24l31 1l10 31l56 205l168 16v-104l-47 -9l-61 -187l64 -220l47 -14v-80h-86h-31.5t-27.5 -0.5t-19 -0.5h-7l-66 252h-30l-1 -157l47 -14v-80h-37h-81h-81h-37v80z"/>
            <glyph glyph-name="l" unicode="l" horiz-adv-x="496"
                   d="M473 220l-32 -204h-441v80l47 14l1 407l-48 9v104l189 -16l1 -488l157 -16l31 110h95z"/>
            <glyph glyph-name="m" unicode="m" horiz-adv-x="694"
                   d="M0 96l47 9l27 413l-48 9v103l189 -16l47 -31l63 -221l63 221l47 31l143 1l36 -504l48 -15l-1 -79h-236v79l47 15l-36 283l-48 -173l-63 -7l-63 7l-48 173l-25 -283l47 -15l1 -80h-237v80z"/>
            <glyph glyph-name="n" unicode="n" horiz-adv-x="546"
                   d="M520 16h-37h-81h-81h-37l-1 79l47 14v17l-142 253l1 -269l47 -15v-79h-37h-81h-81h-37v79l47 15v407l-47 9v104l188 -16l143 -253l-1 253h142l1 -504l47 -15v-79z"/>
            <glyph glyph-name="o" unicode="o" horiz-adv-x="547"
                   d="M520 317q1 -135 -55 -227q-57 -89 -195 -91q-117 0 -196 59q-77 59 -74 256q1 91 38 175q38 83 113 113q32 14 66.5 22t68.5 6q91 -8 161 -69q72 -62 73 -244zM263 502q-106 0 -106 -185q0 -97 20 -143q20 -50 81 -50q60 0 83 53q22 53 22 146q0 94 -22 136.5t-78 42.5z
"/>
            <glyph glyph-name="p" unicode="p" horiz-adv-x="465"
                   d="M0 96l48 14v408l-48 8v104l189 -16q113 -7 181 -62.5t72 -159.5q0 -13 -0.5 -29t-3 -33.5t-8.5 -35.5t-18 -34t-30 -29.5t-44.5 -23.5t-63 -14.5t-84.5 -2.5v-79l47 -15v-80h-237v80zM189 299q31 -2 56 5q21 6 38 22.5t16 51.5q0 35 -17.5 52t-37.5 23t-37.5 5l-17.5 -1
v-158z"/>
            <glyph glyph-name="q" unicode="q" horiz-adv-x="546"
                   d="M520 318q1 -75 -14.5 -137.5t-52.5 -105.5q4 0 8 -1t9.5 -1.5t13.5 -2.5t13.5 -3t9.5 -2t8 -1q0 -5 -2 -10t-4 -12t-4 -16q-3 -10 -4.5 -16.5t-3.5 -11.5t-2 -10q-52 3 -97 6l-38.5 2t-37 2t-31 1.5t-21.5 0.5q-117 0 -196 59q-77 59 -74 256q2 47 11 90t28 85
q37 81 113 113q32 14 66.5 22t67.5 5q45 -3 85.5 -20.5t75.5 -47.5q71 -61 73 -244zM264 503q-107 0 -107 -185q0 -97 20 -144q20 -49 81 -49t83 53t22 146q0 94 -21.5 136.5t-77.5 42.5z"/>
            <glyph glyph-name="r" unicode="r" horiz-adv-x="480"
                   d="M0 96l47 14l1 407l-48 9v104l189 -16q113 -8 181 -63t72 -160q0 -17 -1.5 -37.5t-6.5 -45.5q-6 -48 -57 -82q-1 -1 4.5 -18.5t11.5 -39.5q7 -26 17 -58q2 -1 6 -2q3 -1 7 -2.5t10 -3.5l24 -6v-40v-40h-27h-59h-59h-26q-1 3 -2 7l-2.5 7.5t-3.5 11.5l-16 60l-15 60l-6 27
q-24 -2 -51 0v-79l47 -14v-80h-237v80zM189 299l17.5 -1t38.5 5t38 23t16 52q0 35 -17.5 51.5t-37.5 22.5t-37.5 5l-17.5 -1v-157z"/>
            <glyph glyph-name="s" unicode="s" horiz-adv-x="454"
                   d="M418 424h-94l-28 100q-16 3 -44 4.5t-56 -4.5t-49 -23t-22 -53q-2 -38 16.5 -50.5t47.5 -15.5q29 -2 65.5 0t71.5 -6q57 -15 82 -90q26 -77 -2 -150q-26 -75 -115 -119q-88 -45 -260 0q0 3 -1 7t-1.5 9.5t-2.5 13.5l-10 67l-10 67q-2 8 -2.5 13t-1.5 9t-1 8h48h49
q1 -6 3 -13q2 -6 4 -15.5t6 -21.5q4 -13 6.5 -22t4.5 -15q2 -7 4 -13q97 -14 131 13q35 27 36 64q1 21 -3 45q-1 25 -18 22q-45 -7 -79 -8t-56 3q-11 2 -19.5 4t-13.5 4q-6 2 -11 2q-56 14 -78 76q-23 64 -14 120q17 112 119 160q103 48 266 2z"/>
            <glyph glyph-name="t" unicode="t" horiz-adv-x="634"
                   d="M184 95l47 15v399l-105 10l-32 -112l-94 1l32 206v16l187 -16h354l31 -206h-94l-32 112l-105 -10v-399l47 -16l1 -79h-238z"/>
            <glyph glyph-name="u" unicode="u" horiz-adv-x="516"
                   d="M0 527v104l189 -16l2 -310q1 -27 3 -58t7 -66q7 -70 68 -68q51 -2 65 60q15 61 15 139l-3 303h142q0 -142 1.5 -245.5t-9.5 -175.5q-20 -118 -75 -161q-56 -45 -129 -46h-6q-62 1 -103 19t-66 51.5t-36.5 80.5t-15.5 105.5t-3 127.5t1 147z"/>
            <glyph glyph-name="v" unicode="v" horiz-adv-x="530"
                   d="M173 17l-18 77l-107 424l-48 9v103q12 0 25 -1q11 -1 25.5 -2t30.5 -2l56 -3q6 -1 11 -1h8q4 0 6 -1l13 -94l27 -111l56 -282h32l49 282l26 111l13 93h127l-21 -94l-90 -508h-221z"/>
            <glyph glyph-name="w" unicode="w" horiz-adv-x="652"
                   d="M614 522l-34 -506h-138l-43 29l-63 221l-62 -221l-47 -29h-144l-36 502l-47 9v103l174 -19l16 -94l36 -284l48 173l62 8l63 -8l48 -172l25 282l10 96h139z"/>
            <glyph glyph-name="x" unicode="x" horiz-adv-x="538"
                   d="M171 16h-171v79l47 15l64 221l-61 186l-48 9v104l168 -16l66 -236h41l65 236h168v-88l-47 -9l-61 -186l64 -221l47 -15v-79h-171l-65 251h-27q1 1 6 1h5t0.5 -0.5t-7 -0.5h-18.5z"/>
            <glyph glyph-name="y" unicode="y" horiz-adv-x="519"
                   d="M130 97l47 14v127l-47 30l-82 250l-48 9v103l168 -16l66 -235l27 -1l65 237l168 -1v-88l-47 -9l-81 -249q-2 -1 -6 -4q-6 -5 -18 -12l-24 -15v-125l48 -15v-81h-37h-82h-81h-36v81z"/>
            <glyph glyph-name="z" unicode="z" horiz-adv-x="496"
                   d="M0 95l32 10l236 401l-142 14l-32 -110h-94l32 204l392 1l1 -127l-220 -365l142 -13l31 109h95l-32 -203h-441v79z"/>
            <glyph glyph-name="hyphen" unicode="-" horiz-adv-x="665"
                   d="M633 348l-629 -13l-4 177l629 13z"/>
            <glyph glyph-name="equal" unicode="=" horiz-adv-x="667"
                   d="M635 250l-630 -13l-4 178l629 12zM632 460l-629 -12l-3 177l628 12z"/>
            <glyph glyph-name="plus" unicode="+" horiz-adv-x="665"
                   d="M405 115h-177v225l-224 -5l-4 177l229 5v228h177v-224l223 4l4 -177l-228 -5v-228z"/>
            <glyph glyph-name="braceleft" unicode="{" horiz-adv-x="411"
                   d="M316 -61l-127 -4q-42 -1 -88 33q-24 16 -22 79q3 63 15 132q6 35 12.5 65.5t13.5 57.5q4 14 6.5 24t4.5 17q2 8 4 14l-66 25l-45 17q-11 4 -20 8v79l20 8l44.5 17.5l45 18l20.5 8.5q-2 5 -4 13l-4.5 16l-6.5 23q-7 26 -13.5 56t-12.5 63q-6 34 -9.5 66t-4.5 64
q-2 64 22 83q47 41 130 34q21 -2 37 -3t27 -2q12 -1 21 -1l76 1l-13 -156l-116 1l9 -36q5 -18 9 -39l8 -44q7 -46 9 -94q1 -44 -16 -68q-1 -1 -1 -2q-9 -24 -40 -39q-8 -4 -13.5 -6t-9.5 -4t-7 -4v-25q12 -4 24 -10q11 -6 24.5 -15.5t27.5 -26.5v-1q11 -32 13.5 -70
t-2.5 -82q-11 -86 -36 -131h115l14 -155z"/>
            <glyph glyph-name="braceright" unicode="}" horiz-adv-x="411"
                   d="M80 -61l-75 5l15 155h114q-25 45 -36 131q-5 44 -2.5 82t13.5 70v1q14 17 27.5 26.5t24.5 15.5q12 6 24 10v25l-8 4t-9.5 4t-13.5 6q-30 15 -39 39q0 1 -1 2q-17 23 -17 68q2 48 9 94l8 44t9 39q2 9 4 15.5t4 11.5t2 9l-116 -1l-13 156l76 -1l84 6q84 7 131 -34
q24 -20 21 -83q-1 -32 -4.5 -64t-9.5 -66q-6 -33 -12.5 -63t-13.5 -56q-4 -14 -6 -23t-4 -16q-2 -8 -4 -13q-1 -1 19.5 -8.5l45.5 -17.5q29 -11 65 -26v-79l-21 -8q-9 -4 -21 -8t-24 -9l-65 -25q2 -6 4 -14q2 -7 4 -17t6 -24q7 -27 13.5 -57.5t12.5 -65.5q13 -69 15 -132
q3 -62 -21 -79q-46 -34 -89 -33z"/>
            <glyph glyph-name="copyright" unicode="&#xa9;" horiz-adv-x="693"
                   d="M504 603h-83l-24 86q-13 -1 -29 -2q-14 -2 -31 -3.5t-34 -6.5q-50 -13 -67 -63q-16 -51 -17 -103q-1 -28 2.5 -54t10.5 -50q15 -49 69 -62q18 -6 35 -8t31 -3q16 -1 30 1l27 95h82l-26 -166q-22 -3 -41.5 -7t-36.5 -9q-34 -10 -94 -9q-100 2 -164 54q-64 54 -61 219
q1 40 9.5 78t24.5 73q31 70 97 99q84 34 174 21q23 -3 40 -5t28 -4q13 -2 23 -3zM327 854q137 0 235 -99q98 -100 98 -238q0 -139 -98 -239q-98 -98 -235 -98q-138 0 -236 98q-97 98 -97 239q0 140 97 238q97 99 236 99zM327 826q-127 0 -215 -91q-89 -92 -89 -220
q0 -129 89 -221q88 -91 215 -91t215 91q89 92 89 221q0 128 -89 220q-88 91 -215 91z"/>
            <glyph glyph-name="registered" unicode="&#xae;" horiz-adv-x="693"
                   d="M327 826q-127 0 -215 -91q-89 -92 -89 -220q0 -129 89 -221q88 -91 215 -91t215 91q89 92 89 221q0 128 -89 220q-88 91 -215 91zM327 854q137 0 235 -99q98 -100 98 -238q0 -139 -98 -239q-98 -98 -235 -98q-138 0 -236 98q-97 98 -97 239q0 140 97 238q97 99 236 99z
M169 355l36 11v310l-36 7v79l144 -12q87 -6 138.5 -48t54.5 -121q0 -28 -6 -65q-6 -36 -44 -62q1 -5 3 -11q2 -5 4 -13.5t5 -19.5l5.5 -19.5t4.5 -13.5q2 -6 3 -11l18 -6q5 -2 8 -2.5t5 -1.5q3 -1 5 -1v-31v-30h-66h-65q-1 0 -6 20.5l-11 45.5l-16 66q-19 -1 -40 0v-60
l36 -11l1 -61h-182zM313 510l42 3q42 4 42 57q-2 54 -43 57q-11 1 -18.5 1t-12.5 1q-6 0 -10 1v-120z"/>
            <glyph glyph-name="trademark.001" horiz-adv-x="693"
                   d="M420 467l-12 -76h-164v30l17 5v152l-17 4v38l70 -6h94l12 -76h-35l-12 41l-59 -6v-52h59l2 -36h-61v-53l60 -6l11 41h35zM295 673q19 0 19 -19q0 -20 -19 -20q-20 0 -20 20q0 19 20 19zM366 677q22 0 22 -22q0 -23 -22 -23t-22 23q0 22 22 22zM327 854q137 0 235 -99
q98 -100 98 -238q0 -139 -98 -239q-98 -98 -235 -98q-138 0 -236 98q-97 98 -97 239q0 140 97 238q97 99 236 99zM327 826q-127 0 -215 -91q-89 -92 -89 -220q0 -129 89 -221q88 -91 215 -91t215 91q89 92 89 221q0 128 -89 220q-88 91 -215 91z"/>
            <glyph glyph-name="_152" horiz-adv-x="1596"
                   d="M716 282l-39 -256h-552v100l60 19v508l-59 12l-1 129l237 -20h315l39 -256h-118l-39 138l-197 -20v-177h197l4 -118h-201v-177l198 -20l38 138h118zM297 971q26 0 45 -19t19 -46q0 -28 -19 -47t-45 -19q-27 0 -46 19t-19 47q0 27 19 46t46 19zM534 983q30 0 51.5 -22
t21.5 -52q0 -31 -21.5 -52.5t-51.5 -21.5q-31 0 -52 21.5t-21 52.5q0 30 21 52t52 22zM403 1578q230 0 434 -89q202 -88 355 -242q151 -153 240 -359q88 -204 88 -440t-88 -440q-88 -205 -240 -358q-153 -154 -355 -242q-204 -89 -434 -89q-231 0 -435 89q-202 88 -354 242
q-152 153 -240 358q-88 204 -88 440t88 440q89 206 240 359q152 154 354 242q204 89 435 89zM405 1483q-213 0 -396 -82q-93 -42 -173.5 -97t-149.5 -127q-139 -142 -218 -331q-80 -192 -80 -406t80 -406q79 -189 218 -331q69 -72 149.5 -127t173.5 -97q183 -82 396 -82
q212 0 395 82q188 83 324 224q139 142 218 331q80 192 80 406t-80 406q-79 189 -218 331q-136 141 -324 224q-183 82 -395 82z"/>
            <glyph glyph-name="afii10023" unicode="&#xeb;" horiz-adv-x="620"
                   d="M156 958l120 -25l-28 -117l-124 4zM591 275l-40 -255h-551v100l59 18l1 509l-60 11v130l236 -20h315l40 -256h-118l-39 138l-198 -20l1 -177h197l4 -119h-201l-1 -176l198 -20l39 137h118zM365 929l123 -26l-24 -96l-128 5z"/>
            <glyph glyph-name="afii10071.001" horiz-adv-x="620"
                   d="M156 958l120 -25l-28 -117l-124 4zM591 275l-40 -255h-551v100l59 18l1 509l-60 11v130l236 -20h315l40 -256h-118l-39 138l-198 -20l1 -177h197l4 -119h-201l-1 -176l198 -20l39 137h118zM365 929l123 -26l-24 -96l-128 5z"/>
            <glyph glyph-name="_168.001" horiz-adv-x="620"
                   d="M156 958l120 -25l-28 -117l-124 4zM591 275l-40 -255h-551v100l59 18l1 509l-60 11v130l236 -20h315l40 -256h-118l-39 138l-198 -20l1 -177h197l4 -119h-201l-1 -176l198 -20l39 137h118zM365 929l123 -26l-24 -96l-128 5z"/>
            <glyph glyph-name="afii10051" unicode="&#x402;"
                   d="M427 117q-4 1 -8 4q-4 2 -9.5 4.5t-13.5 7.5l-67 38l-34.5 20.5t-32.5 17.5q-30 17 -33 20q-118 73 -151 175q-32 105 -1 197q31 93 116 160q86 66 199 65q137 -2 221 -81t102 -185q20 -105 -36 -209q-54 -103 -196 -151zM162 566l32 -144l9 -65l22 -6l44 14l-40 133
l74 -73l34 10l25 100l21 -126l16 -9l48 17l-65 216l-42 -16l-36 -131l-110 101zM417 641l52 -188l-2 -23l16 -6l47 14l-22 73l98 -56h14l26 44l-77 41l22 1l24 42l-19 69l-51 27zM480 608l51 16l18 -10l1 -20l-59 -27zM335 319l4 -14l-6 -6l8 -15l7 4l16 -25l20 9l-16 26
l10 6l-4 12l-14 -3l-3 7l16 25l-18 8zM375 327l24 -46l20 9l-16 31l18 4l-7 19zM417 349l34 -41l43 21l-29 47l-17 -9l18 -31l-7 -8l-22 33zM461 395l41 -62l14 8l-4 15l15 -10l10 7l1 14l-21 6l7 20l-16 6l-8 -22l-20 26zM520 424l9 -16l-8 -4l8 -11l6 2l15 -29l12 -2
l22 13l-1 12l-13 2l-8 -6l-11 15l11 6l-6 14l-11 -4l-8 14zM565 427l8 -15l22 15l3 -5l-20 -13l-1 -9l12 -16h9l40 21l-30 41h-12zM598 407l11 9l3 -8l-11 -9z"/>
            <glyph glyph-name="afii10100" unicode="&#x453;"
                   d="M427 117q-4 1 -8 4q-4 2 -9.5 4.5t-13.5 7.5l-67 38l-34.5 20.5t-32.5 17.5q-30 17 -33 20q-118 73 -151 175q-32 105 -1 197q31 93 116 160q86 66 199 65q137 -2 221 -81t102 -185q20 -105 -36 -209q-54 -103 -196 -151zM162 566l32 -144l9 -65l22 -6l44 14l-40 133
l74 -73l34 10l25 100l21 -126l16 -9l48 17l-65 216l-42 -16l-36 -131l-110 101zM417 641l52 -188l-2 -23l16 -6l47 14l-22 73l98 -56h14l26 44l-77 41l22 1l24 42l-19 69l-51 27zM480 608l51 16l18 -10l1 -20l-59 -27zM335 319l4 -14l-6 -6l8 -15l7 4l16 -25l20 9l-16 26
l10 6l-4 12l-14 -3l-3 7l16 25l-18 8zM375 327l24 -46l20 9l-16 31l18 4l-7 19zM417 349l34 -41l43 21l-29 47l-17 -9l18 -31l-7 -8l-22 33zM461 395l41 -62l14 8l-4 15l15 -10l10 7l1 14l-21 6l7 20l-16 6l-8 -22l-20 26zM520 424l9 -16l-8 -4l8 -11l6 2l15 -29l12 -2
l22 13l-1 12l-13 2l-8 -6l-11 15l11 6l-6 14l-11 -4l-8 14zM565 427l8 -15l22 15l3 -5l-20 -13l-1 -9l12 -16h9l40 21l-30 41h-12zM598 407l11 9l3 -8l-11 -9z"/>
            <glyph glyph-name="afii10052" unicode="&#x403;"
                   d="M427 117q-4 1 -8 4q-4 2 -9.5 4.5t-13.5 7.5l-67 38l-34.5 20.5t-32.5 17.5q-30 17 -33 20q-118 73 -151 175q-32 105 -1 197q31 93 116 160q86 66 199 65q137 -2 221 -81t102 -185q20 -105 -36 -209q-54 -103 -196 -151zM162 566l32 -144l9 -65l22 -6l44 14l-40 133
l74 -73l34 10l25 100l21 -126l16 -9l48 17l-65 216l-42 -16l-36 -131l-110 101zM417 641l52 -188l-2 -23l16 -6l47 14l-22 73l98 -56h14l26 44l-77 41l22 1l24 42l-19 69l-51 27zM480 608l51 16l18 -10l1 -20l-59 -27zM335 319l4 -14l-6 -6l8 -15l7 4l16 -25l20 9l-16 26
l10 6l-4 12l-14 -3l-3 7l16 25l-18 8zM375 327l24 -46l20 9l-16 31l18 4l-7 19zM417 349l34 -41l43 21l-29 47l-17 -9l18 -31l-7 -8l-22 33zM461 395l41 -62l14 8l-4 15l15 -10l10 7l1 14l-21 6l7 20l-16 6l-8 -22l-20 26zM520 424l9 -16l-8 -4l8 -11l6 2l15 -29l12 -2
l22 13l-1 12l-13 2l-8 -6l-11 15l11 6l-6 14l-11 -4l-8 14zM565 427l8 -15l22 15l3 -5l-20 -13l-1 -9l12 -16h9l40 21l-30 41h-12zM598 407l11 9l3 -8l-11 -9z"/>
            <glyph glyph-name="Euro" unicode="&#x20ac;"
                   d="M427 117q-4 1 -8 4q-4 2 -9.5 4.5t-13.5 7.5l-67 38l-34.5 20.5t-32.5 17.5q-30 17 -33 20q-118 73 -151 175q-32 105 -1 197q31 93 116 160q86 66 199 65q137 -2 221 -81t102 -185q20 -105 -36 -209q-54 -103 -196 -151zM162 566l32 -144l9 -65l22 -6l44 14l-40 133
l74 -73l34 10l25 100l21 -126l16 -9l48 17l-65 216l-42 -16l-36 -131l-110 101zM417 641l52 -188l-2 -23l16 -6l47 14l-22 73l98 -56h14l26 44l-77 41l22 1l24 42l-19 69l-51 27zM480 608l51 16l18 -10l1 -20l-59 -27zM335 319l4 -14l-6 -6l8 -15l7 4l16 -25l20 9l-16 26
l10 6l-4 12l-14 -3l-3 7l16 25l-18 8zM375 327l24 -46l20 9l-16 31l18 4l-7 19zM417 349l34 -41l43 21l-29 47l-17 -9l18 -31l-7 -8l-22 33zM461 395l41 -62l14 8l-4 15l15 -10l10 7l1 14l-21 6l7 20l-16 6l-8 -22l-20 26zM520 424l9 -16l-8 -4l8 -11l6 2l15 -29l12 -2
l22 13l-1 12l-13 2l-8 -6l-11 15l11 6l-6 14l-11 -4l-8 14zM565 427l8 -15l22 15l3 -5l-20 -13l-1 -9l12 -16h9l40 21l-30 41h-12zM598 407l11 9l3 -8l-11 -9z"/>
            <glyph glyph-name="afii10058" unicode="&#x409;"
                   d="M427 117q-4 1 -8 4q-4 2 -9.5 4.5t-13.5 7.5l-67 38l-34.5 20.5t-32.5 17.5q-30 17 -33 20q-118 73 -151 175q-32 105 -1 197q31 93 116 160q86 66 199 65q137 -2 221 -81t102 -185q20 -105 -36 -209q-54 -103 -196 -151zM162 566l32 -144l9 -65l22 -6l44 14l-40 133
l74 -73l34 10l25 100l21 -126l16 -9l48 17l-65 216l-42 -16l-36 -131l-110 101zM417 641l52 -188l-2 -23l16 -6l47 14l-22 73l98 -56h14l26 44l-77 41l22 1l24 42l-19 69l-51 27zM480 608l51 16l18 -10l1 -20l-59 -27zM335 319l4 -14l-6 -6l8 -15l7 4l16 -25l20 9l-16 26
l10 6l-4 12l-14 -3l-3 7l16 25l-18 8zM375 327l24 -46l20 9l-16 31l18 4l-7 19zM417 349l34 -41l43 21l-29 47l-17 -9l18 -31l-7 -8l-22 33zM461 395l41 -62l14 8l-4 15l15 -10l10 7l1 14l-21 6l7 20l-16 6l-8 -22l-20 26zM520 424l9 -16l-8 -4l8 -11l6 2l15 -29l12 -2
l22 13l-1 12l-13 2l-8 -6l-11 15l11 6l-6 14l-11 -4l-8 14zM565 427l8 -15l22 15l3 -5l-20 -13l-1 -9l12 -16h9l40 21l-30 41h-12zM598 407l11 9l3 -8l-11 -9z"/>
            <glyph glyph-name="afii10059" unicode="&#x40a;"
                   d="M427 117q-4 1 -8 4q-4 2 -9.5 4.5t-13.5 7.5l-67 38l-34.5 20.5t-32.5 17.5q-30 17 -33 20q-118 73 -151 175q-32 105 -1 197q31 93 116 160q86 66 199 65q137 -2 221 -81t102 -185q20 -105 -36 -209q-54 -103 -196 -151zM162 566l32 -144l9 -65l22 -6l44 14l-40 133
l74 -73l34 10l25 100l21 -126l16 -9l48 17l-65 216l-42 -16l-36 -131l-110 101zM417 641l52 -188l-2 -23l16 -6l47 14l-22 73l98 -56h14l26 44l-77 41l22 1l24 42l-19 69l-51 27zM480 608l51 16l18 -10l1 -20l-59 -27zM335 319l4 -14l-6 -6l8 -15l7 4l16 -25l20 9l-16 26
l10 6l-4 12l-14 -3l-3 7l16 25l-18 8zM375 327l24 -46l20 9l-16 31l18 4l-7 19zM417 349l34 -41l43 21l-29 47l-17 -9l18 -31l-7 -8l-22 33zM461 395l41 -62l14 8l-4 15l15 -10l10 7l1 14l-21 6l7 20l-16 6l-8 -22l-20 26zM520 424l9 -16l-8 -4l8 -11l6 2l15 -29l12 -2
l22 13l-1 12l-13 2l-8 -6l-11 15l11 6l-6 14l-11 -4l-8 14zM565 427l8 -15l22 15l3 -5l-20 -13l-1 -9l12 -16h9l40 21l-30 41h-12zM598 407l11 9l3 -8l-11 -9z"/>
            <glyph glyph-name="afii10061" unicode="&#x40c;"
                   d="M427 117q-4 1 -8 4q-4 2 -9.5 4.5t-13.5 7.5l-67 38l-34.5 20.5t-32.5 17.5q-30 17 -33 20q-118 73 -151 175q-32 105 -1 197q31 93 116 160q86 66 199 65q137 -2 221 -81t102 -185q20 -105 -36 -209q-54 -103 -196 -151zM162 566l32 -144l9 -65l22 -6l44 14l-40 133
l74 -73l34 10l25 100l21 -126l16 -9l48 17l-65 216l-42 -16l-36 -131l-110 101zM417 641l52 -188l-2 -23l16 -6l47 14l-22 73l98 -56h14l26 44l-77 41l22 1l24 42l-19 69l-51 27zM480 608l51 16l18 -10l1 -20l-59 -27zM335 319l4 -14l-6 -6l8 -15l7 4l16 -25l20 9l-16 26
l10 6l-4 12l-14 -3l-3 7l16 25l-18 8zM375 327l24 -46l20 9l-16 31l18 4l-7 19zM417 349l34 -41l43 21l-29 47l-17 -9l18 -31l-7 -8l-22 33zM461 395l41 -62l14 8l-4 15l15 -10l10 7l1 14l-21 6l7 20l-16 6l-8 -22l-20 26zM520 424l9 -16l-8 -4l8 -11l6 2l15 -29l12 -2
l22 13l-1 12l-13 2l-8 -6l-11 15l11 6l-6 14l-11 -4l-8 14zM565 427l8 -15l22 15l3 -5l-20 -13l-1 -9l12 -16h9l40 21l-30 41h-12zM598 407l11 9l3 -8l-11 -9z"/>
            <glyph glyph-name="afii10060" unicode="&#x40b;"
                   d="M427 117q-4 1 -8 4q-4 2 -9.5 4.5t-13.5 7.5l-67 38l-34.5 20.5t-32.5 17.5q-30 17 -33 20q-118 73 -151 175q-32 105 -1 197q31 93 116 160q86 66 199 65q137 -2 221 -81t102 -185q20 -105 -36 -209q-54 -103 -196 -151zM162 566l32 -144l9 -65l22 -6l44 14l-40 133
l74 -73l34 10l25 100l21 -126l16 -9l48 17l-65 216l-42 -16l-36 -131l-110 101zM417 641l52 -188l-2 -23l16 -6l47 14l-22 73l98 -56h14l26 44l-77 41l22 1l24 42l-19 69l-51 27zM480 608l51 16l18 -10l1 -20l-59 -27zM335 319l4 -14l-6 -6l8 -15l7 4l16 -25l20 9l-16 26
l10 6l-4 12l-14 -3l-3 7l16 25l-18 8zM375 327l24 -46l20 9l-16 31l18 4l-7 19zM417 349l34 -41l43 21l-29 47l-17 -9l18 -31l-7 -8l-22 33zM461 395l41 -62l14 8l-4 15l15 -10l10 7l1 14l-21 6l7 20l-16 6l-8 -22l-20 26zM520 424l9 -16l-8 -4l8 -11l6 2l15 -29l12 -2
l22 13l-1 12l-13 2l-8 -6l-11 15l11 6l-6 14l-11 -4l-8 14zM565 427l8 -15l22 15l3 -5l-20 -13l-1 -9l12 -16h9l40 21l-30 41h-12zM598 407l11 9l3 -8l-11 -9z"/>
            <glyph glyph-name="afii10145" unicode="&#x40f;"
                   d="M427 117q-4 1 -8 4q-4 2 -9.5 4.5t-13.5 7.5l-67 38l-34.5 20.5t-32.5 17.5q-30 17 -33 20q-118 73 -151 175q-32 105 -1 197q31 93 116 160q86 66 199 65q137 -2 221 -81t102 -185q20 -105 -36 -209q-54 -103 -196 -151zM162 566l32 -144l9 -65l22 -6l44 14l-40 133
l74 -73l34 10l25 100l21 -126l16 -9l48 17l-65 216l-42 -16l-36 -131l-110 101zM417 641l52 -188l-2 -23l16 -6l47 14l-22 73l98 -56h14l26 44l-77 41l22 1l24 42l-19 69l-51 27zM480 608l51 16l18 -10l1 -20l-59 -27zM335 319l4 -14l-6 -6l8 -15l7 4l16 -25l20 9l-16 26
l10 6l-4 12l-14 -3l-3 7l16 25l-18 8zM375 327l24 -46l20 9l-16 31l18 4l-7 19zM417 349l34 -41l43 21l-29 47l-17 -9l18 -31l-7 -8l-22 33zM461 395l41 -62l14 8l-4 15l15 -10l10 7l1 14l-21 6l7 20l-16 6l-8 -22l-20 26zM520 424l9 -16l-8 -4l8 -11l6 2l15 -29l12 -2
l22 13l-1 12l-13 2l-8 -6l-11 15l11 6l-6 14l-11 -4l-8 14zM565 427l8 -15l22 15l3 -5l-20 -13l-1 -9l12 -16h9l40 21l-30 41h-12zM598 407l11 9l3 -8l-11 -9z"/>
            <glyph glyph-name="afii10099" unicode="&#x452;"
                   d="M427 117q-4 1 -8 4q-4 2 -9.5 4.5t-13.5 7.5l-67 38l-34.5 20.5t-32.5 17.5q-30 17 -33 20q-118 73 -151 175q-32 105 -1 197q31 93 116 160q86 66 199 65q137 -2 221 -81t102 -185q20 -105 -36 -209q-54 -103 -196 -151zM162 566l32 -144l9 -65l22 -6l44 14l-40 133
l74 -73l34 10l25 100l21 -126l16 -9l48 17l-65 216l-42 -16l-36 -131l-110 101zM417 641l52 -188l-2 -23l16 -6l47 14l-22 73l98 -56h14l26 44l-77 41l22 1l24 42l-19 69l-51 27zM480 608l51 16l18 -10l1 -20l-59 -27zM335 319l4 -14l-6 -6l8 -15l7 4l16 -25l20 9l-16 26
l10 6l-4 12l-14 -3l-3 7l16 25l-18 8zM375 327l24 -46l20 9l-16 31l18 4l-7 19zM417 349l34 -41l43 21l-29 47l-17 -9l18 -31l-7 -8l-22 33zM461 395l41 -62l14 8l-4 15l15 -10l10 7l1 14l-21 6l7 20l-16 6l-8 -22l-20 26zM520 424l9 -16l-8 -4l8 -11l6 2l15 -29l12 -2
l22 13l-1 12l-13 2l-8 -6l-11 15l11 6l-6 14l-11 -4l-8 14zM565 427l8 -15l22 15l3 -5l-20 -13l-1 -9l12 -16h9l40 21l-30 41h-12zM598 407l11 9l3 -8l-11 -9z"/>
            <glyph glyph-name="afii10106" unicode="&#x459;"
                   d="M427 117q-4 1 -8 4q-4 2 -9.5 4.5t-13.5 7.5l-67 38l-34.5 20.5t-32.5 17.5q-30 17 -33 20q-118 73 -151 175q-32 105 -1 197q31 93 116 160q86 66 199 65q137 -2 221 -81t102 -185q20 -105 -36 -209q-54 -103 -196 -151zM162 566l32 -144l9 -65l22 -6l44 14l-40 133
l74 -73l34 10l25 100l21 -126l16 -9l48 17l-65 216l-42 -16l-36 -131l-110 101zM417 641l52 -188l-2 -23l16 -6l47 14l-22 73l98 -56h14l26 44l-77 41l22 1l24 42l-19 69l-51 27zM480 608l51 16l18 -10l1 -20l-59 -27zM335 319l4 -14l-6 -6l8 -15l7 4l16 -25l20 9l-16 26
l10 6l-4 12l-14 -3l-3 7l16 25l-18 8zM375 327l24 -46l20 9l-16 31l18 4l-7 19zM417 349l34 -41l43 21l-29 47l-17 -9l18 -31l-7 -8l-22 33zM461 395l41 -62l14 8l-4 15l15 -10l10 7l1 14l-21 6l7 20l-16 6l-8 -22l-20 26zM520 424l9 -16l-8 -4l8 -11l6 2l15 -29l12 -2
l22 13l-1 12l-13 2l-8 -6l-11 15l11 6l-6 14l-11 -4l-8 14zM565 427l8 -15l22 15l3 -5l-20 -13l-1 -9l12 -16h9l40 21l-30 41h-12zM598 407l11 9l3 -8l-11 -9z"/>
            <glyph glyph-name="afii10107" unicode="&#x45a;"
                   d="M427 117q-4 1 -8 4q-4 2 -9.5 4.5t-13.5 7.5l-67 38l-34.5 20.5t-32.5 17.5q-30 17 -33 20q-118 73 -151 175q-32 105 -1 197q31 93 116 160q86 66 199 65q137 -2 221 -81t102 -185q20 -105 -36 -209q-54 -103 -196 -151zM162 566l32 -144l9 -65l22 -6l44 14l-40 133
l74 -73l34 10l25 100l21 -126l16 -9l48 17l-65 216l-42 -16l-36 -131l-110 101zM417 641l52 -188l-2 -23l16 -6l47 14l-22 73l98 -56h14l26 44l-77 41l22 1l24 42l-19 69l-51 27zM480 608l51 16l18 -10l1 -20l-59 -27zM335 319l4 -14l-6 -6l8 -15l7 4l16 -25l20 9l-16 26
l10 6l-4 12l-14 -3l-3 7l16 25l-18 8zM375 327l24 -46l20 9l-16 31l18 4l-7 19zM417 349l34 -41l43 21l-29 47l-17 -9l18 -31l-7 -8l-22 33zM461 395l41 -62l14 8l-4 15l15 -10l10 7l1 14l-21 6l7 20l-16 6l-8 -22l-20 26zM520 424l9 -16l-8 -4l8 -11l6 2l15 -29l12 -2
l22 13l-1 12l-13 2l-8 -6l-11 15l11 6l-6 14l-11 -4l-8 14zM565 427l8 -15l22 15l3 -5l-20 -13l-1 -9l12 -16h9l40 21l-30 41h-12zM598 407l11 9l3 -8l-11 -9z"/>
            <glyph glyph-name="afii10109" unicode="&#x45c;"
                   d="M427 117q-4 1 -8 4q-4 2 -9.5 4.5t-13.5 7.5l-67 38l-34.5 20.5t-32.5 17.5q-30 17 -33 20q-118 73 -151 175q-32 105 -1 197q31 93 116 160q86 66 199 65q137 -2 221 -81t102 -185q20 -105 -36 -209q-54 -103 -196 -151zM162 566l32 -144l9 -65l22 -6l44 14l-40 133
l74 -73l34 10l25 100l21 -126l16 -9l48 17l-65 216l-42 -16l-36 -131l-110 101zM417 641l52 -188l-2 -23l16 -6l47 14l-22 73l98 -56h14l26 44l-77 41l22 1l24 42l-19 69l-51 27zM480 608l51 16l18 -10l1 -20l-59 -27zM335 319l4 -14l-6 -6l8 -15l7 4l16 -25l20 9l-16 26
l10 6l-4 12l-14 -3l-3 7l16 25l-18 8zM375 327l24 -46l20 9l-16 31l18 4l-7 19zM417 349l34 -41l43 21l-29 47l-17 -9l18 -31l-7 -8l-22 33zM461 395l41 -62l14 8l-4 15l15 -10l10 7l1 14l-21 6l7 20l-16 6l-8 -22l-20 26zM520 424l9 -16l-8 -4l8 -11l6 2l15 -29l12 -2
l22 13l-1 12l-13 2l-8 -6l-11 15l11 6l-6 14l-11 -4l-8 14zM565 427l8 -15l22 15l3 -5l-20 -13l-1 -9l12 -16h9l40 21l-30 41h-12zM598 407l11 9l3 -8l-11 -9z"/>
            <glyph glyph-name="afii10108" unicode="&#x45b;"
                   d="M427 117q-4 1 -8 4q-4 2 -9.5 4.5t-13.5 7.5l-67 38l-34.5 20.5t-32.5 17.5q-30 17 -33 20q-118 73 -151 175q-32 105 -1 197q31 93 116 160q86 66 199 65q137 -2 221 -81t102 -185q20 -105 -36 -209q-54 -103 -196 -151zM162 566l32 -144l9 -65l22 -6l44 14l-40 133
l74 -73l34 10l25 100l21 -126l16 -9l48 17l-65 216l-42 -16l-36 -131l-110 101zM417 641l52 -188l-2 -23l16 -6l47 14l-22 73l98 -56h14l26 44l-77 41l22 1l24 42l-19 69l-51 27zM480 608l51 16l18 -10l1 -20l-59 -27zM335 319l4 -14l-6 -6l8 -15l7 4l16 -25l20 9l-16 26
l10 6l-4 12l-14 -3l-3 7l16 25l-18 8zM375 327l24 -46l20 9l-16 31l18 4l-7 19zM417 349l34 -41l43 21l-29 47l-17 -9l18 -31l-7 -8l-22 33zM461 395l41 -62l14 8l-4 15l15 -10l10 7l1 14l-21 6l7 20l-16 6l-8 -22l-20 26zM520 424l9 -16l-8 -4l8 -11l6 2l15 -29l12 -2
l22 13l-1 12l-13 2l-8 -6l-11 15l11 6l-6 14l-11 -4l-8 14zM565 427l8 -15l22 15l3 -5l-20 -13l-1 -9l12 -16h9l40 21l-30 41h-12zM598 407l11 9l3 -8l-11 -9z"/>
            <glyph glyph-name="uni00A0" unicode="&#xa0;"
                   d="M427 117q-4 1 -8 4q-4 2 -9.5 4.5t-13.5 7.5l-67 38l-34.5 20.5t-32.5 17.5q-30 17 -33 20q-118 73 -151 175q-32 105 -1 197q31 93 116 160q86 66 199 65q137 -2 221 -81t102 -185q20 -105 -36 -209q-54 -103 -196 -151zM162 566l32 -144l9 -65l22 -6l44 14l-40 133
l74 -73l34 10l25 100l21 -126l16 -9l48 17l-65 216l-42 -16l-36 -131l-110 101zM417 641l52 -188l-2 -23l16 -6l47 14l-22 73l98 -56h14l26 44l-77 41l22 1l24 42l-19 69l-51 27zM480 608l51 16l18 -10l1 -20l-59 -27zM335 319l4 -14l-6 -6l8 -15l7 4l16 -25l20 9l-16 26
l10 6l-4 12l-14 -3l-3 7l16 25l-18 8zM375 327l24 -46l20 9l-16 31l18 4l-7 19zM417 349l34 -41l43 21l-29 47l-17 -9l18 -31l-7 -8l-22 33zM461 395l41 -62l14 8l-4 15l15 -10l10 7l1 14l-21 6l7 20l-16 6l-8 -22l-20 26zM520 424l9 -16l-8 -4l8 -11l6 2l15 -29l12 -2
l22 13l-1 12l-13 2l-8 -6l-11 15l11 6l-6 14l-11 -4l-8 14zM565 427l8 -15l22 15l3 -5l-20 -13l-1 -9l12 -16h9l40 21l-30 41h-12zM598 407l11 9l3 -8l-11 -9z"/>
            <glyph glyph-name="afii10062" unicode="&#x40e;"
                   d="M427 117q-4 1 -8 4q-4 2 -9.5 4.5t-13.5 7.5l-67 38l-34.5 20.5t-32.5 17.5q-30 17 -33 20q-118 73 -151 175q-32 105 -1 197q31 93 116 160q86 66 199 65q137 -2 221 -81t102 -185q20 -105 -36 -209q-54 -103 -196 -151zM162 566l32 -144l9 -65l22 -6l44 14l-40 133
l74 -73l34 10l25 100l21 -126l16 -9l48 17l-65 216l-42 -16l-36 -131l-110 101zM417 641l52 -188l-2 -23l16 -6l47 14l-22 73l98 -56h14l26 44l-77 41l22 1l24 42l-19 69l-51 27zM480 608l51 16l18 -10l1 -20l-59 -27zM335 319l4 -14l-6 -6l8 -15l7 4l16 -25l20 9l-16 26
l10 6l-4 12l-14 -3l-3 7l16 25l-18 8zM375 327l24 -46l20 9l-16 31l18 4l-7 19zM417 349l34 -41l43 21l-29 47l-17 -9l18 -31l-7 -8l-22 33zM461 395l41 -62l14 8l-4 15l15 -10l10 7l1 14l-21 6l7 20l-16 6l-8 -22l-20 26zM520 424l9 -16l-8 -4l8 -11l6 2l15 -29l12 -2
l22 13l-1 12l-13 2l-8 -6l-11 15l11 6l-6 14l-11 -4l-8 14zM565 427l8 -15l22 15l3 -5l-20 -13l-1 -9l12 -16h9l40 21l-30 41h-12zM598 407l11 9l3 -8l-11 -9z"/>
            <glyph glyph-name="afii10110" unicode="&#x45e;"
                   d="M427 117q-4 1 -8 4q-4 2 -9.5 4.5t-13.5 7.5l-67 38l-34.5 20.5t-32.5 17.5q-30 17 -33 20q-118 73 -151 175q-32 105 -1 197q31 93 116 160q86 66 199 65q137 -2 221 -81t102 -185q20 -105 -36 -209q-54 -103 -196 -151zM162 566l32 -144l9 -65l22 -6l44 14l-40 133
l74 -73l34 10l25 100l21 -126l16 -9l48 17l-65 216l-42 -16l-36 -131l-110 101zM417 641l52 -188l-2 -23l16 -6l47 14l-22 73l98 -56h14l26 44l-77 41l22 1l24 42l-19 69l-51 27zM480 608l51 16l18 -10l1 -20l-59 -27zM335 319l4 -14l-6 -6l8 -15l7 4l16 -25l20 9l-16 26
l10 6l-4 12l-14 -3l-3 7l16 25l-18 8zM375 327l24 -46l20 9l-16 31l18 4l-7 19zM417 349l34 -41l43 21l-29 47l-17 -9l18 -31l-7 -8l-22 33zM461 395l41 -62l14 8l-4 15l15 -10l10 7l1 14l-21 6l7 20l-16 6l-8 -22l-20 26zM520 424l9 -16l-8 -4l8 -11l6 2l15 -29l12 -2
l22 13l-1 12l-13 2l-8 -6l-11 15l11 6l-6 14l-11 -4l-8 14zM565 427l8 -15l22 15l3 -5l-20 -13l-1 -9l12 -16h9l40 21l-30 41h-12zM598 407l11 9l3 -8l-11 -9z"/>
            <glyph glyph-name="afii10057" unicode="&#x408;"
                   d="M427 117q-4 1 -8 4q-4 2 -9.5 4.5t-13.5 7.5l-67 38l-34.5 20.5t-32.5 17.5q-30 17 -33 20q-118 73 -151 175q-32 105 -1 197q31 93 116 160q86 66 199 65q137 -2 221 -81t102 -185q20 -105 -36 -209q-54 -103 -196 -151zM162 566l32 -144l9 -65l22 -6l44 14l-40 133
l74 -73l34 10l25 100l21 -126l16 -9l48 17l-65 216l-42 -16l-36 -131l-110 101zM417 641l52 -188l-2 -23l16 -6l47 14l-22 73l98 -56h14l26 44l-77 41l22 1l24 42l-19 69l-51 27zM480 608l51 16l18 -10l1 -20l-59 -27zM335 319l4 -14l-6 -6l8 -15l7 4l16 -25l20 9l-16 26
l10 6l-4 12l-14 -3l-3 7l16 25l-18 8zM375 327l24 -46l20 9l-16 31l18 4l-7 19zM417 349l34 -41l43 21l-29 47l-17 -9l18 -31l-7 -8l-22 33zM461 395l41 -62l14 8l-4 15l15 -10l10 7l1 14l-21 6l7 20l-16 6l-8 -22l-20 26zM520 424l9 -16l-8 -4l8 -11l6 2l15 -29l12 -2
l22 13l-1 12l-13 2l-8 -6l-11 15l11 6l-6 14l-11 -4l-8 14zM565 427l8 -15l22 15l3 -5l-20 -13l-1 -9l12 -16h9l40 21l-30 41h-12zM598 407l11 9l3 -8l-11 -9z"/>
            <glyph glyph-name="afii10056" unicode="&#x407;"
                   d="M427 117q-4 1 -8 4q-4 2 -9.5 4.5t-13.5 7.5l-67 38l-34.5 20.5t-32.5 17.5q-30 17 -33 20q-118 73 -151 175q-32 105 -1 197q31 93 116 160q86 66 199 65q137 -2 221 -81t102 -185q20 -105 -36 -209q-54 -103 -196 -151zM162 566l32 -144l9 -65l22 -6l44 14l-40 133
l74 -73l34 10l25 100l21 -126l16 -9l48 17l-65 216l-42 -16l-36 -131l-110 101zM417 641l52 -188l-2 -23l16 -6l47 14l-22 73l98 -56h14l26 44l-77 41l22 1l24 42l-19 69l-51 27zM480 608l51 16l18 -10l1 -20l-59 -27zM335 319l4 -14l-6 -6l8 -15l7 4l16 -25l20 9l-16 26
l10 6l-4 12l-14 -3l-3 7l16 25l-18 8zM375 327l24 -46l20 9l-16 31l18 4l-7 19zM417 349l34 -41l43 21l-29 47l-17 -9l18 -31l-7 -8l-22 33zM461 395l41 -62l14 8l-4 15l15 -10l10 7l1 14l-21 6l7 20l-16 6l-8 -22l-20 26zM520 424l9 -16l-8 -4l8 -11l6 2l15 -29l12 -2
l22 13l-1 12l-13 2l-8 -6l-11 15l11 6l-6 14l-11 -4l-8 14zM565 427l8 -15l22 15l3 -5l-20 -13l-1 -9l12 -16h9l40 21l-30 41h-12zM598 407l11 9l3 -8l-11 -9z"/>
            <glyph glyph-name="afii10055" unicode="&#x406;"
                   d="M427 117q-4 1 -8 4q-4 2 -9.5 4.5t-13.5 7.5l-67 38l-34.5 20.5t-32.5 17.5q-30 17 -33 20q-118 73 -151 175q-32 105 -1 197q31 93 116 160q86 66 199 65q137 -2 221 -81t102 -185q20 -105 -36 -209q-54 -103 -196 -151zM162 566l32 -144l9 -65l22 -6l44 14l-40 133
l74 -73l34 10l25 100l21 -126l16 -9l48 17l-65 216l-42 -16l-36 -131l-110 101zM417 641l52 -188l-2 -23l16 -6l47 14l-22 73l98 -56h14l26 44l-77 41l22 1l24 42l-19 69l-51 27zM480 608l51 16l18 -10l1 -20l-59 -27zM335 319l4 -14l-6 -6l8 -15l7 4l16 -25l20 9l-16 26
l10 6l-4 12l-14 -3l-3 7l16 25l-18 8zM375 327l24 -46l20 9l-16 31l18 4l-7 19zM417 349l34 -41l43 21l-29 47l-17 -9l18 -31l-7 -8l-22 33zM461 395l41 -62l14 8l-4 15l15 -10l10 7l1 14l-21 6l7 20l-16 6l-8 -22l-20 26zM520 424l9 -16l-8 -4l8 -11l6 2l15 -29l12 -2
l22 13l-1 12l-13 2l-8 -6l-11 15l11 6l-6 14l-11 -4l-8 14zM565 427l8 -15l22 15l3 -5l-20 -13l-1 -9l12 -16h9l40 21l-30 41h-12zM598 407l11 9l3 -8l-11 -9z"/>
            <glyph glyph-name="afii10103" unicode="&#x456;"
                   d="M427 117q-4 1 -8 4q-4 2 -9.5 4.5t-13.5 7.5l-67 38l-34.5 20.5t-32.5 17.5q-30 17 -33 20q-118 73 -151 175q-32 105 -1 197q31 93 116 160q86 66 199 65q137 -2 221 -81t102 -185q20 -105 -36 -209q-54 -103 -196 -151zM162 566l32 -144l9 -65l22 -6l44 14l-40 133
l74 -73l34 10l25 100l21 -126l16 -9l48 17l-65 216l-42 -16l-36 -131l-110 101zM417 641l52 -188l-2 -23l16 -6l47 14l-22 73l98 -56h14l26 44l-77 41l22 1l24 42l-19 69l-51 27zM480 608l51 16l18 -10l1 -20l-59 -27zM335 319l4 -14l-6 -6l8 -15l7 4l16 -25l20 9l-16 26
l10 6l-4 12l-14 -3l-3 7l16 25l-18 8zM375 327l24 -46l20 9l-16 31l18 4l-7 19zM417 349l34 -41l43 21l-29 47l-17 -9l18 -31l-7 -8l-22 33zM461 395l41 -62l14 8l-4 15l15 -10l10 7l1 14l-21 6l7 20l-16 6l-8 -22l-20 26zM520 424l9 -16l-8 -4l8 -11l6 2l15 -29l12 -2
l22 13l-1 12l-13 2l-8 -6l-11 15l11 6l-6 14l-11 -4l-8 14zM565 427l8 -15l22 15l3 -5l-20 -13l-1 -9l12 -16h9l40 21l-30 41h-12zM598 407l11 9l3 -8l-11 -9z"/>
            <glyph glyph-name="afii61352" unicode="&#x2116;"
                   d="M427 117q-4 1 -8 4q-4 2 -9.5 4.5t-13.5 7.5l-67 38l-34.5 20.5t-32.5 17.5q-30 17 -33 20q-118 73 -151 175q-32 105 -1 197q31 93 116 160q86 66 199 65q137 -2 221 -81t102 -185q20 -105 -36 -209q-54 -103 -196 -151zM162 566l32 -144l9 -65l22 -6l44 14l-40 133
l74 -73l34 10l25 100l21 -126l16 -9l48 17l-65 216l-42 -16l-36 -131l-110 101zM417 641l52 -188l-2 -23l16 -6l47 14l-22 73l98 -56h14l26 44l-77 41l22 1l24 42l-19 69l-51 27zM480 608l51 16l18 -10l1 -20l-59 -27zM335 319l4 -14l-6 -6l8 -15l7 4l16 -25l20 9l-16 26
l10 6l-4 12l-14 -3l-3 7l16 25l-18 8zM375 327l24 -46l20 9l-16 31l18 4l-7 19zM417 349l34 -41l43 21l-29 47l-17 -9l18 -31l-7 -8l-22 33zM461 395l41 -62l14 8l-4 15l15 -10l10 7l1 14l-21 6l7 20l-16 6l-8 -22l-20 26zM520 424l9 -16l-8 -4l8 -11l6 2l15 -29l12 -2
l22 13l-1 12l-13 2l-8 -6l-11 15l11 6l-6 14l-11 -4l-8 14zM565 427l8 -15l22 15l3 -5l-20 -13l-1 -9l12 -16h9l40 21l-30 41h-12zM598 407l11 9l3 -8l-11 -9z"/>
            <glyph glyph-name="afii10101" unicode="&#x454;"
                   d="M427 117q-4 1 -8 4q-4 2 -9.5 4.5t-13.5 7.5l-67 38l-34.5 20.5t-32.5 17.5q-30 17 -33 20q-118 73 -151 175q-32 105 -1 197q31 93 116 160q86 66 199 65q137 -2 221 -81t102 -185q20 -105 -36 -209q-54 -103 -196 -151zM162 566l32 -144l9 -65l22 -6l44 14l-40 133
l74 -73l34 10l25 100l21 -126l16 -9l48 17l-65 216l-42 -16l-36 -131l-110 101zM417 641l52 -188l-2 -23l16 -6l47 14l-22 73l98 -56h14l26 44l-77 41l22 1l24 42l-19 69l-51 27zM480 608l51 16l18 -10l1 -20l-59 -27zM335 319l4 -14l-6 -6l8 -15l7 4l16 -25l20 9l-16 26
l10 6l-4 12l-14 -3l-3 7l16 25l-18 8zM375 327l24 -46l20 9l-16 31l18 4l-7 19zM417 349l34 -41l43 21l-29 47l-17 -9l18 -31l-7 -8l-22 33zM461 395l41 -62l14 8l-4 15l15 -10l10 7l1 14l-21 6l7 20l-16 6l-8 -22l-20 26zM520 424l9 -16l-8 -4l8 -11l6 2l15 -29l12 -2
l22 13l-1 12l-13 2l-8 -6l-11 15l11 6l-6 14l-11 -4l-8 14zM565 427l8 -15l22 15l3 -5l-20 -13l-1 -9l12 -16h9l40 21l-30 41h-12zM598 407l11 9l3 -8l-11 -9z"/>
            <glyph glyph-name="afii10105" unicode="&#x458;"
                   d="M427 117q-4 1 -8 4q-4 2 -9.5 4.5t-13.5 7.5l-67 38l-34.5 20.5t-32.5 17.5q-30 17 -33 20q-118 73 -151 175q-32 105 -1 197q31 93 116 160q86 66 199 65q137 -2 221 -81t102 -185q20 -105 -36 -209q-54 -103 -196 -151zM162 566l32 -144l9 -65l22 -6l44 14l-40 133
l74 -73l34 10l25 100l21 -126l16 -9l48 17l-65 216l-42 -16l-36 -131l-110 101zM417 641l52 -188l-2 -23l16 -6l47 14l-22 73l98 -56h14l26 44l-77 41l22 1l24 42l-19 69l-51 27zM480 608l51 16l18 -10l1 -20l-59 -27zM335 319l4 -14l-6 -6l8 -15l7 4l16 -25l20 9l-16 26
l10 6l-4 12l-14 -3l-3 7l16 25l-18 8zM375 327l24 -46l20 9l-16 31l18 4l-7 19zM417 349l34 -41l43 21l-29 47l-17 -9l18 -31l-7 -8l-22 33zM461 395l41 -62l14 8l-4 15l15 -10l10 7l1 14l-21 6l7 20l-16 6l-8 -22l-20 26zM520 424l9 -16l-8 -4l8 -11l6 2l15 -29l12 -2
l22 13l-1 12l-13 2l-8 -6l-11 15l11 6l-6 14l-11 -4l-8 14zM565 427l8 -15l22 15l3 -5l-20 -13l-1 -9l12 -16h9l40 21l-30 41h-12zM598 407l11 9l3 -8l-11 -9z"/>
            <glyph glyph-name="afii10054" unicode="&#x405;"
                   d="M427 117q-4 1 -8 4q-4 2 -9.5 4.5t-13.5 7.5l-67 38l-34.5 20.5t-32.5 17.5q-30 17 -33 20q-118 73 -151 175q-32 105 -1 197q31 93 116 160q86 66 199 65q137 -2 221 -81t102 -185q20 -105 -36 -209q-54 -103 -196 -151zM162 566l32 -144l9 -65l22 -6l44 14l-40 133
l74 -73l34 10l25 100l21 -126l16 -9l48 17l-65 216l-42 -16l-36 -131l-110 101zM417 641l52 -188l-2 -23l16 -6l47 14l-22 73l98 -56h14l26 44l-77 41l22 1l24 42l-19 69l-51 27zM480 608l51 16l18 -10l1 -20l-59 -27zM335 319l4 -14l-6 -6l8 -15l7 4l16 -25l20 9l-16 26
l10 6l-4 12l-14 -3l-3 7l16 25l-18 8zM375 327l24 -46l20 9l-16 31l18 4l-7 19zM417 349l34 -41l43 21l-29 47l-17 -9l18 -31l-7 -8l-22 33zM461 395l41 -62l14 8l-4 15l15 -10l10 7l1 14l-21 6l7 20l-16 6l-8 -22l-20 26zM520 424l9 -16l-8 -4l8 -11l6 2l15 -29l12 -2
l22 13l-1 12l-13 2l-8 -6l-11 15l11 6l-6 14l-11 -4l-8 14zM565 427l8 -15l22 15l3 -5l-20 -13l-1 -9l12 -16h9l40 21l-30 41h-12zM598 407l11 9l3 -8l-11 -9z"/>
            <glyph glyph-name="afii10098" unicode="&#x491;"
                   d="M427 117q-4 1 -8 4q-4 2 -9.5 4.5t-13.5 7.5l-67 38l-34.5 20.5t-32.5 17.5q-30 17 -33 20q-118 73 -151 175q-32 105 -1 197q31 93 116 160q86 66 199 65q137 -2 221 -81t102 -185q20 -105 -36 -209q-54 -103 -196 -151zM162 566l32 -144l9 -65l22 -6l44 14l-40 133
l74 -73l34 10l25 100l21 -126l16 -9l48 17l-65 216l-42 -16l-36 -131l-110 101zM417 641l52 -188l-2 -23l16 -6l47 14l-22 73l98 -56h14l26 44l-77 41l22 1l24 42l-19 69l-51 27zM480 608l51 16l18 -10l1 -20l-59 -27zM335 319l4 -14l-6 -6l8 -15l7 4l16 -25l20 9l-16 26
l10 6l-4 12l-14 -3l-3 7l16 25l-18 8zM375 327l24 -46l20 9l-16 31l18 4l-7 19zM417 349l34 -41l43 21l-29 47l-17 -9l18 -31l-7 -8l-22 33zM461 395l41 -62l14 8l-4 15l15 -10l10 7l1 14l-21 6l7 20l-16 6l-8 -22l-20 26zM520 424l9 -16l-8 -4l8 -11l6 2l15 -29l12 -2
l22 13l-1 12l-13 2l-8 -6l-11 15l11 6l-6 14l-11 -4l-8 14zM565 427l8 -15l22 15l3 -5l-20 -13l-1 -9l12 -16h9l40 21l-30 41h-12zM598 407l11 9l3 -8l-11 -9z"/>
            <glyph glyph-name="afii10053" unicode="&#x404;"
                   d="M427 117q-4 1 -8 4q-4 2 -9.5 4.5t-13.5 7.5l-67 38l-34.5 20.5t-32.5 17.5q-30 17 -33 20q-118 73 -151 175q-32 105 -1 197q31 93 116 160q86 66 199 65q137 -2 221 -81t102 -185q20 -105 -36 -209q-54 -103 -196 -151zM162 566l32 -144l9 -65l22 -6l44 14l-40 133
l74 -73l34 10l25 100l21 -126l16 -9l48 17l-65 216l-42 -16l-36 -131l-110 101zM417 641l52 -188l-2 -23l16 -6l47 14l-22 73l98 -56h14l26 44l-77 41l22 1l24 42l-19 69l-51 27zM480 608l51 16l18 -10l1 -20l-59 -27zM335 319l4 -14l-6 -6l8 -15l7 4l16 -25l20 9l-16 26
l10 6l-4 12l-14 -3l-3 7l16 25l-18 8zM375 327l24 -46l20 9l-16 31l18 4l-7 19zM417 349l34 -41l43 21l-29 47l-17 -9l18 -31l-7 -8l-22 33zM461 395l41 -62l14 8l-4 15l15 -10l10 7l1 14l-21 6l7 20l-16 6l-8 -22l-20 26zM520 424l9 -16l-8 -4l8 -11l6 2l15 -29l12 -2
l22 13l-1 12l-13 2l-8 -6l-11 15l11 6l-6 14l-11 -4l-8 14zM565 427l8 -15l22 15l3 -5l-20 -13l-1 -9l12 -16h9l40 21l-30 41h-12zM598 407l11 9l3 -8l-11 -9z"/>
            <glyph glyph-name="uni00AD" unicode="&#xad;"
                   d="M427 117q-4 1 -8 4q-4 2 -9.5 4.5t-13.5 7.5l-67 38l-34.5 20.5t-32.5 17.5q-30 17 -33 20q-118 73 -151 175q-32 105 -1 197q31 93 116 160q86 66 199 65q137 -2 221 -81t102 -185q20 -105 -36 -209q-54 -103 -196 -151zM162 566l32 -144l9 -65l22 -6l44 14l-40 133
l74 -73l34 10l25 100l21 -126l16 -9l48 17l-65 216l-42 -16l-36 -131l-110 101zM417 641l52 -188l-2 -23l16 -6l47 14l-22 73l98 -56h14l26 44l-77 41l22 1l24 42l-19 69l-51 27zM480 608l51 16l18 -10l1 -20l-59 -27zM335 319l4 -14l-6 -6l8 -15l7 4l16 -25l20 9l-16 26
l10 6l-4 12l-14 -3l-3 7l16 25l-18 8zM375 327l24 -46l20 9l-16 31l18 4l-7 19zM417 349l34 -41l43 21l-29 47l-17 -9l18 -31l-7 -8l-22 33zM461 395l41 -62l14 8l-4 15l15 -10l10 7l1 14l-21 6l7 20l-16 6l-8 -22l-20 26zM520 424l9 -16l-8 -4l8 -11l6 2l15 -29l12 -2
l22 13l-1 12l-13 2l-8 -6l-11 15l11 6l-6 14l-11 -4l-8 14zM565 427l8 -15l22 15l3 -5l-20 -13l-1 -9l12 -16h9l40 21l-30 41h-12zM598 407l11 9l3 -8l-11 -9z"/>
            <glyph glyph-name="afii10050" unicode="&#x490;"
                   d="M427 117q-4 1 -8 4q-4 2 -9.5 4.5t-13.5 7.5l-67 38l-34.5 20.5t-32.5 17.5q-30 17 -33 20q-118 73 -151 175q-32 105 -1 197q31 93 116 160q86 66 199 65q137 -2 221 -81t102 -185q20 -105 -36 -209q-54 -103 -196 -151zM162 566l32 -144l9 -65l22 -6l44 14l-40 133
l74 -73l34 10l25 100l21 -126l16 -9l48 17l-65 216l-42 -16l-36 -131l-110 101zM417 641l52 -188l-2 -23l16 -6l47 14l-22 73l98 -56h14l26 44l-77 41l22 1l24 42l-19 69l-51 27zM480 608l51 16l18 -10l1 -20l-59 -27zM335 319l4 -14l-6 -6l8 -15l7 4l16 -25l20 9l-16 26
l10 6l-4 12l-14 -3l-3 7l16 25l-18 8zM375 327l24 -46l20 9l-16 31l18 4l-7 19zM417 349l34 -41l43 21l-29 47l-17 -9l18 -31l-7 -8l-22 33zM461 395l41 -62l14 8l-4 15l15 -10l10 7l1 14l-21 6l7 20l-16 6l-8 -22l-20 26zM520 424l9 -16l-8 -4l8 -11l6 2l15 -29l12 -2
l22 13l-1 12l-13 2l-8 -6l-11 15l11 6l-6 14l-11 -4l-8 14zM565 427l8 -15l22 15l3 -5l-20 -13l-1 -9l12 -16h9l40 21l-30 41h-12zM598 407l11 9l3 -8l-11 -9z"/>
            <glyph glyph-name="afii10102" unicode="&#x455;"
                   d="M427 117q-4 1 -8 4q-4 2 -9.5 4.5t-13.5 7.5l-67 38l-34.5 20.5t-32.5 17.5q-30 17 -33 20q-118 73 -151 175q-32 105 -1 197q31 93 116 160q86 66 199 65q137 -2 221 -81t102 -185q20 -105 -36 -209q-54 -103 -196 -151zM162 566l32 -144l9 -65l22 -6l44 14l-40 133
l74 -73l34 10l25 100l21 -126l16 -9l48 17l-65 216l-42 -16l-36 -131l-110 101zM417 641l52 -188l-2 -23l16 -6l47 14l-22 73l98 -56h14l26 44l-77 41l22 1l24 42l-19 69l-51 27zM480 608l51 16l18 -10l1 -20l-59 -27zM335 319l4 -14l-6 -6l8 -15l7 4l16 -25l20 9l-16 26
l10 6l-4 12l-14 -3l-3 7l16 25l-18 8zM375 327l24 -46l20 9l-16 31l18 4l-7 19zM417 349l34 -41l43 21l-29 47l-17 -9l18 -31l-7 -8l-22 33zM461 395l41 -62l14 8l-4 15l15 -10l10 7l1 14l-21 6l7 20l-16 6l-8 -22l-20 26zM520 424l9 -16l-8 -4l8 -11l6 2l15 -29l12 -2
l22 13l-1 12l-13 2l-8 -6l-11 15l11 6l-6 14l-11 -4l-8 14zM565 427l8 -15l22 15l3 -5l-20 -13l-1 -9l12 -16h9l40 21l-30 41h-12zM598 407l11 9l3 -8l-11 -9z"/>
            <glyph glyph-name="afii10104" unicode="&#x457;"
                   d="M427 117q-4 1 -8 4q-4 2 -9.5 4.5t-13.5 7.5l-67 38l-34.5 20.5t-32.5 17.5q-30 17 -33 20q-118 73 -151 175q-32 105 -1 197q31 93 116 160q86 66 199 65q137 -2 221 -81t102 -185q20 -105 -36 -209q-54 -103 -196 -151zM162 566l32 -144l9 -65l22 -6l44 14l-40 133
l74 -73l34 10l25 100l21 -126l16 -9l48 17l-65 216l-42 -16l-36 -131l-110 101zM417 641l52 -188l-2 -23l16 -6l47 14l-22 73l98 -56h14l26 44l-77 41l22 1l24 42l-19 69l-51 27zM480 608l51 16l18 -10l1 -20l-59 -27zM335 319l4 -14l-6 -6l8 -15l7 4l16 -25l20 9l-16 26
l10 6l-4 12l-14 -3l-3 7l16 25l-18 8zM375 327l24 -46l20 9l-16 31l18 4l-7 19zM417 349l34 -41l43 21l-29 47l-17 -9l18 -31l-7 -8l-22 33zM461 395l41 -62l14 8l-4 15l15 -10l10 7l1 14l-21 6l7 20l-16 6l-8 -22l-20 26zM520 424l9 -16l-8 -4l8 -11l6 2l15 -29l12 -2
l22 13l-1 12l-13 2l-8 -6l-11 15l11 6l-6 14l-11 -4l-8 14zM565 427l8 -15l22 15l3 -5l-20 -13l-1 -9l12 -16h9l40 21l-30 41h-12zM598 407l11 9l3 -8l-11 -9z"/>
            <glyph glyph-name="afii10193" unicode="&#x45f;"
                   d="M427 117q-4 1 -8 4q-4 2 -9.5 4.5t-13.5 7.5l-67 38l-34.5 20.5t-32.5 17.5q-30 17 -33 20q-118 73 -151 175q-32 105 -1 197q31 93 116 160q86 66 199 65q137 -2 221 -81t102 -185q20 -105 -36 -209q-54 -103 -196 -151zM162 566l32 -144l9 -65l22 -6l44 14l-40 133
l74 -73l34 10l25 100l21 -126l16 -9l48 17l-65 216l-42 -16l-36 -131l-110 101zM417 641l52 -188l-2 -23l16 -6l47 14l-22 73l98 -56h14l26 44l-77 41l22 1l24 42l-19 69l-51 27zM480 608l51 16l18 -10l1 -20l-59 -27zM335 319l4 -14l-6 -6l8 -15l7 4l16 -25l20 9l-16 26
l10 6l-4 12l-14 -3l-3 7l16 25l-18 8zM375 327l24 -46l20 9l-16 31l18 4l-7 19zM417 349l34 -41l43 21l-29 47l-17 -9l18 -31l-7 -8l-22 33zM461 395l41 -62l14 8l-4 15l15 -10l10 7l1 14l-21 6l7 20l-16 6l-8 -22l-20 26zM520 424l9 -16l-8 -4l8 -11l6 2l15 -29l12 -2
l22 13l-1 12l-13 2l-8 -6l-11 15l11 6l-6 14l-11 -4l-8 14zM565 427l8 -15l22 15l3 -5l-20 -13l-1 -9l12 -16h9l40 21l-30 41h-12zM598 407l11 9l3 -8l-11 -9z"/>
            <glyph glyph-name="afii10017" unicode="&#x410;" horiz-adv-x="694"
                   d="M118 779l365 -21l119 -623l59 -18l-1 -99h-42h-91h-91h-41l1 99l56 18l-30 131h-172l-31 -131l57 -18l1 -108q-12 1 -35 -2.5t-52 -7.5t-60.5 -7.5t-58 -2.5t-46 7t-24.5 22v99l61 18l130 532l-68 -3zM315 620l-47 -197l-2 -41l141 1v43l-32 194h-60z"/>
            <glyph glyph-name="afii10018" unicode="&#x411;" horiz-adv-x="683"
                   d="M650 302q0 -71 -17.5 -123.5t-47 -89.5t-69 -59.5t-84 -33t-91.5 -11.5t-92 6q-8 1 -29 4.5l-55 9.5q-65 13 -126 13l1 99l59 17v503l-59 11v131l236 -21h131l184 -1l38 -250l-123 15l-33 118l-138 -3l-59 -17l-2 -117q78 14 170 5q94 -7 160 -66l1 -1q44 -36 45 -139z
M275 140q19 1 38 1.5t38 0.5q47 1 91 42q44 42 30 134q-3 17 -19 27.5t-37.5 16t-46.5 7.5t-46 2t-35 -1l-14 -1z"/>
            <glyph glyph-name="afii10019" unicode="&#x412;" horiz-adv-x="672"
                   d="M276 458l13.5 -1.5t33 -0.5t43 4.5t43.5 12.5t33.5 25.5t13.5 42.5v19q0 -1 0 4.5t-1 16.5q-1 24 -12.5 38t-28.5 19.5t-38 4.5t-40.5 -7t-35.5 -15.5t-24 -19.5v-143zM209 -10q-35 6 -79.5 17t-89.5 10v100l60 17l-1 502l-58 12l-1 130l236 -20q174 48 241 -6
q68 -54 78 -136v-2q4 -41 0.5 -70.5t-12.5 -50.5t-22 -33t-26 -16q15 1 25.5 -4t15.5 -8q25 -20 44 -125q21 -105 -46 -205q-41 -61 -139 -95q-99 -35 -226 -17zM274 129q19 1 38.5 1.5t38.5 0.5q47 1 91 42q44 42 29 135q-2 12 -12 21t-24 15t-31.5 9t-35.5 5q-42 4 -95 0z
"/>
            <glyph glyph-name="afii10020" unicode="&#x413;" horiz-adv-x="620"
                   d="M295 120v-17.5t-1 -36.5v-46h-46h-101h-101h-46v100l59 14l1 506l-60 11v131l236 -18h133l182 -1l40 -254l-119 1l-38 136l-198 -20v-489q3 -1 7 -2q4 -2 9 -3.5t13 -3.5q16 -5 22 -6z"/>
            <glyph glyph-name="afii10021" unicode="&#x414;" horiz-adv-x="723"
                   d="M127 781l365 -13h119l19 -630l59 -18l-19 -236h-138l-20 116h-334l-20 -116h-137q0 4 -1 9q-2 9 -3 28l-7 81l-7 81q-1 9 -1.5 16t-0.5 12q-1 5 -1 9l59 18l72 256l70 284l-69 -4zM333 624l-77 -447v-40l217 1l-22 494z"/>
            <glyph glyph-name="afii10022" unicode="&#x415;" horiz-adv-x="620"
                   d="M591 275l-40 -255h-551v100l60 17v502l-60 12v130l236 -13h315l40 -256h-118l-39 138l-198 -20l1 -177h196l5 -119h-201l-1 -176l198 -20l39 137h118z"/>
            <glyph glyph-name="afii10024" unicode="&#x416;" horiz-adv-x="888"
                   d="M275 120l59 17v198l-38 -1l-41.5 -157l-40.5 -157h-34h-73h-74h-33v100l59 17l80 277l-74 225l-59 12l-3 130l210 -14l83 -295h39l-1 167l-58 12l-1 130l236 -14v-266v-30l40 1l11 39l71 256l210 14v-130l-61 -12l-74 -226l80 -276l58 -17v-101h-34q-17 1 -35 1h-38
h-38.5t-35.5 -1h-33l-81 315h-39v-197l59 -17v-101h-46h-102h-102h-46v101z"/>
            <glyph glyph-name="afii10025" unicode="&#x417;" horiz-adv-x="596"
                   d="M39 767l17 3.5t46 7.5t67.5 7t80.5 1.5t86 -9t85 -24.5q36 -14 65 -66q28 -48 40 -108q12 -57 4 -111t-38 -74l2 -1q30 -8 51 -65q22 -57 9 -124q-12 -67 -73 -123q-61 -57 -193 -61q-55 -3 -117 4t-131 16q-11 64 -20.5 127.5l-19.5 127.5h118l39 -137h11q5 0 13 -0.5
t19 -0.5q42 0 96 14q64 18 65 58q1 20 3 46.5t4 58.5q-15 -1 -33 -1h-72h-105q0 2 0.5 16l1.5 41q3 55 3 62h201q-4 31 -6 59t-4 53q-2 50 -61 67q-25 7 -48 11t-45 5q-11 0 -19 0.5t-13 0.5q-6 0 -11 1l-39 -140h-118z"/>
            <glyph glyph-name="afii10026" unicode="&#x418;" horiz-adv-x="683"
                   d="M0 119l59 18l1 502l-59 11l-1 131l236 -13v-316l179 316h177l-1 -631l60 -18l-1 -99h-46h-102h-101h-46v99l59 18l2 337l-179 -316v-21l59 -18l-1 -99h-46h-102h-101h-46v99z"/>
            <glyph glyph-name="afii10027" unicode="&#x419;" horiz-adv-x="683"
                   d="M0 120l59 17l1 502l-60 12v130l236 -13v-317l179 317h177l-1 -631l60 -17l-1 -100h-46h-102h-101h-46v100l59 17l2 337l-179 -316v-21l59 -17l-1 -100h-11q-6 0 -15 -0.5t-20 -0.5h-102h-101q-46 0 -46 1v100zM184 944l331 -58l-24 -96l-341 17z"/>
            <glyph glyph-name="afii10028" unicode="&#x41a;" horiz-adv-x="600"
                   d="M0 120l60 17v502l-60 11v131l237 -14l-1 -266v-30l40 1l11 39l71 256l210 14v-131l-61 -11l-74 -226l79 -276l59 -18v-99h-34h-73h-38.5t-35.5 -1h-33l-81 315h-39v-197l59 -17v-100h-47h-102h-101h-46v100z"/>
            <glyph glyph-name="afii10029" unicode="&#x41b;" horiz-adv-x="693"
                   d="M118 781l364 -13l121 -631l57 -17v-100h-42h-91h-91h-41v100l58 17l-31 138l-16 118l1 43l-47 192h-40l-53 -195l-1 -41l-16 -117l-33 -138l58 -17v-100h-43h-95h-94h-43v100l59 17l132 540l-68 -4z"/>
            <glyph glyph-name="afii10030" unicode="&#x41c;" horiz-adv-x="786"
                   d="M0 120l59 17l1 502l-60 12v130l237 -13l59 -40l78 -276l79 276l59 40h178l-1 -631l60 -17l-1 -100h-295v100l59 17l1 356l-60 -218l-79 -8l-79 8l-59 216l1 -354l59 -17v-100h-296v100z"/>
            <glyph glyph-name="afii10031" unicode="&#x41d;" horiz-adv-x="703"
                   d="M0 120l59 17l1 502l-60 12v130l237 -13l-1 -276h197v276h177v-631l59 -17v-100h-295v100l59 17v217h-197l1 -217l59 -17v-100h-296v100z"/>
            <glyph glyph-name="afii10032" unicode="&#x41e;" horiz-adv-x="684"
                   d="M650 417q1 -170 -70 -284q-71 -113 -243 -113q-146 -1 -244 74t-93 320q1 114 47 213q47 98 141 137q34 14 70.5 20t73.5 7q178 3 247 -107q70 -110 71 -267zM328 650q-134 0 -134 -232q0 -118 25 -178q26 -62 102 -62t103 66q28 65 28 183q0 116 -27.5 169.5t-96.5 53.5
z"/>
            <glyph glyph-name="afii10033" unicode="&#x41f;" horiz-adv-x="703"
                   d="M0 120l59 18l1 502l-60 12v130l237 -14h373v-630l59 -18v-100h-295v100l59 18v480l-197 15l1 -456v-38l59 -19v-100h-296v100z"/>
            <glyph glyph-name="afii10034" unicode="&#x420;" horiz-adv-x="581"
                   d="M0 120l59 18l1 502l-60 12v130l178 -9q93 -3 177 -29t138 -83q55 -57 60 -171q0 -22 -1 -50.5t-9.5 -58t-27.5 -57t-54 -48.5t-89.5 -32t-134.5 -7v-98l59 -19v-100h-296v100zM236 374l10.5 -0.5t26 0.5t33.5 5.5t33 15t25 29t10 48.5q-1 29 -11 48t-25.5 30t-33 15.5
t-32.5 6t-25.5 0.5l-10.5 -1v-197z"/>
            <glyph glyph-name="afii10035" unicode="&#x421;" horiz-adv-x="638"
                   d="M608 509h-120l-36 135q-5 -1 -11 -1q-5 0 -13 -0.5t-19 -0.5q-41 -1 -94 -17q-74 -20 -96 -90q-11 -35 -17.5 -72t-7.5 -77q-2 -80 18 -136q19 -56 99 -78q54 -14 95 -14q11 0 19.5 0.5t13.5 0.5h11l39 137h117l-37 -240q-61 -7 -113 -23q-25 -7 -58.5 -10.5t-76.5 -2.5
q-145 2 -235 65q-92 64 -87 303q1 114 48 218q46 103 140 143q61 24 128.5 29.5t124 1.5t93 -11l36.5 -7z"/>
            <glyph glyph-name="afii10036" unicode="&#x422;" horiz-adv-x="797"
                   d="M233 119l59 19v498l-131 13l-40 -143h-119l41 276l235 -15l441 1l40 -262h-117l-40 145l-132 -13v-499l59 -20v-99h-296v99z"/>
            <glyph glyph-name="afii10037" unicode="&#x423;" horiz-adv-x="596"
                   d="M489 20h-47h-102h-101h-46v100l60 19l39 197l-57 3q-57 5 -100 77l-73 224l-61 11l-1 131l210 -13l72 -256l10 -39l40 -1v297l235 12v-131l-60 -11l-77 -501l59 -19v-100z"/>
            <glyph glyph-name="afii10038" unicode="&#x424;" horiz-adv-x="855"
                   d="M321 531l-21 1t-46.5 -6t-47.5 -28t-22 -65q-1 -29 9 -48t25.5 -30t33 -15.5t33 -6t26 -0.5l10.5 1v197zM498 334q38 -4 69 5q13 4 25 10.5t22 17.5t16 27t6 38q-2 44 -23 64.5t-47 28.5q-30 9 -68 6v-197zM262 120l59 17v60h-79q-27 1 -54 6.5t-55 16.5q-55 22 -95 74
t-34 156q6 97 48 153t94 81q51 26 103 34l72 10v54l177 -14v-20v-20q138 -12 224 -82q89 -69 93 -196q0 -22 -1 -50.5t-9.5 -58t-27.5 -57t-54 -48.5t-89.5 -32t-134.5 -7v-60l58 -17l1 -100h-296v100z"/>
            <glyph glyph-name="afii10039" unicode="&#x425;" horiz-adv-x="673"
                   d="M214 20h-214v99l59 19l80 276l-74 225l-62 12v130l210 -14l83 -294h50l82 294l210 1v-117l-62 -12l-74 -225l80 -276l59 -19v-99h-214l-81 314h-33q1 1 7 1q7 0 7 -1h-31z"/>
            <glyph glyph-name="afii10040" unicode="&#x426;" horiz-adv-x="723"
                   d="M0 120l59 18l1 502l-60 12v130l236 -14l1 -629l59 -12h58l59 11l1 631h177v-640l98 2l-20 -249h-36t-28.5 0.5t-26 0.5h-27.5q-1 6 -2 15q-2 8 -3.5 18.5l-3.5 25.5q-2 14 -4 25t-3 19q-2 9 -2 14l-84 3l-183 6l-183 7q-40 1 -62 3q-12 1 -21 1v100z"/>
            <glyph glyph-name="afii10041" unicode="&#x427;" horiz-adv-x="596"
                   d="M568 21h-47h-102h-101h-46v100l60 17v198q-40 -2 -79 -1.5t-79 0.5t-65 15t-38 40t-17 57.5t-3 66.5t4 67t4 60l-58 11l-1 131l210 -15l14 -290l68 -4l40 -1v296h177v-631l59 -17v-100z"/>
            <glyph glyph-name="afii10042" unicode="&#x428;" horiz-adv-x="849"
                   d="M0 120l59 18l1 503l-60 11v131l236 -15l1 -629l59 -12h19v641h177v-642l19 -1l59 12l1 631h177v-630l59 -18v-13v-15.5t1 -21.5q0 -13 0.5 -22t0.5 -15v-13q-108 -5 -203 -12.5t-193 -7.5q-125 0 -243 9q-60 5 -102 7.5t-68 3.5v100z"/>
            <glyph glyph-name="afii10043" unicode="&#x429;" horiz-adv-x="888"
                   d="M0 120l59 19v501l-59 12v130l236 -14l1 -628l59 -12h19v640h177v-642h19l58 12l2 630h177v-640l98 3l-20 -249h-118q0 6 -2 15q-2 8 -4 18.5t-4 25.5q-2 14 -4 25t-3 19q-2 9 -2 15l-108 3l-237 6l-237 7q-52 1 -80 3q-16 1 -27 1v100z"/>
            <glyph glyph-name="afii10044" unicode="&#x42a;" horiz-adv-x="680"
                   d="M85 119l60 18v509l-20 3l-47 -140h-78l25 272l60 1l237 -15l1 -224q178 7 251 -60t65 -193q-9 -123 -69 -181q-59 -57 -144 -80q-86 -21 -177 -17q-46 2 -87 4t-77 4v99zM321 196l10.5 -1t25.5 0t32.5 5.5t33 15.5t25.5 29.5t11 48.5q0 29 -10 48t-25 30t-33 15.5
t-33.5 6t-26 0.5l-10.5 -1v-197z"/>
            <glyph glyph-name="afii10045" unicode="&#x42b;" horiz-adv-x="869"
                   d="M236 197l21 -1t47 6t47.5 28t22.5 65t-20.5 65t-48 28.5t-48 6.5l-21.5 -1v-197zM0 119l59 19l1 502l-60 11v130l236 -13l2 -224q179 8 251 -60q73 -67 65 -193q-9 -122 -70 -180q-60 -59 -144 -81q-83 -21 -176 -18q-46 2 -87 4t-77 4v99zM532 126l58 12l1 488l-59 11
v130l236 -20v-608l59 -12l1 -108h-297z"/>
            <glyph glyph-name="afii10046" unicode="&#x42c;" horiz-adv-x="590"
                   d="M0 119l59 19l1 502l-60 11v130l236 -13l2 -224q179 8 251 -60q73 -67 65 -193q-9 -122 -70 -180q-60 -59 -144 -81q-83 -21 -176 -18q-46 2 -87 4t-77 4v99zM236 197l21 -1t47 6t47.5 28t22.5 65t-20.5 65t-48 28.5t-48 6.5l-21.5 -1v-197z"/>
            <glyph glyph-name="afii10047" unicode="&#x42d;" horiz-adv-x="647"
                   d="M40 767q84 21 192 21q109 0 189 -34q95 -39 141 -142q46 -102 49 -218q5 -242 -91 -308t-240 -66q-57 0 -117 6t-123 15l-40 255h118l39 -137h11q5 0 13 -0.5t19 -0.5q42 0 96 14q33 9 54.5 23.5t35 35t20 46t8.5 57.5h-209q0 2 0.5 16l1.5 41l1.5 43t0.5 18h101h37h32
t23 0.5l9 0.5q-8 63 -33 112q-26 49 -84 66q-26 7 -49 11t-45 5q-11 0 -19 0.5t-13 0.5q-6 0 -10 1l-40 -140h-118z"/>
            <glyph glyph-name="afii10048" unicode="&#x42e;" horiz-adv-x="1019"
                   d="M969 396q1 -168 -70 -273q-70 -101 -244 -103q-134 0 -228 51q-93 52 -107 244h-42h-41l-0.5 -7.5t-0.5 -20v-28.5v-33q0 -40 1 -89q3 -1 7 -2q4 -2 9 -3.5t13 -3.5q16 -5 22 -6l8 -2v-50v-50h-46h-102h-102h-46v49v51q3 1 7 2q6 1 22 6l30 9v78v173v173q0 20 0.5 34.5
t0.5 24.5v20q-3 0 -7 1t-9.5 1.5t-12.5 2.5q-29 6 -31 6v62v69q4 -1 9 -1q5 -1 11.5 -1t16.5 -1l39 -2t42 -3l81 -4q9 -1 16 -1h12t9 -1v-51v-110v-109q1 -25 1 -36.5t0 -10.5h11h13t19 1q11 0 19 0.5t13 0.5h11q12 100 57 183q46 84 128 118q39 16 82.5 26t85.5 7
q113 -9 202 -86q90 -77 91 -305zM646 650q-133 0 -133 -232q0 -119 25 -179q26 -62 102 -62t103 66q28 66 28 183q0 116 -27 170t-98 54z"/>
            <glyph glyph-name="afii10049" unicode="&#x42f;" horiz-adv-x="600"
                   d="M571 20h-296v100l59 17v99q-35 -2 -63 0q-1 -3 -2 -8q-2 -5 -3.5 -11.5l-3.5 -14.5l-20 -75l-20 -74l-3.5 -14.5l-2.5 -10.5q-1 -5 -2 -8h-34h-73h-74h-33v50v50q3 1 7 2q6 1 22 6l30 9l21 72q8 27 14 49.5t7 23.5q-63 41 -74 103q-9 61 -9 104q2 65 25 115t64.5 84.5
t99 54.5t128.5 25l236 13l-1 -130l-58 -12v-502l59 -17v-100zM335 570l-21.5 1t-47 -6t-47 -28t-22.5 -65q-1 -29 9 -48t25.5 -30t33.5 -15.5t33.5 -6t26 -0.5t10.5 2v196z"/>
            <glyph glyph-name="_168" unicode="&#x401;" horiz-adv-x="620"
                   d="M156 958l120 -25l-28 -117l-124 4zM591 275l-40 -255h-551v100l59 17l1 503l-60 11v131l236 -14l315 -1l40 -255h-118l-39 138l-197 -20v-177h197l4 -119h-201v-177l197 -19l39 137h118zM365 929l123 -26l-24 -96l-128 5z"/>
            <glyph glyph-name="afii10071" unicode="&#x451;" horiz-adv-x="620"
                   d="M156 958l120 -25l-28 -117l-124 4zM591 275l-40 -255h-551v100l59 17l1 503l-60 11v131l236 -14l315 -1l40 -255h-118l-39 138l-197 -20v-177h197l4 -119h-201v-177l197 -19l39 137h118zM365 929l123 -26l-24 -96l-128 5z"/>
            <glyph glyph-name="V" unicode="V" horiz-adv-x="660"
                   d="M213 17l-150 619l-63 11l1 131l9 -0.5t24 -1t34.5 -1t39.5 -1.5q48 -2 107 -3l16 -118l34 -138l15 -116l2 -42l53 -195h25l46 192v43l16 118l31 138l17 118h158l-25 -119l-114 -635h-276z"/>
            <glyph glyph-name="W" unicode="W" horiz-adv-x="815"
                   d="M769 653l-44 -637h-167l-58 40l-79 276l-79 -276l-59 -40h-178l-44 620l-61 11l1 131l217 -14l19 -118l45 -355l60 218l79 8l79 -8l59 -216l32 353l12 119h174z"/>
            <glyph glyph-name="J" unicode="J" horiz-adv-x="682"
                   d="M650 168v-17.5t-1 -36.5v-47q-111 -40 -224 -47q-114 -7 -210 29t-155 121q-60 85 -60 232h158q-1 -109 57 -181q59 -71 140 -54l59 15v457l-59 12v130l236 -14v-296v-294q3 0 7 -1t9 -2t13 -2q8 -2 13 -2t9 -1t8 -1z"/>
            <glyph glyph-name="F" unicode="F" horiz-adv-x="620"
                   d="M295 20h-295v100l59 18l1 501l-60 12v130l236 -13h315l40 -256h-118l-39 138l-198 -20l1 -177h196l5 -119h-201l-1 -196l59 -20v-98z"/>
            <glyph glyph-name="U" unicode="U" horiz-adv-x="645"
                   d="M0 650v131l237 -10l2 -388q2 -34 5 -69t8 -70q10 -70 84 -68q64 -1 82 59q19 60 19 157l-4 379h177q0 -89 0.5 -161.5t1.5 -129.5q3 -113 -12 -202q-24 -147 -94 -202q-69 -54 -161 -56h-7q-78 1 -129 20t-82.5 56t-46 90t-19 121.5t-3.5 151.5t2 180z"/>
            <glyph glyph-name="N" unicode="N" horiz-adv-x="683"
                   d="M650 20h-46h-102h-101h-46l-1 99l59 17v22l-178 316l1 -337l59 -18v-99h-46h-102h-101h-46v99l59 18l-1 503l-58 11v131l235 -14l179 -317l-1 317h177l1 -631l59 -18v-99z"/>
            <glyph glyph-name="D" unicode="D" horiz-adv-x="672"
                   d="M63 752l37 7.5t93.5 11t123.5 -1.5t128 -30q96 -40 145 -142q51 -104 45 -219q-15 -260 -178 -321q-161 -61 -398 -37h-59v715zM177 124h57q56 0 110 23q21 10 36.5 26t26.5 35.5t16.5 41t7.5 42.5q7 99 -2.5 159t-24.5 88q-17 28 -51 59q-34 32 -176 37v-511z"/>
            <glyph glyph-name="G" unicode="G" horiz-adv-x="659"
                   d="M611 510h-121l-36 135q-5 -1 -11 -1q-5 0 -13.5 -0.5t-19.5 -0.5q-22 -1 -45 -5t-48 -11q-74 -21 -96 -78q-11 -29 -17.5 -62.5t-7.5 -73.5q-2 -81 19 -150t100 -90q52 -15 95 -15q11 0 19.5 0.5t13.5 0.5h11l39 112l-97 -3v97h231l-17 -94l-9.5 -59t-9.5 -49l-18 -107
q-32 -4 -59.5 -9.5t-52.5 -13.5q-25 -7 -58.5 -10.5t-77.5 -2.5q-141 1 -236 78q-94 78 -89 317q1 57 13 109t35.5 95.5t58.5 77t82 53.5q61 24 128 29.5t124 1.5q66 -4 130 -18z"/>
            <glyph glyph-name="S" unicode="S" horiz-adv-x="557"
                   d="M528 510h-118l-39 145q-13 2 -33.5 4t-44 1.5t-47.5 -5t-43.5 -16t-32 -30.5t-13.5 -49q-1 -24 4.5 -39.5t16.5 -24.5t26 -13t33 -5q37 -2 82.5 0t88.5 -8q58 -17 90 -84q33 -68 26 -145q-7 -96 -60 -146q-50 -48 -123 -68q-72 -18 -154 -15q-81 3 -147 9q-1 4 -2 10
q-1 5 -2 12t-3 17l-14 87l-13 87q-2 10 -3 17.5t-2 12.5q-1 6 -1 10h60h60l38 -135q121 -16 164 16q44 35 45 80q0 19 -1 42.5t-9 34.5q-2 1 -2.5 2.5t-1.5 2.5l-2 2h-10q-113 -17 -169 -6l-24 5t-17 4q-8 2 -14 3q-69 17 -97 95q-29 79 -18 150q21 139 152 183
q132 45 330 20z"/>
            <glyph glyph-name="L" unicode="L" horiz-adv-x="620"
                   d="M591 275l-40 -255h-551v100l60 17v502l-60 12v130l236 -13v-610l198 -20l39 137h118z"/>
            <glyph glyph-name="Z" unicode="Z" horiz-adv-x="620"
                   d="M0 118l59 19l295 493l-197 20l-39 -141h-118l41 272l235 -13h254v-128l-294 -484l198 -20l38 138h118l-39 -254h-551v98z"/>
            <glyph glyph-name="exclam" unicode="!" horiz-adv-x="268"
                   d="M13 475l-13 352l255 1l-12 -352q0 -5 -1 -11t-2 -14.5t-2 -19.5l-9 -99l-9 -99q-2 -11 -2 -20t-1 -14q-1 -7 -1 -11l-13 0.5t-32.5 1.5t-43 2.5t-43 2.5t-32.5 1.5l-13 0.5zM27 178l200 -11l-4 -167h-191z"/>
            <glyph glyph-name="question" unicode="?" horiz-adv-x="563"
                   d="M165 178l200 -11l-4 -167h-191zM43 801q206 56 333 -4q127 -58 150 -199q11 -71 -19 -150q-28 -78 -96 -95q-4 -2 -10 -4q-11 -3 -31 -6h-1l-1 -11.5t-3 -29t-4 -37.5t-3.5 -37l-2.5 -28.5l-1 -11.5l-8 0.5t-20.5 1t-28.5 1t-32 1.5q-39 2 -88 5v44q1 22 1 46v50v96v44
q26 1 57.5 6.5t66.5 15.5q73 20 68 88q-1 30 -13.5 49.5t-32 30.5t-43.5 16t-47.5 5.5t-44 -1.5t-32.5 -4l-35 -125h-119z"/>
            <glyph glyph-name="Y" unicode="Y" horiz-adv-x="648"
                   d="M161 100l59 17v160l-59 38l-99 305l-62 11v131l210 -14l82 -295l33 -1l82 296h211l-1 -117l-61 -11l-100 -305q-4 -2 -8 -5q-4 -2 -9 -6t-13 -9t-13 -8.5t-9 -5.5q-4 -3 -7 -5v-159l60 -17v-100h-47h-102h-101h-46v100z"/>
            <glyph glyph-name="Q" unicode="Q" horiz-adv-x="683"
                   d="M650 371q0 -94 -20 -159.5t-65 -118.5l10 -2t11.5 -2t16.5 -3l39 -6l-3 -12q-2 -6 -4.5 -15t-5.5 -21l-12 -48q-18 0 -37 2q-17 1 -38.5 2.5t-45.5 3.5l-94 6q-23 1 -39.5 1.5t-26.5 -0.5q-146 0 -244 62q-97 61 -92 307q1 114 48 218q46 102 141 143q40 16 83 25.5
t85 6.5q113 -9 202 -86q90 -77 91 -304zM328 608q-133 0 -133 -232q0 -118 25 -178q26 -62 101 -62q38 0 63.5 17t40.5 49t21.5 78t6.5 105q0 117 -28 170t-97 53z"/>
            <glyph glyph-name="O.002" horiz-adv-x="684"
                   d="M650 417q1 -170 -70 -284q-71 -113 -243 -113q-146 -1 -244 74t-93 320q1 114 47 213q47 98 141 137q34 14 70.5 20t73.5 7q178 3 247 -107q70 -110 71 -267zM328 650q-134 0 -134 -232q0 -118 25 -178q26 -62 102 -62t103 66q28 65 28 183q0 116 -27.5 169.5t-96.5 53.5
z"/>
            <glyph glyph-name="P" unicode="P" horiz-adv-x="581"
                   d="M0 120l59 18l1 502l-60 12v130l178 -9q93 -3 177 -29t138 -83q55 -57 60 -171q0 -22 -1 -50.5t-9.5 -58t-27.5 -57t-54 -48.5t-89.5 -32t-134.5 -7v-98l59 -19v-100h-296v100zM236 374l10.5 -0.5t26 0.5t33.5 5.5t33 15t25 29t10 48.5q-1 29 -11 48t-25.5 30t-33 15.5
t-32.5 6t-25.5 0.5l-10.5 -1v-197z"/>
            <glyph glyph-name="_154" horiz-adv-x="600"
                   d="M0 120l59 17v502l-58 12l-1 130l236 -13q71 -5 128.5 -25t99 -54.5t64.5 -84.5t25 -115q0 -21 -2.5 -47t-7.5 -57q-9 -61 -73 -103q0 -1 6.5 -23.5l14.5 -49.5l21 -72q3 -1 7 -2q4 -2 9 -3.5t13 -3.5q16 -5 22 -6l8 -2v-50v-50h-34h-73h-74h-33l-9 33q-4 17 -9 35.5
l-10 38.5l-20 75q-2 8 -4 14.5t-3 11.5q-2 5 -2 8q-29 -2 -63 0v-99l59 -17v-100h-296v100zM236 374q0 -1 10.5 -2t26 0.5t33.5 6t33.5 15.5t25.5 30t9 48q-1 44 -22.5 65t-47 28t-47 6l-21.5 -1v-196z"/>
            <glyph glyph-name="_155" horiz-adv-x="600"
                   d="M0 120l59 17v502l-58 12l-1 130l236 -13q71 -5 128.5 -25t99 -54.5t64.5 -84.5t25 -115q0 -21 -2.5 -47t-7.5 -57q-9 -61 -73 -103q0 -1 6.5 -23.5l14.5 -49.5l21 -72q3 -1 7 -2q4 -2 9 -3.5t13 -3.5q16 -5 22 -6l8 -2v-50v-50h-34h-73h-74h-33l-9 33q-4 17 -9 35.5
l-10 38.5l-20 75q-2 8 -4 14.5t-3 11.5q-2 5 -2 8q-29 -2 -63 0v-99l59 -17v-100h-296v100zM236 374q0 -1 10.5 -2t26 0.5t33.5 6t33.5 15.5t25.5 30t9 48q-1 44 -22.5 65t-47 28t-47 6l-21.5 -1v-196z"/>
            <glyph glyph-name="R" unicode="R" horiz-adv-x="600"
                   d="M0 120l59 17v502l-58 12l-1 130l236 -13q71 -5 128.5 -25t99 -54.5t64.5 -84.5t25 -115q0 -21 -2.5 -47t-7.5 -57q-9 -61 -73 -103q0 -1 6.5 -23.5l14.5 -49.5l21 -72q3 -1 7 -2q4 -2 9 -3.5t13 -3.5q16 -5 22 -6l8 -2v-50v-50h-34h-73h-74h-33l-9 33q-4 17 -9 35.5
l-10 38.5l-20 75q-2 8 -4 14.5t-3 11.5q-2 5 -2 8q-29 -2 -63 0v-99l59 -17v-100h-296v100zM236 374q0 -1 10.5 -2t26 0.5t33.5 6t33.5 15.5t25.5 30t9 48q-1 44 -22.5 65t-47 28t-47 6l-21.5 -1v-196z"/>
            <glyph glyph-name="A" unicode="A" horiz-adv-x="694"
                   d="M118 779l365 -21l119 -623l59 -18l-1 -99h-42h-91h-91h-41l1 99l56 18l-30 131h-172l-31 -131l57 -18l1 -108q-12 1 -35 -2.5t-52 -7.5t-60.5 -7.5t-58 -2.5t-46 7t-24.5 22v99l61 18l130 532l-68 -3zM315 620l-47 -197l-2 -41l141 1v43l-32 194h-60z"/>
            <glyph glyph-name="B" unicode="B" horiz-adv-x="672"
                   d="M276 458l13.5 -1.5t33 -0.5t43 4.5t43.5 12.5t33.5 25.5t13.5 42.5v19q0 -1 0 4.5t-1 16.5q-1 24 -12.5 38t-28.5 19.5t-38 4.5t-40.5 -7t-35.5 -15.5t-24 -19.5v-143zM209 -10q-35 6 -79.5 17t-89.5 10v100l60 17l-1 502l-58 12l-1 130l236 -20q174 48 241 -6
q68 -54 78 -136v-2q4 -41 0.5 -70.5t-12.5 -50.5t-22 -33t-26 -16q15 1 25.5 -4t15.5 -8q25 -20 44 -125q21 -105 -46 -205q-41 -61 -139 -95q-99 -35 -226 -17zM274 129q19 1 38.5 1.5t38.5 0.5q47 1 91 42q44 42 29 135q-2 12 -12 21t-24 15t-31.5 9t-35.5 5q-42 4 -95 0z
"/>
            <glyph glyph-name="C" unicode="C" horiz-adv-x="638"
                   d="M608 509h-120l-36 135q-5 -1 -11 -1q-5 0 -13 -0.5t-19 -0.5q-41 -1 -94 -17q-74 -20 -96 -90q-11 -35 -17.5 -72t-7.5 -77q-2 -80 18 -136q19 -56 99 -78q54 -14 95 -14q11 0 19.5 0.5t13.5 0.5h11l39 137h117l-37 -240q-61 -7 -113 -23q-25 -7 -58.5 -10.5t-76.5 -2.5
q-145 2 -235 65q-92 64 -87 303q1 114 48 218q46 103 140 143q61 24 128.5 29.5t124 1.5t93 -11l36.5 -7z"/>
            <glyph glyph-name="E" unicode="E" horiz-adv-x="620"
                   d="M591 275l-40 -255h-551v100l60 17v502l-60 12v130l236 -13h315l40 -256h-118l-39 138l-198 -20l1 -177h196l5 -119h-201l-1 -176l198 -20l39 137h118z"/>
            <glyph glyph-name="H" unicode="H" horiz-adv-x="703"
                   d="M0 120l59 17l1 502l-60 12v130l237 -13l-1 -276h197v276h177v-631l59 -17v-100h-295v100l59 17v217h-197l1 -217l59 -17v-100h-296v100z"/>
            <glyph glyph-name="K" unicode="K" horiz-adv-x="600"
                   d="M0 120l60 17v502l-60 11v131l237 -14l-1 -266v-30l40 1l11 39l71 256l210 14v-131l-61 -11l-74 -226l79 -276l59 -18v-99h-34h-73h-38.5t-35.5 -1h-33l-81 315h-39v-197l59 -17v-100h-47h-102h-101h-46v100z"/>
            <glyph glyph-name="M" unicode="M" horiz-adv-x="786"
                   d="M0 120l59 17l1 502l-60 12v130l237 -13l59 -40l78 -276l79 276l59 40h178l-1 -631l60 -17l-1 -100h-295v100l59 17l1 356l-60 -218l-79 -8l-79 8l-59 216l1 -354l59 -17v-100h-296v100z"/>
            <glyph glyph-name="T" unicode="T" horiz-adv-x="797"
                   d="M233 119l59 19v498l-131 13l-40 -143h-119l41 276l235 -15l441 1l40 -262h-117l-40 145l-132 -13v-499l59 -20v-99h-296v99z"/>
            <glyph glyph-name="X" unicode="X" horiz-adv-x="673"
                   d="M214 20h-214v99l59 19l80 276l-74 225l-62 12v130l210 -14l83 -294h50l82 294l210 1v-117l-62 -12l-74 -225l80 -276l59 -19v-99h-214l-81 314h-33q1 1 7 1q7 0 7 -1h-31z"/>
            <glyph glyph-name="one" unicode="1" horiz-adv-x="443"
                   d="M422 120v-17.5t-1 -36.5q-1 -12 -1 -20.5v-14.5v-11h-46h-101h-101h-46l1 100l59 14v509l-29 5l-38 -139h-119l43 272l162 -4l158 -13v-635q3 0 7 -1t9 -2t13 -2q8 -2 13 -2t9 -1t8 -1z"/>
            <glyph glyph-name="two" unicode="2" horiz-adv-x="519"
                   d="M41 754q205 57 316 -3q111 -58 134 -199q0 -1 1 -2q3 -105 -31 -180q-32 -73 -74 -124q-20 -25 -39.5 -43t-36.5 -30l-15 -10t-11 -7q-5 -4 -8 -6q3 0 8 -1q7 -1 25 -3l73 -7q20 -2 38.5 -3.5t35.5 -3.5q8 -1 14.5 -1.5t11.5 -0.5q5 -1 8 -1q-1 -6 -2 -14q-2 -7 -3.5 -17
l-3.5 -24l-3.5 -24l-2.5 -17q-1 -8 -2 -14h-74h-163h-163q-19 0 -32.5 0.5t-22.5 0.5h-18v49v50q1 3 5 7q2 4 6.5 9t9.5 13q5 7 9.5 12.5t7.5 9.5q4 4 5 7h18h18q90 38 166 156q78 119 90 206v3q-3 90 -74 95q-70 6 -107 0l-36 -128h-119z"/>
            <glyph glyph-name="three" unicode="3" horiz-adv-x="513"
                   d="M0 632v139q8 0 55 6t49 7q137 44 236 4q99 -39 113 -191q8 -104 -35 -167l-1 -1q35 -15 53 -98q19 -83 -15 -165t-139 -128q-103 -46 -316 11v50v50l99 39q56 -16 97.5 -13t68 17.5t39 37t10 45.5t-19 43.5t-47.5 30.5q-1 -1 -23.5 -0.5t-50.5 1.5q-33 1 -74 1l8 134
q0 -1 21.5 -1t48 0.5t48 0.5h21.5q48 15 50 54q2 44 -5.5 71.5t-20 42t-29 19t-32.5 3.5t-29.5 -5l-20.5 -6q-12 -5 -23 -8.5t-19 -6.5l-17 -7z"/>
            <glyph glyph-name="five" unicode="5" horiz-adv-x="556"
                   d="M494 509l-124 23l-37 131l-162 -19q-3 -49 -6 -89q-1 -17 -2.5 -33t-2 -28.5t-1 -20l-0.5 -7.5q9 0 86 27t162 5q51 -14 83 -85q33 -71 36 -138q3 -61 -21 -117.5t-81.5 -93t-152 -44t-232.5 29.5q-1 4 -2 9t-1.5 11.5t-2.5 16.5l-13 83l-13 84q-2 9 -3 16t-2 12t-1 10
h60h61q1 -7 4 -16l5 -19.5t8 -27.5t8 -27t5 -19q3 -9 5 -16q122 -18 165 16t44 80q4 130 -195 72h-1q0 -1 -36 -1q-17 1 -50.5 1h-83.5q1 6 1 17v21.5t1 30.5l4 154l4 154q0 17 0.5 30.5t0.5 22.5q0 11 1 17l6.5 -1t17.5 -1.5t25.5 -1.5l29.5 -2q35 -3 80 -5q112 1 195 0h84
z"/>
            <glyph glyph-name="six" unicode="6" horiz-adv-x="609"
                   d="M449 638q-110 12 -195 -29q-83 -41 -71 -192q29 50 77 63q51 14 91 14q107 0 162 -67q57 -67 61 -146q6 -106 -80 -196q-86 -89 -285 -61q-109 16 -166 158t-34 293q24 151 144 252q120 100 366 33zM314 351q-22 0 -41 -8t-33.5 -22t-22.5 -33t-8 -40t8 -39.5t22.5 -33
t33.5 -22.5t41 -8q21 0 40 8t33.5 22.5t22.5 33t8 39.5t-8 40t-22.5 33t-33.5 22t-40 8z"/>
            <glyph glyph-name="seven" unicode="7" horiz-adv-x="491"
                   d="M449 20h-47h-102h-102h-46l1 99l59 20l40 197l6 45l13 100l14 100q2 11 2.5 20t1.5 15q1 7 2 11l-136 11l-36 -129h-118l40 272l235 -12h192v-121l-78 -510l58 -18z"/>
            <glyph glyph-name="eight" unicode="8" horiz-adv-x="568"
                   d="M268 780q104 6 159 -46q57 -53 78 -120t12 -128q-7 -61 -36 -73q20 -10 40 -74q20 -63 9 -134t-68 -128q-56 -57 -186 -57q-149 0 -207 57q-58 58 -67 129q-8 74 13 134q21 64 33 74q-34 63 -31 130t34.5 121.5t88 87.5t128.5 27zM166 561q-14 -79 29 -92q43 -14 81 -12
q42 2 76 22q36 21 17 91q-7 24 -23.5 39.5t-38 22.5t-45 5.5t-44 -10.5t-35 -25.5t-17.5 -40.5zM164 232q4 -28 18.5 -48t34.5 -31t43.5 -12.5t45 6.5t38.5 26.5t24 47.5q18 82 -18 107q-33 24 -76 26q-38 1 -81 -15q-42 -16 -29 -107z"/>
            <glyph glyph-name="_127" horiz-adv-x="609"
                   d="M117 186q111 -12 194 29q84 40 72 192q-29 -50 -78 -63q-51 -14 -90 -14q-107 0 -162 66q-57 69 -61 147q-6 107 79 195q86 91 286 62q109 -16 166 -159q57 -142 33 -293q-23 -150 -143 -251t-366 -33zM252 473q22 0 41 8t33.5 22t22.5 33t8 40t-8 39.5t-22.5 33
t-33.5 22.5t-41 8q-21 0 -40 -8t-33.5 -22.5t-22.5 -33t-8 -39.5t8 -40t22.5 -33t33.5 -22t40 -8z"/>
            <glyph glyph-name="nine" horiz-adv-x="609"
                   d="M117 186q111 -12 194 29q84 40 72 192q-29 -50 -78 -63q-51 -14 -90 -14q-107 0 -162 66q-57 69 -61 147q-6 107 79 195q86 91 286 62q109 -16 166 -159q57 -142 33 -293q-23 -150 -143 -251t-366 -33zM252 473q22 0 41 8t33.5 22t22.5 33t8 40t-8 39.5t-22.5 33
t-33.5 22.5t-41 8q-21 0 -40 -8t-33.5 -22.5t-22.5 -33t-8 -39.5t8 -40t22.5 -33t33.5 -22t40 -8z"/>
            <glyph glyph-name="_57" unicode="9" horiz-adv-x="609"
                   d="M117 186q111 -12 194 29q84 40 72 192q-29 -50 -78 -63q-51 -14 -90 -14q-107 0 -162 66q-57 69 -61 147q-6 107 79 195q86 91 286 62q109 -16 166 -159q57 -142 33 -293q-23 -150 -143 -251t-366 -33zM252 473q22 0 41 8t33.5 22t22.5 33t8 40t-8 39.5t-22.5 33
t-33.5 22.5t-41 8q-21 0 -40 -8t-33.5 -22.5t-22.5 -33t-8 -39.5t8 -40t22.5 -33t33.5 -22t40 -8z"/>
            <glyph glyph-name="zero" unicode="0" horiz-adv-x="578"
                   d="M278 626q-102 0 -102 -232q0 -117 19.5 -179t77.5 -62q30 0 49.5 17t31 49.5t16 78.5t4.5 104q0 117 -21.5 170.5t-74.5 53.5zM550 393q1 -170 -58 -272q-58 -99 -206 -101q-124 0 -207 62q-83 64 -79 308q2 116 40 218q40 103 120 142q33 17 70 26.5t72 6.5
q94 -9 171 -86q75 -75 77 -304z"/>
            <glyph glyph-name="O" unicode="O" horiz-adv-x="684"
                   d="M650 417q1 -170 -70 -284q-71 -113 -243 -113q-146 -1 -244 74t-93 320q1 114 47 213q47 98 141 137q34 14 70.5 20t73.5 7q178 3 247 -107q70 -110 71 -267zM328 650q-134 0 -134 -232q0 -118 25 -178q26 -62 102 -62t103 66q28 65 28 183q0 116 -27.5 169.5t-96.5 53.5
z"/>
            <glyph glyph-name="numbersign" unicode="#" horiz-adv-x="935"
                   d="M919 592q0 -47 -22 -82q-9 1 -16 1h-11q-8 0 -23.5 -1t-23.5 -1q-14 0 -42 3q-27 3 -41 3q-21 0 -41 -5q-1 -9 -2.5 -19.5t-4.5 -22.5l-9.5 -19.5l-12.5 -27.5q-1 -2 -4 -14.5t-10 -36.5q-4 -14 -9.5 -26.5t-12.5 -23.5q25 3 42 3q8 0 22.5 -2.5t22.5 -2.5q6 0 16 0.5
t20.5 1.5t21 1.5t16.5 0.5q10 0 17.5 -0.5t14.5 -1.5q-4 -64 -11 -75q-4 -9 -16 -12q-31 7 -53 7q-8 0 -20 -1t-29 -3t-29.5 -3t-20.5 -1h-27q-10 0 -16 1q-1 -11 -3.5 -26t-7.5 -35q-5 -5 -12 -18q-2 -11 -6 -28.5t-10 -40.5q-5 -8 -11.5 -19.5t-14.5 -27.5l-14.5 -37.5
l-19.5 -53.5l-31 4l-20 -15l-52 11q0 23 13 50q8 8 22 31q2 12 6.5 30l10.5 42q2 10 6.5 24.5t9.5 34.5q7 10 18 35q2 10 4 19t4 19q-19 2 -28 2.5l-9 0.5l-16.5 -1.5t-50.5 -5.5l-38 15l-38 -11q1 -1 1 -5q0 -10 -9 -35q-11 -14 -25 -41q-1 -4 -3 -15.5t-6 -30.5
q-3 -21 -20 -46q-2 -4 -4 -8.5l-5 -11.5q-2 -18 -12 -51l-10.5 -24t-8.5 -17h-9h-12t-13 -1q-5 0 -17 -2.5t-19 -2.5q-8 0 -30 6l19.5 60.5t15.5 41.5q2 7 18 20q13 13 13 24q0 1 -1 1q-2 0 -8.5 -4.5t-8.5 -4.5q-1 0 -1 1q0 4 21 54q11 25 16.5 40.5t6.5 20.5q1 9 3 31
q-7 1 -15 1.5t-19 0.5q-5 0 -13.5 -1t-17.5 -1.5t-17.5 -1.5t-14.5 -1t-17.5 3t-17.5 3q-5 0 -15 -3t-15 -3q-10 0 -31 3q0 15 9.5 29.5t10.5 20.5q2 8 4 18t6 21q6 -1 13.5 -1.5t17.5 -0.5q12 0 25.5 4t19.5 4q5 0 14 -3t14 -3q8 0 23.5 3.5t23.5 3.5q14 0 39 -7
q12 21 22 51q0 9 5 32q7 13 15 33l18 46l6 27q-13 1 -28 1h-31q-5 0 -13.5 -1t-13.5 -1q-9 0 -27.5 3.5t-27.5 3.5q-16 0 -49 -6q13 25 13 34q0 2 -1 7.5t-1 8.5q0 10 18 33q40 8 73 8q8 0 22 -1.5t19 -1.5q14 -1 34 -2t48 -3q12 8 20 28l5 34q2 12 10.5 30t23.5 55
q0 11 2 26t6 35q2 5 5 14t5 22q3 15 21 41q32 8 48 8q10 0 23 -2t30 -6q-5 -22 -12.5 -46.5l-16.5 -52.5q-6 -14 -14 -36l-19 -53q-4 -19 -12 -49q-4 -8 -8.5 -20t-11.5 -29q10 3 30 3q6 0 14.5 -1t18 -2t18 -2t14.5 -1q8 0 24.5 3t24.5 3q15 0 38 -3q4 18 21 53
q10 15 25 49q2 9 3 20q0 2 12 44q1 9 6 31q5 8 10.5 21l12.5 30q2 10 4.5 19.5l4.5 17.5q17 4 39 4q7 0 19 -2.5t16 -2.5q3 0 9 2t9 2q9 0 9 -6q0 4 -13 -42q-1 -5 -1.5 -12t-2.5 -17q-4 -5 -8 -13.5l-9 -19.5q-2 -9 -4.5 -22t-6.5 -30q-5 -8 -10.5 -19t-13.5 -25
q-19 -42 -26 -82l27 3.5t20 1.5q6 0 18 -2t18 -2q9 0 26 2t26 2q16 0 29.5 -1.5t25.5 -3.5zM591 510q-18 -3 -42 -3q-11 -2 -28 2.5t-33 6.5q-30 0 -75 -6q-4 -12 -7 -35l-7 -14.5l-9 -19.5q-1 -8 -3.5 -19.5t-6.5 -27.5q-2 -8 -11 -26.5l-23 -47.5q30 6 44 6q6 0 15.5 -1
l19 -2l18.5 -2t15 -1q7 0 19.5 4t18.5 4q19 0 33 -8q3 18 9 41q1 5 3 14t4 20q7 21 22 34q16 15 16 16v1q0 2 -8 2.5t-8 7.5q0 6 9 27q10 21 15 27z"/>
            <glyph glyph-name="dollar" unicode="$" horiz-adv-x="675"
                   d="M658 315q-1 -2 -1 -4q0 -1 -1 -3v-53q0 -6 -7 -27q-1 -2 -2 -4.5t-2 -6.5l-9 -39q-6 -25 -47 -76q-2 -4 -6.5 -8.5l-9.5 -9.5q-8 -5 -8 -11l-4 -1q-1 -2 -2 -3.5t-3 -3.5l-39 -33q-47 -32 -138 -39q-12 -17 -8 -31q15 -62 15 -65t-1 -5v-5q0 -6 1 -18t1 -18
q0 -38 -25 -50l-21 -10q-7 -4 -19 -4h-15q-6 0 -11 1v4q-30 1 -42 39q-8 27 -8 51q0 37 13 73q2 2 2 8q0 8 -5 23q-2 2 -3.5 4.5t-3.5 6.5q-17 2 -32 11q-29 5 -71 15q-27 13 -77 51v2l-10 10q-2 6 -4 9q-38 64 -38 101q0 73 34 106q28 28 56 28q44 0 74 -18q55 -33 55 -61
q0 -13 -6 -41q-6 -27 -6 -37q0 -50 25 -50q16 0 16 47v7q0 5 -1 11v17v13q0 7 1 14q2 20 3 28.5t1 4.5q0 -2 -0.5 2.5t-1.5 12.5t-2 18.5l-2 21.5q-5 31 -14 41q-3 7 -6 8l-19.5 10l-27.5 14q-2 2 -5 4t-8 5q-61 37 -94 81v2l-13 17.5l-18 24.5l-5 13l-15 39q-1 5 -2 11
t-3 13q-1 1 -1 60l16 55q8 25 20 36q9 8 18 15l18 14q2 3 5.5 6.5t8.5 7.5q12 10 54 26q45 18 62 18h23q16 2 20 9l13 19q12 17 58 17q28 0 39 -10q7 -6 11 -19t10 -16q40 -8 66 -15l10.5 -4.5t31.5 -12.5q3 -1 45 -35q41 -33 41 -63q0 -13 -10 -37t-18 -29q-4 -2 -8.5 -4.5
t-9.5 -6.5q-29 -18 -38 -18q-42 0 -65 38l-15 25l-9 15q-20 29 -34 34q-9 -14 -8 -24q4 -26 5.5 -39.5l1.5 -13.5q0 -6 -1.5 -17l-3 -22t-2.5 -22t-1 -17q0 -20 10 -27q2 -2 9 -4.5t20 -6.5l54 -18q6 -2 12 -7q4 -3 27 -11t49 -28q7 -5 14 -11l15 -13q24 -18 44 -63
q13 -27 13 -35l1 -25zM282 653q0 8 -3 25.5t-3 25.5q0 4 1 13t1 13q0 15 -9 15q-4 0 -13 -6q-44 -32 -44 -85q0 -31 26 -54q13 -11 21 -11q12 0 18 32q5 28 5 32zM457 214q0 40 -10 50q-8 24 -63 34q-6 -9 -7.5 -16t-0.5 -17q1 -8 1 -13v-6q0 -7 -1 -20.5t-1 -20.5v-8
q0 -4 1 -11v-20q0 -5 -2 -15.5t-2 -16.5q0 -14 15 -14q19 0 48 39q22 29 22 55z"/>
            <glyph glyph-name="percent" unicode="%" horiz-adv-x="868"
                   d="M842 762q0 -43 -17 -57q-8 -7 -20 -16l-28 -21q-11 -5 -31 -17q-26 -20 -48 -42q-3 -5 -7.5 -11.5t-11.5 -14.5q-12 -12 -55 -46q-8 -5 -19 -14l-25 -21q-5 -7 -12 -16l-17 -21l-15 -14.5l-17 -16.5l-17 -17.5l-47 -48.5l-3 -1l-34 -42l-46 -59q-6 -10 -17 -19
q-14 -11 -16 -13q-11 -12 -23.5 -24t-26.5 -24q-12 -10 -23 -28q-7 -11 -12 -17.5t-7 -9.5q-9 -9 -22 -25q-2 -3 -4 -7.5t-6 -10.5q-5 -8 -13 -19.5t-19 -25.5l-7.5 -7l-21.5 -21q-23 -22 -40 -22q-18 0 -47 23q-27 24 -27 43q0 6 29 56q9 16 49 46q5 4 44 52q2 2 9 8l20 17
q4 5 12 13.5t24 23.5l10 12l14 17l16 12l22 18q15 17 46 49l5 1q7 11 20 23t32 26q9 6 15 19.5t8 15.5l46 47l13 13.5l18 19.5l4.5 7t14.5 21q6 12 45 44q24 21 36 42q1 2 3 5t4 7q18 15 18 22q0 15 -29 15q-17 0 -26 -4q-5 -3 -6 -3q-28 0 -57 1.5t-61 5.5q-11 0 -11 -7
q0 -3 16 -36q4 -8 4 -30q0 -45 -21 -78l-25.5 -39.5t-9.5 -14.5q-22 -29 -48 -41q-49 -23 -67 -28q-11 -2 -29 -3.5t-44 -1.5q-25 0 -94 31q-21 18 -51 52q-10 15 -18.5 31.5t-16.5 35.5q-5 15 -5 27q0 70 19 102l24 42q4 7 7 10q10 7 32 26q2 1 15 7t38 19q30 15 85 15
q1 0 6.5 -1t15.5 -3q7 -1 16 -3t22 -4q5 -2 14 -4t20 -5q18 -2 50 -6q10 -2 33 -6h15q4 -1 9 -1.5t12 -2.5h35h13q10 0 27 -1v-2h31v2q26 2 39 3.5l13 1.5l6 -1l18 -3q4 4 42 7q34 4 44 3l54 23q18 -3 40 -3q29 0 29 -62zM849 192l-5 -28q-2 -13 -14 -35.5t-32 -54.5
t-31 -40q-12 -9 -48 -23q-54 -20 -64 -20h-59l-4.5 0.5t-14.5 1.5l-24 11.5l-34 15.5q-7 3 -16 13q-6 7 -9.5 10.5l-4.5 4.5q-4 3 -7 6t-7 6q-10 14 -17.5 26.5t-14.5 25.5q-20 41 -19 55q1 25 2 41t2 24q2 16 7 31.5t12 29.5h1q7 13 27 43q15 15 54 34q5 2 11.5 5.5
l15.5 8.5q28 15 79 15q38 0 118 -28v-2l33 -27q15 -12 26.5 -29t20 -37t12.5 -41.5t4 -42.5zM316 594q0 53 -30 94q-33 45 -85 45q-50 0 -50 -76q0 -47 23 -85q27 -43 72 -43q31 0 50.5 17.5t19.5 47.5zM720 158q0 53 -30 97q-35 48 -86 48t-51 -86q0 -49 23 -86
q27 -43 74 -43q70 0 70 70z"/>
            <glyph glyph-name="ampersand" unicode="&#x26;" horiz-adv-x="1326"
                   d="M1013 0q-9 0 -23 1.5t-34 5.5q-7 2 -18 4.5t-25 6.5q-10 1 -23.5 2.5t-32.5 4.5q-13 8 -37 18q-29 11 -53 8q-5 -3 -13.5 -7l-19.5 -9q-2 -1 -6 -1.5t-9 -2.5q-17 -8 -51 -21q-2 -1 -5 -1t-6 -1l-34.5 -5t-48.5 -6h-17q-3 0 -13.5 -3t-15.5 -3q-58 0 -123 20
q-23 17 -43.5 36t-37.5 41q-24 61 -24 93q0 28 12 49q2 2 9.5 12.5l21.5 29.5q14 18 27 26.5t26 15.5q9 5 20 22q4 5 4 11q0 8 -7 12l-32 21q-4 2 -8 7t-9 13l-1.5 3t-3.5 9q-31 75 -31 98q0 20 23 71q2 4 4 7t4 5q13 16 39 42l15.5 10.5l46.5 32.5l9 4.5t12 6.5q2 2 6.5 4
t10.5 6q6 6 11 7q9 3 22.5 6.5t30.5 7.5h30q78 0 100 -14q6 -4 19.5 -12l35.5 -21q7 -4 35 -37l10 -12q5 -7 11 -18t11 -28q12 -32 12 -48q0 -31 -11 -75q-10 -46 -28 -67l-50 -50q-6 -6 -6 -17q0 -13 7 -37q8 -31 15 -32q18 -15 33 -22q5 -1 13 -1t21 -1q8 0 46 36
q7 12 21 29q13 11 14 16q24 69 24 70q0 11 -0.5 25t-1.5 31q-6 37 -25 90q-2 4 -5.5 10t-7.5 14q-2 7 -6 17q-1 1 -9 11.5l-25 32.5l-4.5 7t-6.5 9q-5 5 -13 12t-18 17l-10.5 12.5l-14.5 17.5q-16 12 -51 31q-36 19 -54 22q-10 0 -24 0.5t-33 1.5q-2 0 -12 3t-12 3
q-28 0 -62 -6q-8 -2 -19.5 -5.5t-27.5 -7.5h-7q-4 0 -9 -1q-33 -6 -49 -17q-8 -5 -19 -13.5l-25 -19.5q-6 -5 -15 -11.5t-21 -16.5q-5 -4 -14.5 -13l-25.5 -25q-17 -23 -48 -84q-4 -9 -9.5 -22.5t-13.5 -30.5q-23 -54 -24 -55q-9 -26 -9 -57v-43q0 -4 -1.5 -12.5t-1.5 -13.5
q0 -41 16 -82q11 -26 40 -54q6 -6 9 -7l27 -11q28 -10 28 -62q0 -29 -16.5 -48.5t-45.5 -19.5q-19 0 -38 16l-15.5 15l-15.5 15q-11 8 -26 20l-33 26q-5 5 -16.5 20.5t-30.5 43.5q-9 13 -11.5 23t-12.5 28q-2 6 -5 10q-27 82 -27 95v12t1 37l2 3q0 9 0.5 22.5t1.5 31.5
q0 4 9 37l7.5 26t3.5 11q7 16 24 48q1 3 3 7t4 9q7 8 16.5 20l22.5 29l20.5 30l29.5 42q6 2 20 20q7 9 12 14.5t7 7.5q14 11 27 19.5t25 15.5l29.5 12l40.5 17l93 43q12 6 40 12q118 6 120 6q7 0 17 -1t24 -3q28 -3 42 -3q10 0 31 2.5t31 2.5q19 0 45 -12l42 -21l17 -7.5
t24 -11.5q5 -5 12.5 -11l17.5 -14q6 -3 15 -8.5t20 -13.5l24 -24l12 -9.5t15 -13.5l10 -13l14 -19l49.5 -64t20.5 -26q34 -53 34 -107q0 -4 -0.5 -9t-1.5 -11q-4 -15 -4 -20v-10q0 -5 -1 -13q-2 -8 -5 -19t-6 -26q-1 -11 -2 -17.5t-2 -9.5q-1 -5 -3.5 -11.5t-6.5 -14.5
q-37 -70 -97 -113q-36 -26 -36 -42t14 -21.5t28 -9.5q27 -9 25 -9q8 0 65 16q5 1 29 20q22 19 26 26q19 32 19 43q0 10 -22 28q-22 20 -24 26q-2 10 -2 49q0 4 13 42q4 11 7 21t14 22q8 10 14.5 15.5t10.5 7.5q4 3 32 10q10 2 15 3.5t7 1.5q22 0 63 -38l9 -9t11 -13h1
q25 -37 25 -82q0 -21 -1 -37.5t-3 -27.5q-1 -2 -4 -14t-10 -34q-4 -12 -12.5 -28.5t-22.5 -36.5q-27 -39 -72 -65l-42 -24.5l-49 -27.5q-13 -5 -26 -8t-26 -5h-28zM671 521q0 5 -2.5 13.5t-2.5 11.5q-5 28 -15 41q-10 12 -35 25q-13 7 -20 7q-5 0 -24 -8l-8 -8
q-8 -4 -22 -30q-12 -24 -12 -35q0 -22 17 -47.5t38 -40.5q31 -22 38 -22q17 0 32 24q16 23 16 42v27zM615 143q0 5 -23 31q-11 13 -19 21t-13 12q-2 2 -6 4.5t-9 6.5q-22 17 -26 17q-17 0 -17 -31q0 -34 22 -56.5t56 -22.5q35 0 35 18z"/>
            <glyph glyph-name="asterisk" unicode="*" horiz-adv-x="399"
                   d="M382 685q0 -19 -7 -33q-9 -20 -25 -20q-10 0 -30 4t-30 4q-9 0 -9 -5q0 -2 21 -23q22 -19 22 -43q0 -14 -10.5 -20.5t-28.5 -20.5q-17 -17 -32 -17q-14 0 -29 19q-10 11 -17 47q-1 10 -7 10q-7 0 -14 -30q-6 -9 -16 -21q-15 -18 -36 -18q-8 0 -14 5.5l-12 11.5
q-12 7 -23.5 15.5t-11.5 23.5q0 13 17 30q7 7 14 13t14 13q-2 5 -5 5q-8 0 -26 -6.5t-29 -6.5q-19 0 -35 16h2q-8 24 -8 50q0 30 24 32l-2 4q5 1 9 1h10q10 0 15 -4q10 -1 18 -1.5t13 -0.5h1q2 0 5 1v1q0 9 -22 24q-21 15 -21 37q0 12 5 19t12.5 11.5t16 8.5t16.5 11
q8 5 23 5q17 0 32 -15t18 -32q1 -4 1 -8t1 -8q0 -1 8 -12q1 1 1.5 2t1.5 2q21 47 22 48q16 28 42 28q8 0 20.5 -7.5t36.5 -23.5q8 -5 8 -22q0 -24 -18 -39q-17 -13 -19 -24l14 1q20 11 25 11q27 0 45 -24q3 -15 3 -29z"/>
            <glyph glyph-name="colon" unicode=":" horiz-adv-x="255"
                   d="M237 479q0 -24 -10 -45q-11 -24 -30 -35q-5 -2 -15 -11v-2q-3 -2 -30 -12l2 3h-8q-4 0 -10 -1q-1 0 -4 -1t-4 -1q-2 0 -6 0.5t-10 1.5q-36 6 -38 7q-16 6 -30 26h-1l-2 3l-12.5 26l-4.5 9q-6 18 -5 40h1q2 2 2 3q0 2 -2 4l18 51q12 18 40 34q23 13 36 13q4 0 12.5 -2
t12.5 -2l27 -1q9 0 23 -11q48 -41 48 -97zM237 97q0 -22 -11 -46t-28 -34q-17 -9 -16 -15h-6l-22 -8q-4 0 -12.5 -1t-13.5 -1q-62 0 -84 34h-1l-2 4q-2 1 -12 21q-11 23 -10 53h1q2 2 2 5l-2 4q1 2 12 32q10 26 16 32q4 4 30 20q19 12 36 12q5 0 13 -2t12 -2h11q7 0 16 -1
q9 0 23 -12q48 -41 48 -95z"/>
            <glyph glyph-name="semicolon" unicode=";" horiz-adv-x="267"
                   d="M236 479q0 -24 -10 -45q-11 -24 -30 -35q-5 -2 -15 -11v-2q-3 -2 -30 -12l2 3h-8q-4 0 -10 -1q-1 0 -4 -1t-4 -1q-2 0 -6 0.5t-10 1.5q-36 6 -38 7q-16 6 -30 26h-1l-2 3l-12.5 26l-4.5 9q-6 18 -5 40h1q2 2 2 3q0 2 -2 4l18 51q12 18 40 34q23 13 36 13q4 0 12.5 -2
t12.5 -2l27 -1q9 0 23 -11q48 -41 48 -97zM213 -73q-14 -22 -22.5 -34l-10.5 -15q-13 -16 -47 -28q-18 -7 -22 -7q-10 0 -16 6q-24 7 -24 32t23 51q24 25 24 47q0 17 -12 22q-3 2 -28 7q-37 7 -49 42q-8 24 -8 69h-3q11 55 25 62l4 2q1 6 9 12q7 4 10 6t4 3h5v3l2.5 0.5
t7.5 2.5q2 1 28 1q4 0 13 1.5t14 1.5q19 0 60 -31q15 -11 21 -17q4 -4 7.5 -9.5t7.5 -12.5h1q12 -32 12 -55v-23q0 -21 -1 -64q0 -20 -21 -57q-11 -18 -14 -18z"/>
            <glyph glyph-name="less" unicode="&#x3c;" horiz-adv-x="378"
                   d="M360 62q-58 -25 -84 -79q-3 34 -21 55q-11 13 -46 39q-96 72 -109 127q-2 6 -3 6q-4 15 -63 65l5 12q-1 18 -14 54v18l-10 9l22.5 26.5t25.5 28.5l3 5q16 15 42 45q5 9 12 20t17 25l1 3l9 5q0 1 -1 3t-1 3q0 11 35 31q7 4 34 31q14 14 22.5 23.5t13.5 14.5q16 21 26 46
q12 -14 22.5 -24.5t20.5 -15.5q6 -3 19 -12q4 -4 9.5 -10.5l12.5 -15.5q-33 -41 -78 -66v-3q-7 -7 -16 -52l-5 8l-46 -54q-8 -13 -21.5 -31t-30.5 -43l-38 -20l28 -20q5 -14 20 -31q16 -16 21 -28v-3l3 -1l-13 -1l38 -16l-2 -6h2q5 -7 13.5 -17.5l20.5 -24.5q5 -4 10.5 -9.5
t11.5 -12.5q1 -1 1 -3t1 -4q2 -5 40 -40l13 -12.5t18 -18.5q7 -9 9 -29z"/>
            <glyph glyph-name="greater" unicode="&#x3e;" horiz-adv-x="378"
                   d="M353 359q2 -13 -5 -35q-4 -14 -5.5 -23t-2.5 -14l4 -12q-57 -48 -63 -65q-2 0 -3 -6q-13 -56 -108 -127q-36 -27 -46 -39q-18 -21 -22 -55q-25 55 -84 79l2 10.5t3 11.5q4 12 39 42q35 31 38 43q11 9 32 32q21 22 24 32h3l-3 6l38 16l-12 1l2 1v3q2 5 7 12.5t13 15.5
q17 18 21 31l29 20l-39 20q-2 2 -14.5 20.5l-37.5 53.5v1l-45 53l-6 -8q-2 14 -5 28t-10 24v3q-42 25 -79 66l10 12.5t12 13.5q4 4 19 12q22 12 43 40q15 -34 63 -85q4 -4 9.5 -8.5t12.5 -11.5l11 -10q36 -21 36 -32v-1l-2 -4q10 -6 21 -24l12 -20t5 -9q13 -15 42 -45
q1 -1 1.5 -2t1.5 -2t13 -14.5t35 -41.5z"/>
            <glyph glyph-name="at.002" horiz-adv-x="951"
                   d="M699 66q-19 0 -58 12q-58 16 -82 89q-4 -7 -19 -25q-57 -69 -131 -69q-76 0 -120 56q-4 5 -9 12l-12 17q-1 2 -3 12t-4 28q0 4 -3 16t-3 19q0 4 2 10.5t2 10.5q1 11 3 22.5t4 24.5l3 21q14 66 63 118q12 12 44 38l35.5 28.5l18.5 14.5q30 18 66 18q6 0 17 1.5t17 1.5
q7 0 10 -1q9 -3 17 -17q4 -5 7 -10.5t7 -10.5q9 -7 29 -28q5 -9 13 -37l26 84q22 15 37 15q17 0 43 -15q-7 -38 -15.5 -69.5t-19.5 -54.5q-3 -6 -20 -26q-12 -15 -12 -27q0 -1 1 -4.5t1 -5.5q0 -12 -7 -30q-6 -20 -6 -26v-8q1 -4 1 -9q0 -1 -2 -5.5t-3 -6.5q-6 -26 -6 -41
q0 -29 18.5 -48.5t48.5 -19.5q18 0 48 9q59 20 98 115q20 49 20 134q0 103 -44 165q-8 12 -42 29q-39 19 -48 26q-12 14 -38 38q-16 13 -29 17q-51 22 -144 22q-69 0 -150 -34q-4 -1 -10 -2t-14 -3l-33 -15q-3 -3 -7.5 -7l-10.5 -9q-5 -2 -13 -6t-19 -9q-21 -16 -57 -56
q-17 -19 -29 -35t-20 -30q-6 -8 -13.5 -19t-15.5 -26q-1 -4 -1.5 -8.5t-2.5 -11.5q-5 -4 -15 -17q-19 -39 -20 -63l-3.5 -52.5t-1.5 -40.5q0 -74 42 -137q21 -31 51.5 -56l59.5 -49l16 -11.5l22 -15.5q112 -85 204 -85q63 0 174 33q7 1 16.5 3l23.5 5q13 1 40 9l17 12l24 17
q10 4 23.5 10l31.5 14l25 -33q-2 -2 -11.5 -8.5l-26.5 -17.5q-112 -76 -184 -85q-10 -1 -22.5 -1.5t-29.5 -0.5q-6 0 -52 -6q-25 0 -74 -3q-23 -2 -36.5 -3.5t-18.5 -1.5q-19 0 -39 5q-7 2 -15.5 7t-19.5 13q-12 9 -21 14.5t-14 7.5q-159 68 -217 182q-2 8 -5 19t-8 27
q-11 18 -27 52q-14 62 -14 147q0 70 22 123q5 11 14 26.5t20 36.5q2 9 9.5 25t35.5 51q31 39 84 79q72 54 125 70l14 5.5l20 7.5q22 2 65 8.5t109 6.5h17q9 -4 27 -7.5t54 -11.5q71 -18 78 -25q2 -3 10 -11l25 -21l25 -20q5 -4 11.5 -8.5l16.5 -11.5q4 -1 9.5 -3.5
t13.5 -6.5q10 -8 30 -34q46 -59 57 -126q2 -6 5.5 -15l8.5 -22q9 -33 9 -80q0 -34 -22 -75q-2 -5 -12 -22t-29 -46q-15 -29 -51 -78q-12 -21 -41 -53q-10 -7 -30 -7q-31 -2 -32 -2q-5 -1 -9 -1.5t-8 -0.5zM500 481q-27 0 -52 -21l-21 -20t-14 -17q-14 -20 -24 -54
q-5 -14 -9 -29l-8 -29q-24 -68 -24 -69q0 -5 2 -14.5t2 -13.5t-1 -11t-1 -11q0 -12 6.5 -23.5t16.5 -20t22.5 -14t24.5 -5.5q36 0 58 17q5 4 8.5 7.5t6.5 5.5l6.5 15.5t8.5 19.5q11 12 23 33l7.5 19.5t9.5 27.5q1 10 2.5 23.5t4.5 32.5q1 8 14 38q11 27 11 34q0 6 -4 18
q-9 34 -41 51q-19 10 -35 10z"/>
            <glyph glyph-name="asciicircum" unicode="^" horiz-adv-x="449"
                   d="M430 655q0 -13 -13 -13q-7 0 -22 1.5t-22 1.5t-22 -1.5t-22 -1.5q-23 0 -27 9q-1 2 -1.5 6t-2.5 9q-11 33 -65 106l-2 2q-6 9 -11 9q-2 0 -8 -7q-30 -34 -42 -77q-2 -7 -5.5 -16l-8.5 -22q-11 -17 -15 -20q-8 -5 -25 -5h-49q-38 0 -45 6q-3 1 -3 8q0 1 24 36
q25 34 84 129q11 19 38 17q5 -1 7 -1q3 0 2 0q11 4 35 9q14 1 29.5 1.5t31.5 1.5q30 -5 48 -26q4 -6 9 -15t13 -21l25 -32l25 -33q40 -52 40 -61z"/>
            <glyph glyph-name="underscore" unicode="_" horiz-adv-x="679"
                   d="M659 -156q0 -75 -129 -82q-45 -2 -67.5 -3.5l-22.5 -1.5q-31 0 -36 1q-17 2 -26 3.5l-9 1.5q-5 0 -11 -0.5t-14 -1.5q-10 -1 -16.5 -1.5t-9.5 -0.5l-20 -0.5t-60 -2.5q-2 0 -4 -1h-4l-91 2q-44 2 -80 29q-9 5 -19 20l-20 52l1 8l7 12q27 47 133 51q75 3 116 3q14 0 46 -3
q16 -2 27 -3t19 -1t24 2t24 2t25 -1.5t25 -1.5l15.5 0.5l47.5 1.5q4 0 36 -3q48 -5 67 -18q26 -20 26 -63z"/>
            <glyph glyph-name="grave" unicode="`" horiz-adv-x="308"
                   d="M289 667q0 -12 -20 -9q-17 2 -26 3.5l-9 1.5l-10.5 -1.5l-32.5 -4.5l-25 16l-16 21q-14 19 -51 44q-7 4 -15.5 11t-19.5 17h-3q-4 6 -23 28q-20 23 -20 30q0 19 21 19q7 0 16 -1.5l22 -3.5l22 -3.5t15 -1.5q15 0 39 7t38 7q9 0 12 -10q7 -26 20 -54t32 -58l10 -13.5
l10 -13.5q14 -20 14 -31z"/>
            <glyph glyph-name="bar" unicode="|" horiz-adv-x="173"
                   d="M152 347v-24q0 -9 -1 -14q-1 -8 -2 -20t-3 -28v-88q0 -6 -1 -19t-1 -20t3 -19.5t3 -17.5q0 -6 -3 -18.5t-3 -18.5t1 -11v-11q0 -27 -23 -27q-4 0 -11 2t-11 2q-23 0 -27 -4q-2 -2 -4 -3l-38 -9l-8 2l6 18l-3 13q2 11 3 16l1 5q0 2 -2.5 12.5t-2.5 17.5q0 4 1 5l3 12
q0 10 -1.5 29.5t-1.5 29.5l0.5 5.5t2.5 16.5q-2 -5 -3 32l-3 48q0 5 0.5 13t0.5 16q0 9 0.5 17t0.5 12v70q0 2 -1 7t-1 7q1 18 1 67v132v25q0 16 1 36q1 21 1.5 36.5t0.5 25.5q0 2 -1.5 6.5t-1.5 6.5v26q0 2 -0.5 6.5t-1.5 12.5q-1 5 -1.5 10t-0.5 9v7t1 17q1 12 11 20.5
t22 8.5h24t33 1l7.5 2l23.5 6q2 -7 4 -15t3 -16q1 -1 1 -2q0 -5 -1.5 -13.5t-1.5 -13.5q0 -15 -4 -27q1 -8 1.5 -22.5t0.5 -36.5q0 -5 1 -15.5t1 -15.5v-47q-1 -16 -1 -27v-19q0 -19 3 -53q3 -35 3 -52t-3 -48q-1 -16 -1.5 -27.5t-0.5 -19.5q0 -3 2 -13q3 -11 3 -14v-20v0z
"/>
            <glyph glyph-name="asciitilde" unicode="~" horiz-adv-x="459"
                   d="M439 826q0 -21 -61 -153q-48 -14 -56 -14q-4 2 -9.5 4l-13.5 5q-53 15 -80 15v2h-1q-1 1 -2 1l-1 1q-42 14 -69 32l-25 -2l-5 -3l-8 -15l-9 -5l-1 -7l-3 -4q-5 -32 -37 -32q-38 0 -38 26q0 9 8 25q3 5 6 11l6 12q1 4 3 9l5 13q24 55 60 85q40 3 37 4v-2l23 -8.5t24 -11.5
q20 -11 74 -14q44 -23 59 -23q22 0 31 29q2 8 4.5 17t4.5 17q15 12 42 12q32 0 32 -26z"/>
            <glyph glyph-name="Adieresis" unicode="&#xc4;" horiz-adv-x="1013"
                   d="M721 1009q0 -16 -8 -26q-3 -3 -9.5 -6.5l-14.5 -7.5t-16 -8.5t-12 -8.5q-20 -17 -27 -17q-35 0 -62 35q-11 16 -36 64v3q-7 13 -7 32q0 22 8 33q5 6 28 23q34 23 48 23q-6 0 30 -12q24 -8 37.5 -12t16.5 -5q9 -4 20 -25q2 -31 3 -52.5t1 -32.5zM367 941q-36 0 -68 50
q-25 41 -31 84v3q0 18 35 44t54 26q4 -2 7.5 -3.5l8.5 -3.5q11 -4 27 -9t38 -13h1l3 -2q3 -4 7.5 -9.5t9.5 -13.5q2 -32 3.5 -51t1.5 -26v-16q0 -14 -31 -32q-47 -28 -66 -28zM994 70q0 -70 -106 -70q-8 0 -20 0.5t-28 1.5q-32 3 -49 3q-15 0 -43 -3q-29 -3 -42 -3
q-35 0 -60 15q-31 19 -31 51q0 2 1 5t1 5l-1 2q5 4 10 18l5 3v5q5 5 10.5 9t12.5 8q0 1 2 3q22 10 22 28q0 17 -13 37q-17 26 -37 33q-17 5 -50 5q-8 0 -24 -1.5t-24 -1.5q-2 0 -6.5 1t-6.5 1h-59h-55q-19 -1 -33 -1h-23q-32 -26 -36 -48q-3 -15 -3 -12q0 -28 15 -50
l12 -16.5l4 -5.5l1 -1q4 -23 4 -34q0 -28 -13 -40q-2 -2 -6.5 -6t-9.5 -9q-10 1 -15 1h-4q-4 0 -11.5 -2t-10.5 -2h-44q-20 0 -49 8q-24 -6 -93 -6t-69 61q0 18 8 31q1 1 1 2l2 2h2q-1 3 6 13q7 4 21 18l5 1v1l2 1q0 5 21 10v3q18 5 27 15t16 13q0 3 5 10q2 6 3 10h4v5
l47 94q4 11 8 25.5l9 31.5q6 9 14 27.5t22 54.5q6 9 21 35q8 21 21.5 51.5l31.5 71.5l9.5 17l13.5 24l21 48q5 6 13 16.5t18 26.5q3 7 8 17.5l12 24.5q4 7 10.5 16.5t14.5 22.5l22 21q28 25 62 25q17 0 37 -13.5t30 -29.5l20 -32l16.5 -26.5t20.5 -37.5l10.5 -28t16.5 -39
q6 -8 14 -20.5l19 -29.5l12.5 -28l18.5 -40h3q3 -18 12 -50q2 -5 8 -16.5l16 -30.5q20 -36 26 -40h1l16 -40h5l19.5 -55.5t11.5 -30.5q9 -24 18.5 -44.5t19.5 -37.5q4 -3 9 -7.5t13 -9.5l8 -3t24 -10q7 -6 14 -13l15 -15q5 -4 12.5 -19.5t7.5 -30.5zM568 388q0 15 -3 17
q-7 11 -21 38.5t-35 73.5q-2 2 -16 38q-10 28 -26 28q-15 0 -20 -14q-2 -5 -4 -12.5t-6 -18.5l-12 -25l-16 -35q-2 -7 -6.5 -17l-10.5 -24q-5 -8 -9 -15.5t-9 -15.5q-12 -23 -12 -34q0 -22 31 -22q4 0 12 1.5l16 3t15.5 2.5t12.5 1l64 -6q9 2 18.5 3.5t18 5.5t13.5 10t5 17z
"/>
            <glyph glyph-name="Aring" unicode="&#xc5;" horiz-adv-x="1011"
                   d="M648 1053q0 -23 -26 -52q-62 -68 -106 -68q-33 0 -94 52q-32 27 -32 66q0 40 47 82q47 43 89 43q47 0 104 -76v-2q18 -27 18 -45zM993 70q0 -70 -106 -70q-8 0 -20 0.5t-28 1.5q-32 3 -49 3q-15 0 -43 -3q-29 -3 -42 -3q-35 0 -60 15q-31 19 -31 51q0 2 1 5t1 5l-1 2
q5 4 10 18l5 3v5q5 5 10.5 9t12.5 8q0 1 2 3q22 10 22 28q0 17 -13 37q-17 26 -37 33q-17 5 -50 5q-8 0 -24 -1.5t-24 -1.5q-2 0 -6.5 1t-6.5 1h-59h-55q-19 -1 -33 -1h-23q-32 -26 -36 -48q-3 -15 -3 -12q0 -28 15 -50l12 -16.5l4 -5.5l1 -1q4 -23 4 -34q0 -28 -13 -40
q-2 -2 -6.5 -6t-9.5 -9q-10 1 -15 1h-4q-4 0 -11.5 -2t-10.5 -2h-44q-20 0 -49 8q-24 -6 -93 -6t-69 61q0 18 8 31q1 1 1 2l2 2h2q-1 3 6 13q7 4 21 18l5 1v1l2 1q0 5 21 10v3q18 5 27 15t16 13q0 3 5 10q2 6 3 10h4v5l47 94q4 11 8 25.5l9 31.5q6 9 14 27.5t22 54.5
q6 9 21 35q8 21 21.5 51.5l31.5 71.5l9.5 17l13.5 24l21 48q5 6 13 16.5t18 26.5q3 7 8 17.5l12 24.5q4 7 10.5 16.5t14.5 22.5l22 21q28 25 62 25q17 0 37 -13.5t30 -29.5l20 -32l16.5 -26.5t20.5 -37.5l10.5 -28t16.5 -39q6 -8 14 -20.5l19 -29.5l12.5 -28l18.5 -40h3
q3 -18 12 -50q2 -5 8 -16.5l16 -30.5q20 -36 26 -40h1l16 -40h5l19.5 -55.5t11.5 -30.5q9 -24 18.5 -44.5t19.5 -37.5q4 -3 9 -7.5t13 -9.5l8 -3t24 -10q7 -6 14 -13l15 -15q5 -4 12.5 -19.5t7.5 -30.5zM569 1051q0 13 -6 19v3q-4 1 -9 11l-5 3q-18 19 -33 19q-19 0 -34 -20
l-12 -21l-1 -6l-2 -1v-5q0 -20 15.5 -32t36.5 -12q20 0 35 11.5t15 30.5zM567 388q0 15 -3 17q-7 11 -21 38.5t-35 73.5q-2 2 -16 38q-10 28 -26 28q-15 0 -20 -14q-2 -5 -4 -12.5t-6 -18.5l-12 -25l-16 -35q-2 -7 -6.5 -17l-10.5 -24q-5 -8 -9 -15.5t-9 -15.5
q-12 -23 -12 -34q0 -22 31 -22q4 0 12 1.5l16 3t15.5 2.5t12.5 1l64 -6q9 2 18.5 3.5t18 5.5t13.5 10t5 17z"/>
            <glyph glyph-name="Ccedilla" unicode="&#xc7;" horiz-adv-x="827"
                   d="M808 230q0 -19 -25 -70l-9.5 -19l-13.5 -27q-2 -8 -6.5 -19t-9.5 -26q-8 -15 -31 -40q-22 -25 -42 -25q-9 0 -26 3.5t-25 3.5q-5 0 -26 -7q-5 0 -11 -0.5t-14 -1.5l-8 -2l-21 -82l-5 -8l-30 -43q-2 -2 -6.5 -6l-10.5 -9q-8 -8 -21 -19.5t-32 -25.5l-30 -8q-22 -5 -28 -5
q-37 0 -37 47q0 20 25 38q44 32 44 56q0 2 -1 3q-2 5 -4.5 13l-6.5 21q-5 4 -13.5 9t-19.5 10q-6 1 -16.5 3.5t-21.5 5.5t-21.5 6.5t-16.5 6.5l-18 13l-25 18l-36 18q-9 10 -21 20q-10 4 -31 20h-1q-40 34 -75 92l-10.5 19.5l-30.5 57.5q-6 11 -7 28q-2 11 -5 23.5t-5 26.5
l-3 57.5l-1 19.5q0 4 6 67q4 17 11 38.5t17 47.5q5 11 14 29t23 42l16.5 27l21.5 34l11.5 11l13.5 13q2 2 4.5 5l6.5 8q4 4 33 24q32 23 39 26q32 16 56 23l85 26h25q9 0 27.5 2t27.5 2q33 0 42 -4l16 -6.5l48 -19.5h5q25 13 45 13q43 0 64 -31q2 -3 4.5 -7.5t6.5 -10.5
q6 -8 15 -21.5l20 -30.5q10 -17 54 -60q8 -9 13 -37q3 -3 3 -15q0 -58 -60 -58q-13 0 -43 15q-58 69 -97 83v2q-4 2 -49 31q-23 15 -66 15h-52q-5 -2 -11.5 -5l-14.5 -7q-4 -1 -9 -3t-12 -4q-7 -5 -18 -11.5l-25 -15.5q-7 -9 -16.5 -22.5l-22.5 -30.5l-5.5 -16.5t-4.5 -12.5
q-17 -54 -17 -150q0 -21 2 -43.5t6 -46.5q13 -45 15 -49q14 -21 31 -63l5 -4v-2q4 -4 5 -6v-3l2 -1q4 -10 25 -26l4 -9q5 -2 12 -6.5l16 -10.5l4 -4t6 -5q2 -1 5.5 -3l10.5 -6q8 -2 19.5 -4t26.5 -6q8 -2 13 -3q43 0 84 18q6 0 28 13q11 7 18 11t9 6q6 6 10 9q2 1 5 3t7 4
q6 9 24 25v2q5 0 8 5h5q8 11 15.5 22.5t15.5 22.5q22 27 45 27q26 0 41 -20.5t15 -47.5z"/>
            <glyph glyph-name="Eacute" unicode="&#xc9;" horiz-adv-x="835"
                   d="M605 1096q0 -9 -6 -13q-11 -20 -36 -42q-1 -3 -16 -15q-4 -2 -9.5 -6.5t-13.5 -9.5q-27 -19 -51 -46q-3 -4 -7.5 -8.5t-9.5 -10.5q-5 -3 -11 -7.5t-14 -9.5q-20 4 -30 5.5l-10 1.5q-7 0 -20.5 -2.5t-20.5 -2.5q-16 0 -16 8q0 11 14 31l10 13.5l10 13.5q8 12 13.5 22
t9.5 18l6 15t19 44q2 8 5 16t13 8q7 0 34 -8q24 -7 41 -7q6 0 15 1.5l22 3.5q25 6 38 6q21 0 21 -19zM816 199q0 -21 -10.5 -39t-22.5 -36q-20 -32 -92 -90q-3 -3 -9 -6q-8 -4 -19 -8.5t-25 -11.5q-13 -5 -19.5 -8t-8.5 -4q-4 -1 -11.5 -2t-20.5 -2h-6q-35 7 -72 21l-129 5
q-4 0 -17.5 1t-20.5 1h-21q-15 -5 -46 -9q-14 2 -40 0q-9 -2 -22.5 -4.5t-30.5 -6.5q-13 -1 -30 -1.5t-39 -0.5q-15 0 -30.5 5t-27.5 14t-19.5 21.5t-7.5 27.5q0 32 26 53q39 29 43 38q21 33 22 63q2 35 3.5 52l1.5 17q0 5 -1.5 15.5t-1.5 15.5q0 6 0.5 16t0.5 21t0.5 21
t0.5 16q0 5 -2 15t-2 14q-1 17 -1.5 36t-0.5 41q0 8 1 23.5t1 23.5v13t-1 19q0 2 -1 3v3l4 60q-2 4 -3 12q-8 37 -13 43q-11 17 -38 21v4q-33 22 -33 60q0 36 44 53q31 12 75 12l6 -2q35 -2 64.5 -5.5t52.5 -8.5l6 2q27 -2 72 -6q5 -1 8.5 -1.5t6.5 -0.5q5 0 14 2t13 2h12
t16 1q11 2 26.5 5.5t35.5 7.5h8q5 0 12 1q2 0 8.5 2t9.5 2h15q14 0 39 -1q29 -2 81 -74h5l16 -16l41 -40q25 -25 25 -46q0 -20 -18 -41.5t-38 -32.5q-11 -6 -14 -5q-7 2 -13 3t-13 3q-16 4 -22 12t-19 23q-7 4 -16.5 12l-22.5 19q-15 5 -37 16l-10 7.5t-14 9.5q-8 4 -19.5 8
t-25.5 8l-54 3t-19 1q-25 0 -44 -27q-17 -23 -17 -50v-24t-1 -34q-1 -6 -2 -15t-3 -21q-2 -14 11 -49q7 -10 26 -10q27 0 38 27q1 1 13 50l6 15t11 24q14 29 48 29t61 -40q15 -23 14 -40q0 -10 -0.5 -24.5t-1.5 -33.5q0 -2 -3.5 -14t-3.5 -14l1.5 -38t5.5 -114q0 -7 -4 -19
q-23 -74 -74 -74q-21 0 -41 18t-24 39l-10 53q0 2 -2.5 6.5t-2.5 7.5h-2q-11 23 -29 23q-26 0 -28 -23q-1 -8 -1 -22q0 -13 -1 -30v-42l2 -12.5l6 -37.5q7 -49 49 -49q117 0 246 43q25 8 49 21l19.5 12t19.5 11q25 15 42 15v4h21v-4q40 -1 40 -58z"/>
            <glyph glyph-name="Ntilde" unicode="&#xd1;" horiz-adv-x="821"
                   d="M624 1100q0 -17 -8.5 -35l-16.5 -35l-9 -20.5l-28 -62.5l-39 -10.5l-13 -3.5q-3 0 -5 2q-8 2 -21 6t-32 9q-20 1 -49 9h-1q-1 1 -2 1l-1 1q-43 15 -68 32q-7 -1 -13 -1t-13 -1q-2 -1 -13 -18l-9 -5l-1 -6l-3 -5q-5 -32 -38 -32q-37 0 -37 26q0 9 8 25q3 5 6 11l6 12
q2 8 8.5 24t26.5 44q19 28 33 39q7 1 16 2t22 3v-2q12 -4 22.5 -9.5t21.5 -10.5t24.5 -9t31.5 -5l19 -1q58 -21 61 -21q24 0 38 59q12 14 43 14q33 0 33 -26zM801 800q0 -16 -11 -28l-22 -23t-11 -76q0 -5 1 -23t3 -50q0 -3 1 -10.5t1 -11.5l-1 -3.5t-2 -8t-2 -8.5t-1 -5
q1 -14 0.5 -36t-1.5 -51q0 -5 -4 -17t-4 -18q0 -13 3 -35q2 -14 2.5 -23t1.5 -13v-23q0 -6 -2 -23t-6 -46q0 -3 -3 -14t-3 -16q0 -10 3.5 -30t3.5 -30q0 -41 -1 -70t-3 -48q-3 -26 -8 -37t-23 -19q-15 -7 -31 -7q-52 0 -88 49q-2 3 -6 7.5t-9 11.5h-2v4l-36 60q-2 4 -5.5 9
t-8.5 13l-1.5 4.5t-3.5 12.5q-1 3 -4.5 9l-8.5 14q-3 2 -6.5 6.5t-8.5 9.5q-20 34 -30 48q-8 13 -17 23.5l-18 20.5h-2l-34 53q-8 9 -16 19.5t-17 23.5l-11 23q-26 22 -94 135q-6 7 -27 25q-1 -2 -1.5 -4t-2.5 -5l-1 -16l5 -22t5 -30q0 -28 -3 -73q-2 -29 -2.5 -47t-1.5 -26
q0 -4 -2 -12.5t-2 -13.5q0 -6 4 -18.5t4 -18.5q0 -7 -1 -17.5t-3 -24.5t-3 -24t-1 -17q0 -40 17 -69q4 -6 33 -37q17 -20 17 -38q0 -16 -9.5 -33t-24.5 -20q-56 -10 -66 -10q1 0 -33 6q-49 -10 -55 -10q-28 0 -47.5 22t-19.5 50q0 20 10 31q2 2 9 7.5l18 14.5q5 5 9 29
q4 23 4 27q0 5 -3 15.5t-3 15.5q1 16 3 52q2 10 3.5 25.5l3.5 35.5v25q0 26 1 78q0 3 2 9t2 9q0 19 -1 34.5t-3 27.5q-1 1 -1 2q0 3 1.5 9.5l3 13.5t2.5 14t1 11l-6 66v44q-1 31 -13 43l-20.5 21l-29.5 30q-8 22 -8 25q0 1 8 17q7 13 12.5 20t9.5 9q10 5 38 5q10 8 32 8
q7 0 72 -6q13 7 64 7l6.5 -1.5t20.5 -5.5l17 3q7 -1 25 -8q18 -5 19 -6q5 -1 41 -48q2 -5 4 -11t5 -14l3.5 -6t10.5 -19h1q5 -10 12.5 -23.5t18.5 -31.5q7 -8 16.5 -21l22.5 -31q10 -23 33 -63q4 -4 9.5 -10t13.5 -14l4.5 -8l14.5 -25q1 -1 4.5 -6t11.5 -15q5 -8 14 -20.5
l21 -28.5q22 17 20 53q0 17 -0.5 41.5t-1.5 56.5q0 6 -4 20t-4 22q0 6 6 33q5 25 5 49q0 19 -6 21l-11 12l-2 6q-7 0 -9 5q-26 20 -26 34q0 29 33 50q27 19 59 17l56 -4q44 -3 54 -7q28 -10 28 -41z"/>
            <glyph glyph-name="Odieresis" unicode="&#xd6;" horiz-adv-x="915"
                   d="M569 935q-18 0 -41 14q-23 15 -57 85v3q-6 15 -6 32q0 22 8 33q2 4 9.5 9.5l18.5 13.5q34 23 47 23l18 -7l31.5 -11t33.5 -11h1q11 -7 20 -25q2 -30 3.5 -48.5t1.5 -26.5v-10q0 -23 -32 -40l-16 -9t-12 -8q-22 -17 -28 -17zM399 1001q0 -13 -31 -32q-46 -28 -66 -28
q-37 0 -67 50q-25 41 -31 84v3q0 18 41 47q34 23 47 23q3 0 41 -15t42 -14q9 -9 21 -25q3 -71 3 -93zM896 393q0 -12 -34 -120q-9 -31 -45 -86q-33 -53 -72 -75l-19 -16q-9 -7 -27 -18l-46 -27l-7.5 -5t-9.5 -8q-36 -27 -96 -36q-11 -1 -28.5 -2t-40.5 -3l-59 -6t-21 -2
l-67 24l-48 18t-24 10q-41 19 -63 42q-2 2 -4 4.5t-4 5.5q-2 1 -3 2t-3 2l-37 48q-1 4 -6 10q-8 10 -20 23.5t-26 32.5l-15 33t-6 13l-17.5 61l-24.5 85q-4 13 -4 35q0 4 16 52l-2 17q4 9 7 49q2 21 29 63q26 39 43 54q7 5 16 14l22 21q4 6 10.5 14.5l14.5 19.5q5 3 13 10.5
t24 20.5l30 15l41 21l3.5 2.5t11.5 7.5l6 2t7 2q1 2 13 7q46 18 90 18h55t26 -1q33 -2 78 -15l17 -5t24 -8q8 -5 20 -11l28 -14q14 -4 40 -18q1 -1 1 -2t1 -2l41 -45q16 -12 43 -37l43 -46q1 0 3 -2l17 -29t17 -31q2 -9 5.5 -22.5l8.5 -32.5v-8q0 -4 1 -10q3 -9 6 -22.5
l7 -30.5v-63zM678 376l-2 2q0 16 -5 33q-1 1 -1 2t-1 2q-5 20 -13 46l-19 59q-15 23 -40 68l-19.5 17l-26.5 24q-4 5 -8 9l-9 9q-2 2 -16.5 9.5l-40.5 21.5l-63 12l-14 -1l-42 -3q-5 -2 -10.5 -5.5t-12.5 -8.5q-39 -33 -46 -49l-12.5 -30l-17.5 -43q-2 -5 -5 -15l-8 -26v-53
q2 -10 5 -20.5t5 -21.5l3 -15.5t10 -47.5q9 -10 23 -34l5 -12.5t8 -18.5q4 -9 36 -46q1 -2 8 -7q36 -45 54 -55l21 -9q9 -5 18 -11l18 -12q22 -12 40 -12q48 0 65 14l21 17l28 23q14 14 42 97l2 4l3 6l15 63q2 2 2 9v9z"/>
            <glyph glyph-name="Udieresis" unicode="&#xdc;" horiz-adv-x="972"
                   d="M634 935q-19 0 -43 15q-17 10 -57 84l-1 4.5t-1.5 10.5t-1.5 11.5t-1 8.5q0 22 8 33q2 4 9.5 9.5l18.5 13.5q34 23 48 23q-5 0 16 -7q68 -21 66 -22q14 -8 21 -25q2 -30 3.5 -48.5t1.5 -26.5v-10q0 -25 -32 -40l-16 -9t-12 -8q-20 -17 -27 -17zM365 941q-37 0 -68 52
q-29 49 -29 85q0 19 40 47q34 23 47 23q2 0 41 -15q41 -15 43 -14q5 -5 10 -11.5l10 -13.5q2 -32 3 -52.5t1 -28.5v-12q0 -12 -32 -32q-46 -28 -66 -28zM953 789q0 -12 -6 -25q-11 -25 -36 -35t-30 -25q-8 -22 -8 -31v-84v-24q0 -13 1 -32v-56q0 -10 -3 -26
q-2 -11 -2.5 -17.5t-1.5 -8.5q-1 -9 -1.5 -22.5t-2.5 -30.5q-1 -4 -1.5 -9.5t-2.5 -13.5q-2 -17 -5.5 -39t-10.5 -50q-5 -13 -12 -28t-17 -34q-12 -25 -31 -59l-30 -29t-34 -36l-29.5 -18.5t-20.5 -11.5q-14 -8 -27.5 -14.5t-25.5 -10.5v-2q-48 -17 -69 -17h-99q-9 0 -43 9
q-35 9 -38 8v2q-31 4 -130 90l-9.5 9.5l-19.5 20.5q-6 2 -23 32q-7 13 -18.5 36.5l-27.5 58.5l-6 9q-15 46 -39 138q-1 8 -3 21t-4 30q-2 11 -4.5 26.5t-5.5 37.5v14t-1 20q-2 8 -4.5 21.5l-5.5 30.5q1 13 0 39q-2 14 -6.5 29.5l-9.5 32.5l-15 27h-1q-15 27 -15 42
q0 29 36 49q32 17 63 17q11 0 46 -8q33 -8 39 -6q26 4 46 5.5t34 1.5h16q8 0 15 -1q26 -2 47 -19.5t21 -43.5q0 -37 -17 -52l-50 -45q-4 -10 -8 -22.5l-9 -28.5q-1 -1 -1 -8q0 -4 1 -11.5t1 -11.5v-22q-1 -7 -1 -12v-9q0 4 9 -44q4 -20 5.5 -30t2.5 -12q8 -29 15 -38
l9.5 -33l13.5 -45q3 -5 7.5 -11.5t9.5 -15.5l5 -12t8 -16l2 -2t6 -7l9 -23q4 -13 74 -60l50.5 -12t14.5 -4q3 0 11 3t11 3h29q14 0 30 10t18 10q3 0 5 1q4 3 8.5 8t11.5 12q32 44 46 92q0 16 8 46q1 13 1.5 32t2.5 45q2 8 3 17t2 17q4 28 3 31q0 8 0.5 19t1.5 26q1 2 1 5
t1 5l-6 50q5 23 5 24q0 43 -16 59q-9 8 -25 31h-2q-19 41 -19 62q0 22 20 36q16 12 41 12q7 0 16 -1.5l21 -3.5q28 -5 36 -5q4 0 14 2q22 6 52 6q32 0 54 -13q29 -15 29 -44z"/>
            <glyph glyph-name="aacute" unicode="&#xe1;" horiz-adv-x="587"
                   d="M480 876q0 -7 -5 -14q-6 -8 -15 -18t-22 -23q-4 -10 -39 -31q-11 -7 -23.5 -18t-26.5 -27q-3 -4 -7.5 -8.5t-10.5 -11.5l-10 -7.5t-14 -9.5q-20 4 -30.5 5.5l-10.5 1.5q-7 0 -20.5 -3t-20.5 -3q-16 0 -16 9q0 11 15 31l10 13.5l10 13.5q7 11 12 20.5l10 18.5l14.5 35.5
l15.5 37.5q1 10 13 10q9 0 33 -8q16 -6 42 -6q6 0 16 1.5t21 4t21 4t16 1.5q22 0 22 -19zM568 67q0 -15 -11 -33t-25 -21q-4 -1 -9.5 -2t-13.5 -3q-30 -8 -32 -8v-1q-62 0 -92 15t-44 15t-18 -3q-67 -26 -72 -26v-1h-48v1q-10 2 -23.5 5t-30.5 6q-5 0 -11.5 0.5t-13.5 1.5
q-11 5 -38 27q-22 18 -40 52h-3v4q-2 0 -3 1q0 1 2 3q-9 5 -15.5 25t-3.5 39q0 4 -2.5 12.5t-2.5 13.5q0 68 40 104q13 12 24.5 27.5t28.5 23.5q8 5 19.5 10t25.5 10q14 1 30.5 2.5t36.5 4.5l22.5 7.5l30.5 10.5q17 5 21.5 9t4.5 20q0 15 -9 32q-11 20 -24 20q-8 0 -43 -41
q-10 -11 -36 -20q-21 -7 -41 -7q-26 0 -43 21.5t-17 48.5q0 37 35 66q31 25 70 34q69 15 102 15q39 0 64 -7l4 -3l10 -2v-4q24 -9 45 -26t41 -35l40 -66q4 -7 8 -29q6 -24 5 -30l-5 -56l-2 -4q-3 -65 -3 -148q0 -50 46 -71v-2h4v-3l6 -6h2v-3l3 -1q4 -13 4 -25zM324 232
q0 17 -11.5 34t-27.5 17q-30 0 -48 -25t-18 -56q0 -26 14 -48q15 -24 41 -24q15 0 31.5 12t16.5 26v27v7t1 12q1 5 1 9v9z"/>
            <glyph glyph-name="agrave" unicode="&#xe0;" horiz-adv-x="587"
                   d="M373 718q0 -12 -20 -9l-36 6l-10.5 -1.5t-31.5 -5.5q-5 2 -11 6.5l-14 10.5l-4.5 5t-12.5 15q-22 26 -50 45q-12 7 -37 27h-1q0 1 -18 21q-17 19 -19 24q-7 7 -7 14q0 19 22 19q13 0 37 -6l22 -3.5t15 -1.5q26 0 43 6q24 8 35 8q9 0 12 -10q8 -26 15.5 -44t12.5 -29
q3 -6 24 -39l11.5 -16.5t14.5 -22.5t8 -19zM569 67q0 -15 -11 -33t-25 -21q-4 -1 -9.5 -2t-13.5 -3q-30 -8 -32 -8v-1q-62 0 -92 15t-44 15t-18 -3q-67 -26 -72 -26v-1h-48v1q-10 2 -23.5 5t-30.5 6q-5 0 -11.5 0.5t-13.5 1.5q-11 5 -38 27q-22 18 -40 52h-3v4q-2 0 -3 1
q0 1 2 3q-9 5 -15.5 25t-3.5 39q0 4 -2.5 12.5t-2.5 13.5q0 68 40 104q13 12 24.5 27.5t28.5 23.5q8 5 19.5 10t25.5 10q14 1 30.5 2.5t36.5 4.5l22.5 7.5l30.5 10.5q17 5 21.5 9t4.5 20q0 15 -9 32q-11 20 -24 20q-8 0 -43 -41q-10 -11 -36 -20q-21 -7 -41 -7
q-26 0 -43 21.5t-17 48.5q0 37 35 66q31 25 70 34q69 15 102 15q39 0 64 -7l4 -3l10 -2v-4q24 -9 45 -26t41 -35l40 -66q4 -7 8 -29q6 -24 5 -30l-5 -56l-2 -4q-3 -65 -3 -148q0 -50 46 -71v-2h4v-3l6 -6h2v-3l3 -1q4 -13 4 -25zM325 232q0 17 -11.5 34t-27.5 17
q-30 0 -48 -25t-18 -56q0 -26 14 -48q15 -24 41 -24q15 0 31.5 12t16.5 26v27v7t1 12q1 5 1 9v9z"/>
            <glyph glyph-name="acircumflex" unicode="&#xe2;" horiz-adv-x="588"
                   d="M487 721q0 -13 -16 -12q-21 2 -31.5 3.5l-10.5 1.5q-8 0 -23.5 -3t-22.5 -3q-21 0 -25 9l-5 15q-1 6 -31 56q-29 48 -35 53q-2 9 -10 9q-2 0 -10 -8q-36 -42 -44 -77q-4 -18 -7.5 -29t-5.5 -15q-11 -17 -40 -17q-88 0 -91 3t-3 9q0 11 12 23q3 3 29 41q2 4 18.5 29.5
l46.5 73.5q11 17 30 17q2 0 8 -2h9q12 3 36 7t53 4q24 0 55 -25q13 -24 27 -44t28 -37q59 -68 59 -82zM569 67q0 -15 -11 -33t-25 -21q-4 -1 -9.5 -2t-13.5 -3q-30 -8 -32 -8v-1q-62 0 -92 15t-44 15t-18 -3q-67 -26 -72 -26v-1h-48v1q-10 2 -23.5 5t-30.5 6q-5 0 -11.5 0.5
t-13.5 1.5q-11 5 -38 27q-22 18 -40 52h-3v4q-2 0 -3 1q0 1 2 3q-9 5 -15.5 25t-3.5 39q0 4 -2.5 12.5t-2.5 13.5q0 68 40 104q13 12 24.5 27.5t28.5 23.5q8 5 19.5 10t25.5 10q14 1 30.5 2.5t36.5 4.5l22.5 7.5l30.5 10.5q17 5 21.5 9t4.5 20q0 15 -9 32q-11 20 -24 20
q-8 0 -43 -41q-10 -11 -36 -20q-21 -7 -41 -7q-26 0 -43 21.5t-17 48.5q0 37 35 66q31 25 70 34q69 15 102 15q39 0 64 -7l4 -3l10 -2v-4q24 -9 45 -26t41 -35l40 -66q4 -7 8 -29q6 -24 5 -30l-5 -56l-2 -4q-3 -65 -3 -148q0 -50 46 -71v-2h4v-3l6 -6h2v-3l3 -1q4 -13 4 -25
zM325 232q0 17 -11.5 34t-27.5 17q-30 0 -48 -25t-18 -56q0 -26 14 -48q15 -24 41 -24q15 0 31.5 12t16.5 26v27v7t1 12q1 5 1 9v9z"/>
            <glyph glyph-name="adieresis" unicode="&#xe4;" horiz-adv-x="590"
                   d="M400 709q-18 0 -43 16q-19 12 -55 84v3q-7 15 -7 33q0 22 9 33q1 1 8 6l20 15q32 23 47 23l30 -11l22.5 -7.5t30.5 -9.5h1q12 -9 20 -26q2 -29 3.5 -47.5t1.5 -26.5v-11q0 -25 -32 -40q-11 -5 -28 -16q-20 -18 -28 -18zM230 776q0 -15 -31 -33q-47 -27 -66 -27
q-37 0 -67 50q-25 41 -31 84v3q0 17 41 46q34 23 47 23q4 0 42 -15q39 -14 41 -13l2 -1l7.5 -10.5t11.5 -14.5q3 -69 3 -92zM570 67q0 -15 -11 -33t-25 -21q-4 -1 -9.5 -2t-13.5 -3q-30 -8 -32 -8v-1q-62 0 -92 15t-44 15t-18 -3q-67 -26 -72 -26v-1h-48v1q-10 2 -23.5 5
t-30.5 6q-5 0 -11.5 0.5t-13.5 1.5q-11 5 -38 27q-22 18 -40 52h-3v4q-2 0 -3 1q0 1 2 3q-9 5 -15.5 25t-3.5 39q0 4 -2.5 12.5t-2.5 13.5q0 68 40 104q13 12 24.5 27.5t28.5 23.5q8 5 19.5 10t25.5 10q14 1 30.5 2.5t36.5 4.5l22.5 7.5l30.5 10.5q17 5 21.5 9t4.5 20
q0 15 -9 32q-11 20 -24 20q-8 0 -43 -41q-10 -11 -36 -20q-21 -7 -41 -7q-26 0 -43 21.5t-17 48.5q0 37 35 66q31 25 70 34q69 15 102 15q39 0 64 -7l4 -3l10 -2v-4q24 -9 45 -26t41 -35l40 -66q4 -7 8 -29q6 -24 5 -30l-5 -56l-2 -4q-3 -65 -3 -148q0 -50 46 -71v-2h4v-3
l6 -6h2v-3l3 -1q4 -13 4 -25zM326 232q0 17 -11.5 34t-27.5 17q-30 0 -48 -25t-18 -56q0 -26 14 -48q15 -24 41 -24q15 0 31.5 12t16.5 26v27v7t1 12q1 5 1 9v9z"/>
            <glyph glyph-name="atilde" unicode="&#xe3;" horiz-adv-x="590"
                   d="M479 875q0 -17 -25 -71l-37 -83q-45 -13 -52 -13q-3 0 -4 1q-20 8 -39.5 12.5t-37.5 6.5q-20 3 -25 5h-2q-1 1 -2 1.5t-2 1.5q-21 8 -37.5 16t-29.5 16q-7 -1 -13 -1t-12 -1q-5 -2 -14 -18l-8 -6q-3 -7 -5.5 -14.5t-6.5 -14t-10.5 -10.5t-18.5 -4q-38 0 -38 27
q0 11 6.5 23.5l12.5 23.5q2 4 4 10.5t5 14.5q8 20 23 40t35 42q13 1 39 6v-2q12 -4 23 -9l22 -10t24 -9t29 -6l22 -2q57 -21 60 -21q23 0 32 30q5 16 7 23.5l2 7.5q13 12 40 12q33 0 33 -25zM570 67q0 -15 -11 -33t-25 -21q-4 -1 -9.5 -2t-13.5 -3q-30 -8 -32 -8v-1
q-62 0 -92 15t-44 15t-18 -3q-67 -26 -72 -26v-1h-48v1q-10 2 -23.5 5t-30.5 6q-5 0 -11.5 0.5t-13.5 1.5q-11 5 -38 27q-22 18 -40 52h-3v4q-2 0 -3 1q0 1 2 3q-9 5 -15.5 25t-3.5 39q0 4 -2.5 12.5t-2.5 13.5q0 68 40 104q13 12 24.5 27.5t28.5 23.5q8 5 19.5 10t25.5 10
q14 1 30.5 2.5t36.5 4.5l22.5 7.5l30.5 10.5q17 5 21.5 9t4.5 20q0 15 -9 32q-11 20 -24 20q-8 0 -43 -41q-10 -11 -36 -20q-21 -7 -41 -7q-26 0 -43 21.5t-17 48.5q0 37 35 66q31 25 70 34q69 15 102 15q39 0 64 -7l4 -3l10 -2v-4q24 -9 45 -26t41 -35l40 -66q4 -7 8 -29
q6 -24 5 -30l-5 -56l-2 -4q-3 -65 -3 -148q0 -50 46 -71v-2h4v-3l6 -6h2v-3l3 -1q4 -13 4 -25zM326 232q0 17 -11.5 34t-27.5 17q-30 0 -48 -25t-18 -56q0 -26 14 -48q15 -24 41 -24q15 0 31.5 12t16.5 26v27v7t1 12q1 5 1 9v9z"/>
            <glyph glyph-name="aring" unicode="&#xe5;" horiz-adv-x="588"
                   d="M428 827q0 -22 -26 -51q-62 -68 -105 -68q-33 0 -95 53q-31 25 -31 65q0 37 47 81t87 44q50 0 104 -76v-1q19 -25 19 -47zM569 67q0 -15 -11 -33t-25 -21q-4 -1 -9.5 -2t-13.5 -3q-30 -8 -32 -8v-1q-62 0 -92 15t-44 15t-18 -3q-67 -26 -72 -26v-1h-48v1q-10 2 -23.5 5
t-30.5 6q-5 0 -11.5 0.5t-13.5 1.5q-11 5 -38 27q-22 18 -40 52h-3v4q-2 0 -3 1q0 1 2 3q-9 5 -15.5 25t-3.5 39q0 4 -2.5 12.5t-2.5 13.5q0 68 40 104q13 12 24.5 27.5t28.5 23.5q8 5 19.5 10t25.5 10q14 1 30.5 2.5t36.5 4.5l22.5 7.5l30.5 10.5q17 5 21.5 9t4.5 20
q0 15 -9 32q-11 20 -24 20q-8 0 -43 -41q-10 -11 -36 -20q-21 -7 -41 -7q-26 0 -43 21.5t-17 48.5q0 37 35 66q31 25 70 34q69 15 102 15q39 0 64 -7l4 -3l10 -2v-4q24 -9 45 -26t41 -35l40 -66q4 -7 8 -29q6 -24 5 -30l-5 -56l-2 -4q-3 -65 -3 -148q0 -50 46 -71v-2h4v-3
l6 -6h2v-3l3 -1q4 -13 4 -25zM351 826q0 13 -7 19v1q-5 7 -13 16q-20 18 -35 18q-30 0 -44 -35q0 -1 -2 -5v-4q-1 -1 -1 -3q0 -50 50 -50q19 0 35.5 12t16.5 31zM325 232q0 17 -11.5 34t-27.5 17q-30 0 -48 -25t-18 -56q0 -26 14 -48q15 -24 41 -24q15 0 31.5 12t16.5 26v27
v7t1 12q1 5 1 9v9z"/>
            <glyph glyph-name="ccedilla" unicode="&#xe7;" horiz-adv-x="571"
                   d="M552 428q0 -20 -31 -44q-11 -8 -24 -8q-37 0 -74 27l-29 22t-15 10q-19 10 -53 10l-1 -1q-7 1 -12 0.5t-9 -1.5q-4 -3 -9.5 -7.5l-12.5 -10.5q-3 -5 -10 -14t-21 -30l-9 -25t-12 -30q0 -8 -1 -25t-1 -25q0 -29 18 -72q21 -49 43 -55q2 -1 6.5 -1.5t9.5 -2.5q22 -7 25 -7
q5 0 12 0.5t16 1.5l7 3t21 8l17 8.5t18 11.5q4 2 7.5 5t7.5 6q5 8 10.5 15.5t10.5 15.5q7 10 29 13v3l19 3q20 0 32.5 -15.5t12.5 -35.5q0 -8 -5.5 -31t-26.5 -44q-8 -10 -19.5 -22.5t-26.5 -26.5q-8 -5 -19 -12.5t-27 -16.5q-20 -11 -27 -36l-10 -35q-1 -7 -31 -43
q-6 -7 -11.5 -10.5t-5.5 -4.5q-9 -8 -22.5 -19t-32.5 -24q-3 0 -30 -7q-11 -2 -18 -3.5t-10 -1.5q-37 0 -37 48q0 21 27 39q45 30 45 52q0 17 -19 21q-17 5 -37 12t-42 16l-11.5 9t-14.5 12q-5 2 -11.5 6.5l-15.5 10.5q-22 17 -37 42l-6 4q-5 12 -14 27.5l-21 35.5l-12 66
l-3 9v65q0 40 27 96q25 51 57 85q4 5 10.5 11.5t14.5 15.5q9 8 36 22v4q49 36 105 36q24 0 80 -19q1 -1 4 -1q10 0 36 9q25 9 37 9q28 0 52 -29q8 -13 17 -25.5t17 -25.5q3 -4 7.5 -9.5l11.5 -13.5q21 -26 21 -56z"/>
            <glyph glyph-name="eacute" unicode="&#xe9;" horiz-adv-x="586"
                   d="M494 874q0 -8 -4 -15q-3 -2 -21 -24q-18 -21 -20 -21q-10 -12 -43 -35q-30 -22 -43 -37q-6 -8 -18 -21q-4 -2 -9.5 -6t-13.5 -9q-20 2 -30.5 3.5l-10.5 1.5q-7 0 -21 -2t-21 -2q-14 0 -14 9q0 14 12 31q5 7 10.5 13t10.5 13q7 11 12.5 20.5t10.5 19.5l6 15t19 44
q2 6 4.5 15t12.5 9q8 0 34 -8q16 -6 42 -6q6 0 16 1.5t21 4t21 4t16 1.5q21 0 21 -19zM567 350q0 -65 -46 -68h-8q-4 0 -9 -1q-3 -1 -7.5 -2t-10.5 -3h-35q-7 0 -24 -4t-23 -4q-7 0 -25 3.5t-28 2.5l-47 -6q-26 6 -28 6q-46 0 -46 -32q0 -28 18 -47q5 -5 9 -8q19 -19 19 -21
q4 -2 9 -5t13 -6q1 0 6.5 -2t11.5 -4.5t12.5 -4.5t10.5 -2q3 0 8 1t7 1q40 3 74 24q5 7 11 14l12 14q16 21 43 21q21 0 36.5 -14t15.5 -35q0 -26 -10 -39l-37 -53q-35 -50 -118 -77q-8 -2 -14.5 -4t-13.5 -3l-14 -1.5l-42 -4.5l-15 -1.5t-6 -0.5q-14 0 -51 15
q-18 7 -30 12.5t-18 9.5q-4 4 -8 8.5t-9 9.5q-13 7 -33 25q-7 2 -14 12q-7 7 -16 17t-20 24q-2 5 -5 11.5l-7 14.5q-2 3 -4.5 7.5l-5.5 9.5l-24 54q-3 6 -12 43q-1 1 -1 4q0 1 1.5 19.5t3.5 55.5q1 13 5 31.5t11 41.5l11 22t14 26h1q3 7 13 20q25 33 93 80q4 2 9 5t12 5v2
q57 24 91 24q13 0 69 -6q13 -2 21.5 -3t15 -2.5t13.5 -4.5t17 -8v-2q3 -2 7.5 -4t10.5 -4l9 -3q11 -8 25 -21.5l33 -31.5q1 -2 3 -4t4 -6q14 -21 21.5 -33.5t9.5 -17.5q14 -27 19.5 -54t5.5 -38zM387 407q0 5 -5 17q-16 31 -28 42q-15 12 -48 13q-2 2 -4 2q-28 0 -57 -35
q-17 -9 -17 -27q0 -37 26 -39h9t13 -1q3 0 10.5 -1.5t11.5 -1.5q89 0 89 31z"/>
            <glyph glyph-name="egrave" unicode="&#xe8;" horiz-adv-x="586"
                   d="M346 718q0 -12 -20 -9l-36 6l-10.5 -1.5t-31.5 -5.5q-7 4 -24 17l-4.5 5t-12.5 15q-23 25 -51 45q-14 7 -36 27h-1q0 3 -22 25q-21 24 -21 34q0 19 21 19q6 0 16.5 -1.5t21 -4t21 -4t16.5 -1.5q25 0 42 6q24 8 34 8q11 0 12 -10q1 -3 6 -13l9.5 -25.5l13.5 -34.5
q3 -7 9 -16.5l14 -22.5l21 -27q13 -19 13 -31zM568 350q0 -65 -46 -68h-8q-4 0 -9 -1q-3 -1 -7.5 -2t-10.5 -3h-35q-7 0 -24 -4t-23 -4q-7 0 -25 3.5t-28 2.5l-47 -6q-26 6 -28 6q-46 0 -46 -32q0 -28 18 -47q5 -5 9 -8q19 -19 19 -21q4 -2 9 -5t13 -6q1 0 6.5 -2t11.5 -4.5
t12.5 -4.5t10.5 -2q3 0 8 1t7 1q40 3 74 24q5 7 11 14l12 14q16 21 43 21q21 0 36.5 -14t15.5 -35q0 -26 -10 -39l-37 -53q-35 -50 -118 -77q-8 -2 -14.5 -4t-13.5 -3l-14 -1.5l-42 -4.5l-15 -1.5t-6 -0.5q-14 0 -51 15q-18 7 -30 12.5t-18 9.5q-4 4 -8 8.5t-9 9.5
q-13 7 -33 25q-7 2 -14 12q-7 7 -16 17t-20 24q-2 5 -5 11.5l-7 14.5q-2 3 -4.5 7.5l-5.5 9.5l-24 54q-3 6 -12 43q-1 1 -1 4q0 1 1.5 19.5t3.5 55.5q1 13 5 31.5t11 41.5l11 22t14 26h1q3 7 13 20q25 33 93 80q4 2 9 5t12 5v2q57 24 91 24q13 0 69 -6q13 -2 21.5 -3
t15 -2.5t13.5 -4.5t17 -8v-2q3 -2 7.5 -4t10.5 -4l9 -3q11 -8 25 -21.5l33 -31.5q1 -2 3 -4t4 -6q14 -21 21.5 -33.5t9.5 -17.5q14 -27 19.5 -54t5.5 -38zM388 407q0 5 -5 17q-16 31 -28 42q-15 12 -48 13q-2 2 -4 2q-28 0 -57 -35q-17 -9 -17 -27q0 -37 26 -39h9t13 -1
q3 0 10.5 -1.5t11.5 -1.5q89 0 89 31z"/>
            <glyph glyph-name="ecircumflex" unicode="&#xea;" horiz-adv-x="587"
                   d="M499 721q0 -14 -17 -12q-21 2 -31.5 3.5l-10.5 1.5q-35 0 -45 -6q-21 0 -25.5 10t-11.5 28q-22 46 -59 92l-1 3q-2 9 -11 9q-1 0 -9 -8q-32 -39 -42 -76q-2 -7 -5 -16.5t-8 -22.5q-8 -15 -15.5 -19t-26.5 -4q-88 0 -92 3q-3 4 -3 9q0 11 13 23q2 2 29 41q16 23 32 48.5
l33 54.5q11 17 30 17q2 0 8 -2h9q12 3 36 7t53 4q24 0 55 -25q8 -14 22 -34.5l33 -46.5q60 -69 60 -82zM568 350q0 -65 -46 -68h-8q-4 0 -9 -1q-3 -1 -7.5 -2t-10.5 -3h-35q-7 0 -24 -4t-23 -4q-7 0 -25 3.5t-28 2.5l-47 -6q-26 6 -28 6q-46 0 -46 -32q0 -28 18 -47
q5 -5 9 -8q19 -19 19 -21q4 -2 9 -5t13 -6q1 0 6.5 -2t11.5 -4.5t12.5 -4.5t10.5 -2q3 0 8 1t7 1q40 3 74 24q5 7 11 14l12 14q16 21 43 21q21 0 36.5 -14t15.5 -35q0 -26 -10 -39l-37 -53q-35 -50 -118 -77q-8 -2 -14.5 -4t-13.5 -3l-14 -1.5l-42 -4.5l-15 -1.5t-6 -0.5
q-14 0 -51 15q-18 7 -30 12.5t-18 9.5q-4 4 -8 8.5t-9 9.5q-13 7 -33 25q-7 2 -14 12q-7 7 -16 17t-20 24q-2 5 -5 11.5l-7 14.5q-2 3 -4.5 7.5l-5.5 9.5l-24 54q-3 6 -12 43q-1 1 -1 4q0 1 1.5 19.5t3.5 55.5q1 13 5 31.5t11 41.5l11 22t14 26h1q3 7 13 20q25 33 93 80
q4 2 9 5t12 5v2q57 24 91 24q13 0 69 -6q13 -2 21.5 -3t15 -2.5t13.5 -4.5t17 -8v-2q3 -2 7.5 -4t10.5 -4l9 -3q11 -8 25 -21.5l33 -31.5q1 -2 3 -4t4 -6q14 -21 21.5 -33.5t9.5 -17.5q14 -27 19.5 -54t5.5 -38zM388 407q0 5 -5 17q-16 31 -28 42q-15 12 -48 13q-2 2 -4 2
q-28 0 -57 -35q-17 -9 -17 -27q0 -37 26 -39h9t13 -1q3 0 10.5 -1.5t11.5 -1.5q89 0 89 31z"/>
            <glyph glyph-name="iacute" unicode="&#xed;" horiz-adv-x="381"
                   d="M362 876q0 -7 -6 -14q-10 -13 -35 -41q0 -1 -4 -4q-7 -6 -15.5 -12.5l-19.5 -14.5q-32 -22 -52 -45q-3 -4 -7.5 -8.5t-9.5 -11.5l-6 -4.5t-18 -12.5q-20 4 -30.5 5.5l-10.5 1.5q-7 0 -20.5 -3t-20.5 -3q-16 0 -16 9q0 11 14 31l10 13.5l10 13.5l14 22.5t9 16.5l14.5 36
l15.5 37q3 10 13 10q7 0 33 -8q18 -5 42 -5q6 0 16.5 1.5t21 3.5t21 3.5t16.5 1.5q21 0 21 -19zM302 73q0 -9 -12 -37q-15 -36 -74 -36q-3 0 -21.5 2.5t-52.5 7.5q-34 -10 -39 -10q-34 0 -57 14q-27 16 -27 48q0 8 5.5 23t10.5 19l26 22q8 8 14 89l-3 4q-1 49 -1 73v25
q0 7 3.5 22.5t3.5 22.5q0 47 -9 82q-8 15 -9 17q-4 7 -7.5 11.5l-6.5 8.5q-10 10 -18.5 20t-8.5 26q0 60 58 60q-2 0 0 -0.5t7 -1.5q38 -7 57 -7q9 0 28.5 1.5t28.5 1.5q42 0 57 -27q10 -19 10 -65q0 -6 -1 -15.5t-2.5 -20t-2.5 -19.5t-1 -15v-12t1 -15q1 -11 1 -18v-10
q0 -5 3 -146q0 5 -2 -11.5t-2 -36.5q0 -23 6 -33q5 -6 22 -25q15 -15 15 -39z"/>
            <glyph glyph-name="igrave" unicode="&#xec;" horiz-adv-x="353"
                   d="M291 718q0 -12 -20 -9l-36 6l-10.5 -1.5t-31.5 -5.5q-5 2 -11 6.5l-14 10.5l-4.5 5t-12.5 15q-22 26 -50 45q-14 7 -36 27h-1l-18.5 21t-19.5 24q-7 6 -7 14q0 19 22 19q13 0 37 -6l22 -3.5t15 -1.5q27 0 44 6q24 8 34 8q9 0 12 -10q0 -1 5 -13q7 -20 24 -60l9 -17.5
t13 -21.5l10 -13.5l10 -13.5q15 -21 15 -31zM334 73q0 -9 -12 -37q-15 -36 -74 -36q-3 0 -21.5 2.5t-52.5 7.5q-34 -10 -39 -10q-34 0 -57 14q-27 16 -27 48q0 8 5.5 23t10.5 19l26 22q8 8 14 89l-3 4q-1 49 -1 73v25q0 7 3.5 22.5t3.5 22.5q0 47 -9 82q-8 15 -9 17
q-4 7 -7.5 11.5l-6.5 8.5q-10 10 -18.5 20t-8.5 26q0 60 58 60q-2 0 0 -0.5t7 -1.5q38 -7 57 -7q9 0 28.5 1.5t28.5 1.5q42 0 57 -27q10 -19 10 -65q0 -6 -1 -15.5t-2.5 -20t-2.5 -19.5t-1 -15v-12t1 -15q1 -11 1 -18v-10q0 -5 3 -146q0 5 -2 -11.5t-2 -36.5q0 -23 6 -33
q5 -6 22 -25q15 -15 15 -39z"/>
            <glyph glyph-name="icircumflex" unicode="&#xee;" horiz-adv-x="448"
                   d="M429 721q0 -14 -17 -12q-20 2 -30.5 3.5l-10.5 1.5q-8 0 -23.5 -3t-22.5 -3q-19 0 -23.5 10.5t-12.5 27.5q-11 20 -26 44t-34 51l-3 6q-8 3 -7 3q-9 0 -9 -8q-35 -40 -44 -76t-14 -45q-11 -17 -40 -17q-87 0 -90 3t-3 9q0 9 13 23q11 13 34 48.5t58 95.5q11 17 32 17
q3 0 7 -2h10q6 0 18 3.5t16 4.5q22 3 53 3q24 0 55 -25q6 -12 21 -36l36 -46.5l37 -47.5q20 -20 20 -33zM368 73q0 -9 -12 -37q-15 -36 -74 -36q-3 0 -21.5 2.5t-52.5 7.5q-34 -10 -39 -10q-34 0 -57 14q-27 16 -27 48q0 8 5.5 23t10.5 19l26 22q8 8 14 89l-3 4q-1 49 -1 73
v25q0 7 3.5 22.5t3.5 22.5q0 47 -9 82q-8 15 -9 17q-4 7 -7.5 11.5l-6.5 8.5q-10 10 -18.5 20t-8.5 26q0 60 58 60q-2 0 0 -0.5t7 -1.5q38 -7 57 -7q9 0 28.5 1.5t28.5 1.5q42 0 57 -27q10 -19 10 -65q0 -6 -1 -15.5t-2.5 -20t-2.5 -19.5t-1 -15v-12t1 -15q1 -11 1 -18v-10
q0 -5 3 -146q0 5 -2 -11.5t-2 -36.5q0 -23 6 -33q5 -6 22 -25q15 -15 15 -39z"/>
            <glyph glyph-name="idieresis" unicode="&#xef;" horiz-adv-x="491"
                   d="M472 783q0 -25 -32 -40q-11 -5 -28 -16q-20 -18 -28 -18q-20 0 -43 16q-21 15 -55 84v3q-7 13 -7 33q0 22 9 33q1 1 8 6l20 15q32 23 47 23q4 0 42 -15q39 -14 42 -13q12 -9 20 -26q2 -38 3.5 -59.5t1.5 -25.5zM214 776q0 -17 -31 -33q-50 -27 -66 -27q-37 0 -66 50
q-25 41 -31 84v3q0 17 38 46q34 23 49 23q4 0 42 -15q39 -14 41 -13l2 -1l7.5 -10.5t11.5 -14.5q3 -69 3 -92zM372 73q0 -9 -12 -37q-15 -36 -74 -36q-3 0 -21.5 2.5t-52.5 7.5q-34 -10 -39 -10q-34 0 -57 14q-27 16 -27 48q0 8 5.5 23t10.5 19l26 22q8 8 14 89l-3 4
q-1 49 -1 73v25q0 7 3.5 22.5t3.5 22.5q0 47 -9 82q-8 15 -9 17q-4 7 -7.5 11.5l-6.5 8.5q-10 10 -18.5 20t-8.5 26q0 60 58 60q-2 0 0 -0.5t7 -1.5q38 -7 57 -7q9 0 28.5 1.5t28.5 1.5q42 0 57 -27q10 -19 10 -65q0 -6 -1 -15.5t-2.5 -20t-2.5 -19.5t-1 -15v-12t1 -15
q1 -11 1 -18v-10q0 -5 3 -146q0 5 -2 -11.5t-2 -36.5q0 -23 6 -33q5 -6 22 -25q15 -15 15 -39z"/>
            <glyph glyph-name="ntilde" unicode="&#xf1;" horiz-adv-x="653"
                   d="M513 886q0 -17 -63 -153q-48 -13 -55 -13q-36 17 -77 20q-5 1 -11.5 2t-13.5 3h-1q-6 3 -17.5 7.5t-17.5 7.5q-6 4 -15 9l-22 12q-6 -1 -12 -1.5t-13 -1.5q-5 -2 -13 -17l-9 -7l-2 -6l-4 -5q-5 -32 -35 -32q-38 0 -38 26q0 10 6.5 23l12.5 24q2 4 4 10.5t5 14.5
q21 49 59 84l28 3t10 1v-1q23 -8 45 -19.5t56 -15.5l20 -2q57 -21 59 -21q23 0 32 29l4 16.5l4 16.5q16 14 41 14q33 0 33 -28zM634 45q0 -33 -41 -47l3 2q-6 -2 -30 -2q-6 0 -16 1.5l-20.5 3l-20.5 3t-16 1.5q-12 0 -49 -6q-17 -2 -27 -2.5t-15 0.5l-16 2q-17 3 -28.5 19
t-11.5 33q0 12 19 49h2q7 12 27 25q13 9 13 42q0 6 -1 14.5t-1.5 18.5t-1.5 18.5t-1 14.5q0 7 2 20t2 20q0 -4 -1 2t-3 22q-1 10 -3 34q-2 22 -4 35.5t-4 18.5q-8 24 -36 37q-20 9 -23 9q-14 0 -34 -13q-22 -14 -26 -24q-4 -9 -4 -35v-89q0 -6 0.5 -16t1 -21.5t1 -21.5
t0.5 -16v-27q-1 -8 -1 -15v-11l4 -14.5l4 -15.5l32 -38q4 -12 4 -31q0 -14 -15 -33q-15 -18 -28 -18q-4 0 -8 3q-13 1 -43 3q-8 1 -11.5 1.5t-1.5 0.5q-31 -1 -60 -3t-58 -5q-2 0 -8 2.5t-16 5.5q-31 16 -31 53q0 8 14 36q4 3 12 12l24 48l5 70l-2 4v95q0 6 1.5 18.5
t1.5 18.5q0 2 -1 5.5t-1 5.5q1 26 1 38v13q0 19 -24 30q-9 4 -18 7t-17 7l-6 18q-5 17 -5 16q0 6 9 29q5 12 12 23q20 32 124 24v3q4 1 10.5 2t17.5 3q16 3 28 3q21 0 31 -10h1q13 -4 28 -24q12 -5 17 -5q16 0 38 13q24 14 37 15v3q25 12 87 12q16 0 45 -12v-3
q36 -16 48 -31q3 -5 27 -57h3l6 -14q2 -28 2.5 -41.5l0.5 -13.5q0 -4 -1.5 -10t-3.5 -16q-4 -17 -4 -25q0 -6 1 -14.5t2.5 -17.5t2.5 -17t1 -13q0 -4 -1 -5l-4.5 -28.5l-1.5 -9.5v-68q0 -53 7 -75l14 -16.5l14 -16.5q17 -23 17 -39z"/>
            <glyph glyph-name="oacute" unicode="&#xf3;" horiz-adv-x="692"
                   d="M553 876q0 -7 -5 -14q-12 -17 -36 -41q-1 -4 -4 -4q-4 -4 -12.5 -10.5l-22.5 -16.5q-32 -22 -52 -45q-3 -4 -7.5 -8.5t-9.5 -11.5l-6 -4.5t-18 -12.5q-20 4 -30 5.5l-10 1.5q-7 0 -21 -3t-21 -3q-15 0 -15 9q0 12 13 31l19.5 26.5t24.5 39.5l14 35.5t15 37.5q3 10 13 10
q7 0 34 -8q16 -6 42 -6q6 0 15 1.5l21 3.5q25 6 38 6q21 0 21 -19zM673 292q0 -1 -2.5 -8.5t-2.5 -8.5q-1 -7 -2 -16.5t-3 -23.5q-1 -5 -9 -21.5t-22 -42.5l-22 -39.5t-16 -26.5l-11.5 -16l-16.5 -22l-26 -16.5t-35 -20.5q-10 -3 -27.5 -12t-50.5 -24q-14 -4 -25.5 -6
t-19.5 -4q-15 -3 -77 -3q-38 0 -73.5 16l-70.5 33v1l-33 33q-26 22 -31 28l-10.5 12.5t-14.5 18.5q-3 2 -20 41l-12.5 32l-6.5 17q-16 10 -13 49q5 74 12 104q11 49 40 97q3 4 7 8.5t9 11.5q6 10 19 25q25 11 37 23q7 12 79 43q14 6 28 9q67 15 108 15q1 0 35 -7
q5 -1 10.5 -1.5t11.5 -1.5l21.5 -5.5t30.5 -8.5l26 -5q15 -3 41 -24q7 -5 20 -17h4v-2q36 -14 64 -64l9.5 -17l13.5 -24q6 -13 18 -49q3 -9 6 -26t3 -54zM479 242q0 22 -15 82l-1 1q0 1 -1 2q-27 58 -53 84q-23 22 -30 24l-52 16q-18 5 -28 5q-12 0 -28.5 -9l-30.5 -17
q-22 -43 -22 -68q0 -21 0.5 -36t1.5 -24q1 -2 3 -14t7 -34q2 -7 8.5 -19.5l17.5 -32.5q15 -27 38 -50q2 -1 8.5 -3.5t16.5 -7.5q2 -2 26 -6q13 -2 19 -3.5t7 -1.5q5 0 37 8q71 20 71 104z"/>
            <glyph glyph-name="ograve" unicode="&#xf2;" horiz-adv-x="692"
                   d="M440 718q0 -12 -20 -9l-36 6l-10.5 -1.5t-31.5 -5.5q-5 2 -11 6.5l-14 10.5l-4.5 5t-12.5 15q-23 28 -50 45q-8 4 -24 15l-12 12h-2l-17.5 21t-19.5 24q-7 6 -7 14q0 19 22 19q13 0 37 -6l22 -3.5t15 -1.5q26 0 43 6q24 8 35 8q9 0 12 -10q13 -52 51 -112l10 -13.5
l10 -13.5q15 -21 15 -31zM674 292q0 -1 -2.5 -8.5t-2.5 -8.5q-1 -7 -2 -16.5t-3 -23.5q-1 -5 -9 -21.5t-22 -42.5l-22 -39.5t-16 -26.5l-11.5 -16l-16.5 -22l-26 -16.5t-35 -20.5q-10 -3 -27.5 -12t-50.5 -24q-14 -4 -25.5 -6t-19.5 -4q-15 -3 -77 -3q-38 0 -73.5 16
l-70.5 33v1l-33 33q-26 22 -31 28l-10.5 12.5t-14.5 18.5q-3 2 -20 41l-12.5 32l-6.5 17q-16 10 -13 49q5 74 12 104q11 49 40 97q3 4 7 8.5t9 11.5q6 10 19 25q25 11 37 23q7 12 79 43q14 6 28 9q67 15 108 15q1 0 35 -7q5 -1 10.5 -1.5t11.5 -1.5l21.5 -5.5t30.5 -8.5
l26 -5q15 -3 41 -24q7 -5 20 -17h4v-2q36 -14 64 -64l9.5 -17l13.5 -24q6 -13 18 -49q3 -9 6 -26t3 -54zM480 242q0 22 -15 82l-1 1q0 1 -1 2q-27 58 -53 84q-23 22 -30 24l-52 16q-18 5 -28 5q-12 0 -28.5 -9l-30.5 -17q-22 -43 -22 -68q0 -21 0.5 -36t1.5 -24q1 -2 3 -14
t7 -34q2 -7 8.5 -19.5l17.5 -32.5q15 -27 38 -50q2 -1 8.5 -3.5t16.5 -7.5q2 -2 26 -6q13 -2 19 -3.5t7 -1.5q5 0 37 8q71 20 71 104z"/>
            <glyph glyph-name="ocircumflex" unicode="&#xf4;" horiz-adv-x="693"
                   d="M550 728q0 -13 -14 -13q-7 0 -21.5 1.5t-21.5 1.5q-8 0 -23 -1.5t-23 -1.5q-19 0 -26 9q-2 5 -4.5 12t-6.5 15q-11 20 -27 45.5t-37 55.5q-1 4 -5 4q-5 0 -8 -6l-1 -2q-34 -37 -44 -76t-14 -44q-10 -19 -39 -19h-52q-38 0 -42 6q-3 1 -3 6q0 8 15 25q10 11 22.5 28
t26.5 42l31 51t13 21q14 18 38 17q5 -1 8 -1t2 0q11 3 33 7t54 4q11 0 37 -10l19 -16q6 -12 21 -36q14 -16 32 -39l41 -54q1 -2 6 -11q13 -19 13 -21zM674 292q0 -1 -2.5 -8.5t-2.5 -8.5q-1 -7 -2 -16.5t-3 -23.5q-1 -5 -9 -21.5t-22 -42.5l-22 -39.5t-16 -26.5l-11.5 -16
l-16.5 -22l-26 -16.5t-35 -20.5q-10 -3 -27.5 -12t-50.5 -24q-14 -4 -25.5 -6t-19.5 -4q-15 -3 -77 -3q-38 0 -73.5 16l-70.5 33v1l-33 33q-26 22 -31 28l-10.5 12.5t-14.5 18.5q-3 2 -20 41l-12.5 32l-6.5 17q-16 10 -13 49q5 74 12 104q11 49 40 97q3 4 7 8.5t9 11.5
q6 10 19 25q25 11 37 23q7 12 79 43q14 6 28 9q67 15 108 15q1 0 35 -7q5 -1 10.5 -1.5t11.5 -1.5l21.5 -5.5t30.5 -8.5l26 -5q15 -3 41 -24q7 -5 20 -17h4v-2q36 -14 64 -64l9.5 -17l13.5 -24q6 -13 18 -49q3 -9 6 -26t3 -54zM480 242q0 22 -15 82l-1 1q0 1 -1 2
q-27 58 -53 84q-23 22 -30 24l-52 16q-18 5 -28 5q-12 0 -28.5 -9l-30.5 -17q-22 -43 -22 -68q0 -21 0.5 -36t1.5 -24q1 -2 3 -14t7 -34q2 -7 8.5 -19.5l17.5 -32.5q15 -27 38 -50q2 -1 8.5 -3.5t16.5 -7.5q2 -2 26 -6q13 -2 19 -3.5t7 -1.5q5 0 37 8q71 20 71 104z"/>
            <glyph glyph-name="odieresis" unicode="&#xf6;" horiz-adv-x="693"
                   d="M480 709q-19 0 -42 16q-18 12 -57 84v3q-6 13 -6 33q0 22 9 33q1 3 27 21q32 23 48 23l17 -6q1 0 13 -5l22.5 -7.5t30.5 -9.5h1q12 -9 20 -26q2 -29 3.5 -47.5t1.5 -25.5v-12q0 -18 -9 -25q-5 -5 -24 -15q-5 -2 -12 -6.5t-16 -9.5q-21 -18 -27 -18zM212 716q-35 0 -68 53
q-29 47 -29 84q0 18 40 46q34 23 48 23q3 0 41 -15q39 -14 42 -13l2 -1l7.5 -10.5l10.5 -14.5q2 -32 3 -52t1 -28v-12q0 -17 -31 -33q-50 -27 -67 -27zM674 292q0 -1 -2.5 -8.5t-2.5 -8.5q-1 -7 -2 -16.5t-3 -23.5q-1 -5 -9 -21.5t-22 -42.5l-22 -39.5t-16 -26.5l-11.5 -16
l-16.5 -22l-26 -16.5t-35 -20.5q-10 -3 -27.5 -12t-50.5 -24q-14 -4 -25.5 -6t-19.5 -4q-15 -3 -77 -3q-38 0 -73.5 16l-70.5 33v1l-33 33q-26 22 -31 28l-10.5 12.5t-14.5 18.5q-3 2 -20 41l-12.5 32l-6.5 17q-16 10 -13 49q5 74 12 104q11 49 40 97q3 4 7 8.5t9 11.5
q6 10 19 25q25 11 37 23q7 12 79 43q14 6 28 9q67 15 108 15q1 0 35 -7q5 -1 10.5 -1.5t11.5 -1.5l21.5 -5.5t30.5 -8.5l26 -5q15 -3 41 -24q7 -5 20 -17h4v-2q36 -14 64 -64l9.5 -17l13.5 -24q6 -13 18 -49q3 -9 6 -26t3 -54zM480 242q0 22 -15 82l-1 1q0 1 -1 2
q-27 58 -53 84q-23 22 -30 24l-52 16q-18 5 -28 5q-12 0 -28.5 -9l-30.5 -17q-22 -43 -22 -68q0 -21 0.5 -36t1.5 -24q1 -2 3 -14t7 -34q2 -7 8.5 -19.5l17.5 -32.5q15 -27 38 -50q2 -1 8.5 -3.5t16.5 -7.5q2 -2 26 -6q13 -2 19 -3.5t7 -1.5q5 0 37 8q71 20 71 104z"/>
            <glyph glyph-name="otilde" unicode="&#xf5;" horiz-adv-x="693"
                   d="M515 889q0 -14 -63 -152q-41 -12 -51 -12l-40 10l-41 10q-5 1 -11.5 1.5t-13.5 1.5h-3l-2 3q-34 8 -68 33q-6 -1 -12 -1.5t-13 -1.5q-6 -2 -13 -17l-9 -7q-2 -6 -6 -10q-5 -32 -35 -32q-38 0 -38 25q0 11 3 14l28 61.5t37 60.5q3 4 7.5 8.5l11.5 11.5q7 1 16 1.5t22 2.5
v-2l23 -8.5t23 -10.5q22 -12 75 -15q50 -22 59 -22q29 0 35 37l4 23q0 1 1 2q16 13 41 13q33 0 33 -28zM674 292q0 -1 -2.5 -8.5t-2.5 -8.5q-1 -7 -2 -16.5t-3 -23.5q-1 -5 -9 -21.5t-22 -42.5l-22 -39.5t-16 -26.5l-11.5 -16l-16.5 -22l-26 -16.5t-35 -20.5
q-10 -3 -27.5 -12t-50.5 -24q-14 -4 -25.5 -6t-19.5 -4q-15 -3 -77 -3q-38 0 -73.5 16l-70.5 33v1l-33 33q-26 22 -31 28l-10.5 12.5t-14.5 18.5q-3 2 -20 41l-12.5 32l-6.5 17q-16 10 -13 49q5 74 12 104q11 49 40 97q3 4 7 8.5t9 11.5q6 10 19 25q25 11 37 23q7 12 79 43
q14 6 28 9q67 15 108 15q1 0 35 -7q5 -1 10.5 -1.5t11.5 -1.5l21.5 -5.5t30.5 -8.5l26 -5q15 -3 41 -24q7 -5 20 -17h4v-2q36 -14 64 -64l9.5 -17l13.5 -24q6 -13 18 -49q3 -9 6 -26t3 -54zM480 242q0 22 -15 82l-1 1q0 1 -1 2q-27 58 -53 84q-23 22 -30 24l-52 16
q-18 5 -28 5q-12 0 -28.5 -9l-30.5 -17q-22 -43 -22 -68q0 -21 0.5 -36t1.5 -24q1 -2 3 -14t7 -34q2 -7 8.5 -19.5l17.5 -32.5q15 -27 38 -50q2 -1 8.5 -3.5t16.5 -7.5q2 -2 26 -6q13 -2 19 -3.5t7 -1.5q5 0 37 8q71 20 71 104z"/>
            <glyph glyph-name="uacute" unicode="&#xfa;" horiz-adv-x="622"
                   d="M522 876q0 -7 -4 -14q-6 -8 -15 -18t-22 -23q-1 -4 -4 -4q-4 -4 -11.5 -10.5t-22.5 -16.5q-29 -19 -52 -45q-3 -4 -7.5 -8.5t-10.5 -11.5q-9 -7 -23 -17q-20 4 -30.5 5.5l-10.5 1.5q-7 0 -21 -3t-21 -3q-16 0 -16 9q0 10 15 31l10 13.5l10 13.5l13.5 22.5l9.5 16.5
q11 32 30 73q1 10 12 10q8 0 34 -8q18 -5 41 -5q6 0 16.5 1.5t21 3.5t21 3.5t16.5 1.5q21 0 21 -19zM602 532q0 -6 -3 -9q-5 -14 -27 -27t-22 -53q0 -4 1 -11t1 -11q1 -27 0.5 -66.5t-2.5 -92.5q0 -5 -2.5 -15.5t-2.5 -16.5q0 -12 6 -57q6 -49 10 -54q3 -5 6 -9t5 -7
q9 -9 17.5 -18.5t8.5 -21.5q0 -59 -60 -59q-6 0 -7 3q-29 3 -32 3q-18 0 -46 -6q-29 -6 -42 -6q-27 0 -48 22q-21 23 -31 23q-12 0 -19 -5.5l-15 -11.5l-12 -6l-37 -19q-2 -1 -79 -7q-8 4 -26 9.5t-40 24.5q-21 19 -27 36l-11 30q-1 2 -7.5 14t-6.5 18v56q0 3 1 10t2.5 15.5
l3 17t1.5 14.5q0 9 -3.5 26.5t-3.5 26.5q0 2 2 4q6 24 6 126q0 10 -3 29.5t-3 26.5q-21 19 -24 31h-2q-11 20 -11 41q0 38 46 38q9 0 29 -3q14 -2 27 -3t27 -1q11 0 32 1.5t32 1.5q71 0 71 -37q0 -16 -34 -57q-6 -8 -10 -34q-2 -14 -3 -24t-1 -16t2.5 -18.5t2.5 -18.5
q0 -10 -2 -29.5t-2 -29.5q0 -3 1 -9.5t1 -8.5q0 -8 0.5 -20t1.5 -28q1 -2 2 -6.5t2 -9.5q1 -14 3 -27t12 -25h2q0 -8 2 -6q27 -18 31 -18q14 1 23 2t13 2q28 4 30 17l3 21q1 3 2 7t3 9q1 11 1.5 25.5t0.5 33.5v189q0 28 -18 46q-17 20 -17 34t10.5 26.5t24.5 12.5
q10 0 30 -4.5t30 -4.5h62q6 0 20.5 2.5t22.5 2.5q68 0 68 -51z"/>
            <glyph glyph-name="ugrave" unicode="&#xf9;" horiz-adv-x="623"
                   d="M375 718q0 -12 -20 -9l-36 6l-10.5 -1.5t-31.5 -5.5q-5 2 -11 6.5l-14 10.5l-4 5l-12 15q-1 1 -25 22q-12 11 -18.5 16.5t-7.5 6.5q-14 7 -36 27h-2q0 3 -22 26q-21 24 -21 33q0 19 21 19q13 0 37 -6l22 -3.5t15 -1.5q26 0 43 6q26 8 35 8t12 -10l5 -13q7 -20 24 -60
q3 -6 9 -15.5t14 -23.5l10 -13.5l10 -13.5q14 -20 14 -31zM604 532q0 -6 -3 -9q-5 -14 -27 -27t-22 -53q0 -4 1 -11t1 -11q1 -27 0.5 -66.5t-2.5 -92.5q0 -5 -2.5 -15.5t-2.5 -16.5q0 -12 6 -57q6 -49 10 -54q3 -5 6 -9t5 -7q9 -9 17.5 -18.5t8.5 -21.5q0 -59 -60 -59
q-6 0 -7 3q-29 3 -32 3q-18 0 -46 -6q-29 -6 -42 -6q-27 0 -48 22q-21 23 -31 23q-12 0 -19 -5.5l-15 -11.5l-12 -6l-37 -19q-2 -1 -79 -7q-8 4 -26 9.5t-40 24.5q-21 19 -27 36l-11 30q-1 2 -7.5 14t-6.5 18v56q0 3 1 10t2.5 15.5l3 17t1.5 14.5q0 9 -3.5 26.5t-3.5 26.5
q0 2 2 4q6 24 6 126q0 10 -3 29.5t-3 26.5q-21 19 -24 31h-2q-11 20 -11 41q0 38 46 38q9 0 29 -3q14 -2 27 -3t27 -1q11 0 32 1.5t32 1.5q71 0 71 -37q0 -16 -34 -57q-6 -8 -10 -34q-2 -14 -3 -24t-1 -16t2.5 -18.5t2.5 -18.5q0 -10 -2 -29.5t-2 -29.5q0 -3 1 -9.5t1 -8.5
q0 -8 0.5 -20t1.5 -28q1 -2 2 -6.5t2 -9.5q1 -14 3 -27t12 -25h2q0 -8 2 -6q27 -18 31 -18q14 1 23 2t13 2q28 4 30 17l3 21q1 3 2 7t3 9q1 11 1.5 25.5t0.5 33.5v189q0 28 -18 46q-17 20 -17 34t10.5 26.5t24.5 12.5q10 0 30 -4.5t30 -4.5h62q6 0 20.5 2.5t22.5 2.5
q68 0 68 -51z"/>
            <glyph glyph-name="ucircumflex" unicode="&#xfb;" horiz-adv-x="622"
                   d="M519 728q0 -13 -15 -13q-7 0 -21.5 1.5t-21.5 1.5q-8 0 -23 -1.5t-23 -1.5q-20 0 -24.5 9t-12.5 27q-23 40 -60 96l-4 5q-1 4 -6 4q-4 0 -7 -6l-2 -2q-33 -38 -43 -75t-14 -45q-10 -19 -38 -19h-50q-41 0 -45 6q-2 2 -2 6q0 12 13 25q8 8 20.5 25.5t29.5 44.5l21.5 36
l21.5 36q11 19 38 17q5 -1 8 -1t2 0q50 11 89 11q7 0 36 -10l19 -16q6 -12 21 -36l25.5 -32l25.5 -33q42 -54 42 -60zM603 532q0 -6 -3 -9q-5 -14 -27 -27t-22 -53q0 -4 1 -11t1 -11q1 -27 0.5 -66.5t-2.5 -92.5q0 -5 -2.5 -15.5t-2.5 -16.5q0 -12 6 -57q6 -49 10 -54
q3 -5 6 -9t5 -7q9 -9 17.5 -18.5t8.5 -21.5q0 -59 -60 -59q-6 0 -7 3q-29 3 -32 3q-18 0 -46 -6q-29 -6 -42 -6q-27 0 -48 22q-21 23 -31 23q-12 0 -19 -5.5l-15 -11.5l-12 -6l-37 -19q-2 -1 -79 -7q-8 4 -26 9.5t-40 24.5q-21 19 -27 36l-11 30q-1 2 -7.5 14t-6.5 18v56
q0 3 1 10t2.5 15.5l3 17t1.5 14.5q0 9 -3.5 26.5t-3.5 26.5q0 2 2 4q6 24 6 126q0 10 -3 29.5t-3 26.5q-21 19 -24 31h-2q-11 20 -11 41q0 38 46 38q9 0 29 -3q14 -2 27 -3t27 -1q11 0 32 1.5t32 1.5q71 0 71 -37q0 -16 -34 -57q-6 -8 -10 -34q-2 -14 -3 -24t-1 -16
t2.5 -18.5t2.5 -18.5q0 -10 -2 -29.5t-2 -29.5q0 -3 1 -9.5t1 -8.5q0 -8 0.5 -20t1.5 -28q1 -2 2 -6.5t2 -9.5q1 -14 3 -27t12 -25h2q0 -8 2 -6q27 -18 31 -18q14 1 23 2t13 2q28 4 30 17l3 21q1 3 2 7t3 9q1 11 1.5 25.5t0.5 33.5v189q0 28 -18 46q-17 20 -17 34t10.5 26.5
t24.5 12.5q10 0 30 -4.5t30 -4.5h62q6 0 20.5 2.5t22.5 2.5q68 0 68 -51z"/>
            <glyph glyph-name="udieresis" unicode="&#xfc;" horiz-adv-x="624"
                   d="M538 783q0 -18 -9 -25q-5 -5 -24 -15q-5 -2 -12 -6.5l-15 -9.5q-21 -18 -28 -18q-17 0 -42 16q-22 14 -56 84v3q-7 13 -7 33q0 22 9 33q1 1 8 6l20 15q32 23 47 23q3 0 42 -15q40 -14 42 -13q12 -9 20 -26q2 -38 3.5 -59.5t1.5 -25.5zM280 776q0 -17 -31 -33
q-50 -27 -66 -27q-36 0 -67 51q-25 41 -31 83v3q0 18 40 46q34 23 48 23q4 0 42 -15q39 -14 42 -13q0 -1 20 -26q3 -69 3 -92zM604 532q0 -6 -3 -9q-5 -14 -27 -27t-22 -53q0 -4 1 -11t1 -11q1 -27 0.5 -66.5t-2.5 -92.5q0 -5 -2.5 -15.5t-2.5 -16.5q0 -12 6 -57
q6 -49 10 -54q3 -5 6 -9t5 -7q9 -9 17.5 -18.5t8.5 -21.5q0 -59 -60 -59q-6 0 -7 3q-29 3 -32 3q-18 0 -46 -6q-29 -6 -42 -6q-27 0 -48 22q-21 23 -31 23q-12 0 -19 -5.5l-15 -11.5l-12 -6l-37 -19q-2 -1 -79 -7q-8 4 -26 9.5t-40 24.5q-21 19 -27 36l-11 30q-1 2 -7.5 14
t-6.5 18v56q0 3 1 10t2.5 15.5l3 17t1.5 14.5q0 9 -3.5 26.5t-3.5 26.5q0 2 2 4q6 24 6 126q0 10 -3 29.5t-3 26.5q-21 19 -24 31h-2q-11 20 -11 41q0 38 46 38q9 0 29 -3q14 -2 27 -3t27 -1q11 0 32 1.5t32 1.5q71 0 71 -37q0 -16 -34 -57q-6 -8 -10 -34q-2 -14 -3 -24
t-1 -16t2.5 -18.5t2.5 -18.5q0 -10 -2 -29.5t-2 -29.5q0 -3 1 -9.5t1 -8.5q0 -8 0.5 -20t1.5 -28q1 -2 2 -6.5t2 -9.5q1 -14 3 -27t12 -25h2q0 -8 2 -6q27 -18 31 -18q14 1 23 2t13 2q28 4 30 17l3 21q1 3 2 7t3 9q1 11 1.5 25.5t0.5 33.5v189q0 28 -18 46q-17 20 -17 34
t10.5 26.5t24.5 12.5q10 0 30 -4.5t30 -4.5h62q6 0 20.5 2.5t22.5 2.5q68 0 68 -51z"/>
            <glyph glyph-name="dagger" unicode="&#x2020;" horiz-adv-x="596"
                   d="M579 645q0 -14 -27 -23q-21 -6 -40 -6q-6 0 -14.5 1t-18 2t-18 2t-14.5 1q-40 0 -49 -12l-3 -36q0 -6 -3 -18.5t-3 -19.5q0 -6 1.5 -17l3 -22.5l3 -22.5t1.5 -17q0 -5 -2 -15.5t-2 -15.5v-31t-1 -43q-2 -8 -4 -18.5t-5 -24.5q-3 -17 -3 -40q0 -13 1 -27t3 -28
q2 -17 3 -23.5t1 -3.5v-35q0 4 2 -7.5t6 -38.5q6 -41 6 -51q0 -33 -17 -45q-14 -8 -49 -9h-11q-6 0 -16 -1h-26q-96 0 -96 46q0 18 0.5 30t1.5 17q0 3 3.5 11t3.5 11t-2 9t-2 9t1 9.5t1 9.5v101q-1 5 -1.5 15t-2.5 24q-2 12 -3 21.5t-1 16.5q0 4 2 12t4.5 17l4.5 16.5
t2 12.5q0 16 -3 48q-1 16 -1.5 28t-0.5 20q0 6 3 16.5t3 16.5v18q-1 6 -1 10v8v5q0 4 1 9v13q0 31 -15 40q-1 1 -18 1q-6 0 -15 -0.5t-20 -0.5q-10 0 -19 -0.5t-15 -0.5q-25 0 -43 5q-23 7 -31 15.5t-8 31.5v61q0 46 18 61q7 5 31 5q15 0 47 -3q16 -1 27 -1.5t19 -0.5
q22 0 30 4.5t14 24.5q1 3 1 12q0 24 -3 74q-1 25 -1.5 43.5t-0.5 31.5q0 64 25 73q1 1 10 1q10 0 29 -1t28 -1q4 0 12 1t15.5 2.5t14 2.5t9.5 1q55 0 59 -61q0 -4 1.5 -15.5t1.5 -17.5q0 -9 -5.5 -25t-5.5 -24q0 -10 6.5 -28.5t6.5 -28.5q0 -5 -1.5 -12.5t-4 -15t-4 -14
t-1.5 -9.5q0 -19 39 -19q14 0 43 3q14 2 25 3t18 1q43 0 59 -25v-129v0z"/>
            <glyph glyph-name="degree" unicode="&#xb0;" horiz-adv-x="297"
                   d="M278 724q0 -22 -28 -51q-65 -68 -105 -68q-32 0 -94 52q-32 26 -32 64q0 39 47 83q46 43 88 43q48 0 105 -76v-1q19 -25 19 -46zM199 721q0 18 -7 22q0 3 -9 11q-1 4 -5.5 8.5t-10.5 8t-12.5 6t-10.5 2.5q-8 0 -16 -5t-14.5 -12.5t-11 -16.5t-4.5 -16q0 -50 52 -50
q18 0 33.5 12t15.5 30z"/>
            <glyph glyph-name="cent" unicode="&#xa2;" horiz-adv-x="563"
                   d="M545 331q0 -32 -15 -54q-2 -2 -11.5 -13l-26.5 -31l-1 -4l-42 -32q-7 -6 -22 -14.5t-30 -14.5q-17 -11 -15 -27l6 -55q-1 -1 -1 -50q0 -33 -6 -42q-12 -20 -21 -18l-18 4q-25 -7 -29 -7q-36 0 -35 13l-3 3q-11 5 -11 36q0 4 1.5 12t1.5 12v84l-0.5 4l-1.5 12
q-9 1 -22.5 3t-30.5 5q-14 3 -27 10q-84 41 -119 98l-14 23l-15 25q-5 11 -8.5 29t-7.5 41q-3 19 -3 71l2.5 13.5l7.5 40.5q2 4 2.5 6.5t1.5 4.5l17.5 35t26.5 49l9 11l28 34q1 1 1.5 2t1.5 2l45 34q12 10 19.5 15.5t11.5 7.5q8 4 18 6.5t19 4t16 2.5t10 3q9 6 9 23
q0 1 -1.5 18.5t-5.5 52.5q0 5 7 19q0 3 4 7t10 7.5t12 6t10 2.5h43q5 -3 9.5 -6t9.5 -5q17 -14 15 -38q-1 -7 -1 -16v-19q0 -7 -3 -20t-3 -20v-3q1 -2 1 -4q5 -5 12 -5q4 0 12.5 1.5t12.5 1.5q29 0 63 -31h1v-3q4 -4 26 -37l11.5 -14t18.5 -20q15 -35 15 -42q0 -11 -5 -21.5
t-13 -19t-18.5 -14t-20.5 -5.5q-30 0 -43 9l-63 42q-4 2 -13 5t-25 5q-1 1 -17 1q-23 0 -27 -4q-31 -25 -52 -69l-3.5 -9l-10.5 -28q-3 -8 -3 -41q0 -69 30 -109q6 -8 10 -12.5t8.5 -7.5t10.5 -5.5t15 -5.5q22 -7 38 -7q10 0 51 19q28 13 43 33l22 30q4 6 20 11.5t25 5.5
q18 0 30.5 -17t12.5 -36z"/>
            <glyph glyph-name="sterling" unicode="&#xa3;" horiz-adv-x="964"
                   d="M945 211q0 -18 -9 -34q-13 -22 -38 -70l-18 -13l-25 -18q-2 -1 -5.5 -3t-8.5 -4q-13 -8 -24 -15.5t-19 -14.5q-4 -4 -9.5 -9l-13.5 -12l-14.5 -6l-43.5 -18q-4 -1 -52 -6q-1 0 -5 -1t-5 -1q-31 2 -66 6t-76 10l-31.5 16.5l-44.5 22.5l-6 -1q-7 -3 -16.5 -7.5t-22.5 -9.5
q-3 -1 -7.5 -1.5t-9.5 -2.5l-39 -15q-26 -8 -40 -7q-5 1 -7 1t-1 0q-30 -4 -57 -5.5t-50 -1.5q-6 0 -50 16q-23 8 -38 14.5t-23 10.5q-11 13 -29 38l-1 4h-1l-3 4.5t-7 11.5t-7 16t-3 18q0 32 10 45q14 59 24 71q4 6 67 46q43 28 62 28q8 0 27 -8q24 -11 67 -12v-3
q6 1 15.5 -1.5t13.5 -2.5q16 0 16 15q0 32 -40 56q-34 22 -69 22h-12q-5 -1 -11 -1q-11 0 -21.5 9.5t-10.5 20.5q0 50 18 62l27 18q15 10 15 28q0 15 -5 33q0 2 -9 22q-6 13 -6 23q1 9 1 18v21q0 8 1.5 19.5t5.5 27.5q8 38 14 44q3 4 5 7t7.5 10l15.5 20.5t30 38.5l12 18
q4 3 9 7.5t13 10.5q70 18 86 18h24q4 -2 10 -4t14 -4q2 0 5.5 -0.5t8.5 -1.5q26 -7 38.5 -10l12.5 -3l74 5l2 3q67 6 69 6q10 0 30 -10q23 -11 26 -17l34 -48q1 -1 2 -1.5t3 -2.5q4 -7 10 -16l14 -22l10 -12t10 -11q11 -14 11 -29q0 -7 -7 -20q-20 -36 -57 -36q-12 0 -20 7
q-15 12 -16 12l-34 14v3q-4 2 -9.5 5.5l-13.5 8.5q-4 2 -10 4.5t-14 6.5l-13 10l-18 14q-22 17 -80 19v-4q-22 -2 -29 -11q-19 -22 -29 -35t-12 -17t-5.5 -19.5t-8.5 -43.5q-1 -5 -1.5 -9.5t-0.5 -6.5q0 -30 18.5 -57.5t47.5 -33.5q8 -2 12 -2.5l4 -0.5l6 0.5t19 2.5
q4 0 16 -4t18 -4q14 0 46 7q3 1 27 1q63 0 63 -47q0 -38 -28 -69l-3 -1q-5 -1 -20 -6l-47 3q-6 1 -30 -7q-21 -8 -20 -14q4 -29 5.5 -43.5l1.5 -14.5q0 -5 -0.5 -14.5t-1.5 -25.5q-2 -8 -12 -30q-9 -20 -9 -31q0 -10 20 -22q56 -32 68 -32q7 0 8 1q5 1 13 2t20 2q13 1 44 28
t31 40q0 2 -2 4l-5 28q-1 1 -1 3q0 28 28 63l2 2l3 3q47 26 63 26q19 0 29 -7l7 -7t14 -13q18 -17 28.5 -28t13.5 -15q21 -26 21 -55zM293 144q0 17 -22 33q-41 32 -58 32q-5 0 -14 -10.5t-13 -13.5q-3 -3 -3 -8q0 -31 16 -56q19 -28 48 -28q19 0 32.5 16t13.5 35z"/>
            <glyph glyph-name="section" unicode="&#xa7;" horiz-adv-x="537"
                   d="M518 159q0 -78 -18 -118q-2 -4 -5 -8.5t-7 -11.5q-6 -12 -16.5 -30t-26.5 -41q-2 -4 -6.5 -9.5t-9.5 -13.5q-8 -6 -21 -18q-4 -6 -10 -14t-15 -19q-8 -4 -20 -9t-28 -13q-31 -18 -85 -30q-51 -13 -89 -13q-39 0 -65 13q-7 4 -21 13t-34 25q-22 16 -22 26q0 5 3 10
q0 24 17 44t41 20q21 0 39 -30q1 -2 33 -28q28 -22 65 -26q44 32 45 32q5 0 8 -1h8q7 13 14 33q1 11 9 40q-8 27 -33 85l-21 33l-30 47q-2 5 -5 11.5t-8 14.5l-22 31.5l-30 44.5q-32 46 -42 66q-11 19 -19.5 36.5t-14.5 34.5q-30 84 -30 145q0 59 25 127q13 33 28 61.5
t34 51.5q11 14 29.5 30t44.5 33q5 4 12.5 9.5t18.5 12.5q49 26 50 26q2 0 3 -1h3q1 0 7 2q39 14 96 14q58 0 86 -25q22 -20 21 -54v-14q-30 -38 -51 -38q-29 0 -58 28t-56 28q-79 0 -79 -77q0 -10 2 -24.5t6 -34.5q9 -42 88 -160l39 -28q4 -23 35 -77q29 -49 45.5 -80
t21.5 -44q21 -54 21 -138zM195 641q0 4 1.5 12.5t1.5 12.5q0 28 -6 43q-40 -53 -40 -136q0 -43 12 -88l7.5 -12.5t9.5 -18.5q1 -6 3.5 -15t6.5 -21l14 -25q5 -13 13.5 -31l19.5 -43l18 -33q4 -5 9.5 -12.5l13.5 -18.5q6 -18 19 -47q4 -8 11.5 -19.5t15 -28t14.5 -39
t11 -52.5q2 -15 3 -24t1 -11q0 -28 17 -34h3q20 0 36 43q12 33 15 62q1 5 1 11v15q0 107 -53 178q-8 11 -18 23.5t-23 26.5q-14 7 -14 20t-8 26q-7 13 -13 25.5t-18 34.5q-8 10 -18.5 22t-21.5 28l-8.5 24l-25.5 72q-10 27 -10 30z"/>
            <glyph glyph-name="bullet" unicode="&#x2022;" horiz-adv-x="335"
                   d="M315 447q0 -29 -14 -62q-17 -36 -41 -47q-18 -8 -19 -15q0 -2 -1 -4h-6l-35 -14l4 3q-14 -2 -23.5 -3t-14.5 -1q-2 0 -7 0.5t-13 1.5q-62 7 -91 45h-2q-1 8 -17 33q-12 19 -15 72q3 0 3 12q0 8 13 43q10 29 22 43q11 12 43 29t48 17q3 0 15.5 -3t18.5 -3h16t22 -1
q10 -2 29 -16q65 -48 65 -130z"/>
            <glyph glyph-name="paragraph" unicode="&#xb6;" horiz-adv-x="589"
                   d="M481 885q5 -82 7.5 -129.5t2.5 -61.5q0 -11 -0.5 -22t-1.5 -22q-1 -3 -1.5 -10.5t-2.5 -19.5q-3 -20 -3 -31t1 -28t3 -40l3.5 -39t1.5 -28t-1 -26.5t-3 -37.5t-3 -37.5t-1 -26.5q0 -10 3.5 -29t3.5 -29q0 -6 -0.5 -16.5l-1 -21.5l-1 -21.5t-0.5 -16.5v-18q1 -6 1 -11v-7
q0 -13 -5 -33t-5 -31q0 -6 1.5 -17t4 -22t4 -22t1.5 -17q0 -42 -2 -73.5t-6 -54.5h-44q-9 52 -9 118q0 20 6 61q6 42 6 63q0 9 -5.5 25.5t-5.5 24.5q0 2 -0.5 6.5t-1.5 12.5q-1 6 -1 10v9q0 8 3.5 23.5t3.5 23.5t-1.5 22.5t-1.5 22.5q0 2 1 7t1 7q1 5 1 11v17v37q0 23 1 52
t1.5 51.5t0.5 37.5q0 5 -1 14t-1 14q0 6 1.5 18.5t1.5 18.5v59v43q1 14 1 25v18q0 10 -1 28.5t-1 28.5v45q1 19 1 30v15h-94q-5 0 -12.5 3t-9.5 3q-3 0 -4 -6q0 -1 -2 -29t-5 -85v-11q-1 -10 -0.5 -25.5t2.5 -35.5t3 -34.5t1 -24.5q0 -5 2.5 -12.5l5 -15.5l5 -15.5
t2.5 -11.5q0 -6 -5.5 -15t-5.5 -14q-2 -29 -3 -52t-1 -42q0 -13 1.5 -31.5t5.5 -44.5q4 -25 6 -44t2 -32q0 -11 -4.5 -31.5t-4.5 -31.5q0 -6 2 -18.5t2 -19.5q0 -8 -1.5 -19l-3.5 -26t-3 -26t-1 -18v-20v-214h-42q-5 75 -8 135.5t-3 109.5q0 8 1.5 19.5l3.5 26.5q6 31 6 46
q1 20 1 32v20v67q0 6 -3 18t-3 18q0 18 5 35q-85 0 -121 11q-10 3 -20 12q-15 13 -18 14.5t-8 3.5q-33 24 -56 74q-17 37 -23 120q0 5 -2 13.5t-4 18t-3.5 18.5t-1.5 15q0 36 37 97q23 39 63 61q18 11 51 19l51 12q26 8 118 15l68.5 6t27.5 2q26 0 59.5 -2t76.5 -6v-32h-89z
"/>
            <glyph glyph-name="germandbls" unicode="&#xdf;" horiz-adv-x="784"
                   d="M758 195q-17 -64 -39 -95q-27 -41 -79 -66l-12 -6q-2 -2 -5 -4.5t-7 -6.5q-9 -7 -41 -13l-27 -3.5t-22 -1.5q-2 0 -8 0.5t-16 1.5q-20 2 -21 1q-6 -1 -15 -1.5t-20 -2.5q-4 -2 -10 -3.5l-14 -3.5q-5 -1 -13 -1.5t-19 -0.5q-15 0 -43 5q-7 4 -15 7.5t-8 7.5l-3 2
q-2 0 -7 8q-11 24 -11 47q0 24 21 41q19 16 44 17q5 0 11.5 0.5t14.5 1.5q13 3 21 3q4 0 43 -12q1 -1 4 -1q24 0 50 25q27 26 32 49q7 32 7 57q0 38 -21 83q-4 9 -8 16.5t-8 12.5h-3q-6 4 -8 5t-13 6l-32 14q-2 0 -4 -1h-4q-4 0 -20 3l-4 -1t-8.5 -1.5t-9 -1.5t-5.5 -1
q-34 0 -52 19v3l-3 2q-2 1 -13 27q-3 7 -3 30q0 5 2 11q1 8 9 19q13 19 24 21q19 2 33 10h19q13 -6 21 -6q10 4 18 6v3q37 7 37 86q0 31 -10 55q-14 32 -38 35v3l-38 5v-2q-42 6 -52 6q-42 0 -59 -14q-20 -17 -20 -57v-17q0 -9 1 -23v-39l-1.5 -17.5t-3.5 -52.5
q-1 -14 -1.5 -27.5t-0.5 -26.5q0 -27 0.5 -44t1.5 -24q2 -15 3 -24.5t1 -13.5q-1 -17 -1 -28v-14q1 -23 1 -35q0 -11 0 -10q0 -15 -0.5 -37.5t-1.5 -52.5q0 -5 -1 -13t-2 -17.5l-2 -18.5t-1 -15q0 -10 3 -29.5t3 -29.5q0 -45 -31 -45q-3 0 -36 13h-5t-8 1h-13q-6 0 -16 -1.5
t-21 -3.5t-21 -3.5t-16 -1.5q-12 0 -37 5q-27 6 -31 13v2q-6 -2 -18 30q-3 1 -3 27q0 34 41 55q29 14 29 39l1 121q0 4 1.5 12t1.5 12q0 2 -1 6t-1 6v46l-10 20l-15 2q-23 13 -26 16q-4 4 -17 28q0 5 -1 9v9q0 2 -1 5.5t-1 5.5q0 18 15 41q17 23 33 23h7q2 -1 6 -1q5 0 7 1
q0 9 0.5 27.5t1.5 46.5q0 3 -0.5 10t-1 15l-1 15.5t-0.5 10.5v3q0 6 -3 21t-3 23q0 52 38 87q5 4 12 9t17 10l15.5 8t15.5 9q11 5 34 9q19 4 79 4h10t14 -1h23h26t22 1q2 0 6.5 1t6.5 1q3 0 17.5 -1t40.5 -3l52 -4q19 -2 71 -41q2 -2 9 -6l19 -11v-2q14 -12 22 -21t12 -14
q11 -16 20 -48q8 -30 8 -66q0 -28 -16 -69q-15 -42 -33 -69l-2 -3q0 -11 23 -22q67 -31 90 -80q26 -57 29 -74q1 -5 1 -26v-59z"/>
            <glyph glyph-name="trademark.002" horiz-adv-x="957"
                   d="M936 799q-7 -5 -13 -10t-11 -10q-5 -15 -5 -61q0 -8 -2 -24.5t-2 -24.5v-58q0 -12 1 -23t3 -21q-8 -34 -8 -51q0 -10 3 -35q1 -11 1.5 -20t-0.5 -17l29 -33q-5 -11 -25 -11q-22 0 -29 -6q-11 0 -32 -1t-32 -1q-12 0 -18 2v27q26 23 26 39q0 4 -2 10t-2 9v20q0 13 3 18
q0 4 1 10.5t1 9.5v101q0 12 1 23t3 21q4 20 5.5 30.5t2.5 12.5l-9 10l-41 -88q0 -24 -30 -85l-17 -34.5l-18 -34.5q-2 -7 -5 -16t-6 -20l-18 -29q-5 -14 -18 -34q-2 3 -4 7.5t-6 10.5q-2 4 -5.5 8.5l-8.5 11.5q-2 7 -5.5 16.5l-8.5 22.5l4 11l-25 28q0 7 -9 24q-9 5 -18 17
q-5 16 -18 46l-23 41l-24 44l-27 32q6 -35 6 -46v-39q-1 -13 -1 -22v-16q0 -6 1 -17.5t1 -17.5v-58q0 -3 1.5 -10.5t1.5 -11.5q0 -5 -1 -10v-11q7 -4 15 -14q2 -4 4.5 -8.5t6.5 -9.5q13 -16 13 -21t-3 -9q-6 0 -17.5 -1t-16.5 -1t-14.5 1t-14.5 1h-22q-7 -1 -12 -1h-9
q-15 0 -15 11q38 29 38 53v43q0 11 5 30t5 27v34q-1 11 -1 20v14q0 42 -8 61l9 45q0 12 -13 28q-3 4 -3 29q-5 7 -12 8q-4 4 -8 7t-9 6q-15 12 -15 26q9 4 19 4q7 0 28 -7l9 5q19 0 30.5 -0.5t16.5 -1.5l15 -3h8q4 4 8 4q-2 0 2 -1.5t14 -3.5q4 -7 4 -14q0 -5 -4 -14.5
t-4 -13.5q0 -16 13 -25q5 -7 11 -16.5l14 -22.5l5 -12.5t8 -15.5l12 -15t17 -20v-18q6 -8 23 -61q15 -45 29 -51q8 -2 14 -2q18 0 23 14q5 18 11.5 45l14.5 63q1 15 49 107l12 32l17 44h43q7 0 22 -3t22 -3h23v-29zM383 810q0 -8 -5.5 -20t-6.5 -17q-4 -4 -4 -9t4 -10
q0 -4 -7 -17l-17 -2q-13 36 -17 42q-11 19 -36 24q-4 -2 -10 -2t-19 3t-19 3q-8 -8 -8 -42q0 -6 1 -15t2.5 -18.5t2.5 -18.5t1 -15q0 -7 -3.5 -21t-3.5 -21v-93q0 -10 1 -31t1 -31q0 -56 17 -71l21 -12q14 -8 14 -20q0 -2 -2 -8q-95 9 -90 9q-41 0 -75 -8l-11 16
q25 22 32 29q13 16 13 40t-3 72q-1 25 -1.5 43t-0.5 30q0 8 1.5 23.5t1.5 23.5v82q0 5 -1 16t-1 16l-32 30q-5 -3 -11.5 -6.5t-13.5 -8.5q-5 -1 -11.5 -3.5t-16.5 -7.5q-5 -14 -30 -41h-12q-5 8 -5 23v12q1 5 1 12q0 12 -1 24t-3 23h53q2 0 7 -1.5t7 -1.5q4 1 12 6
q6 0 18.5 1t18.5 1q2 0 13 -6l12 -2t12 -3h36q-3 0 20 3q24 3 44 3q16 0 18 -1q24 -7 29 -7q-2 0 1.5 0.5t11.5 1.5q5 1 12 1t17 1l12 3l9 -8v-18z"/>
            <glyph glyph-name="acute" unicode="&#xb4;" horiz-adv-x="307"
                   d="M289 824q0 -8 -5 -13q-5 -7 -14 -17l-22 -24q-2 -5 -17 -16q-4 -2 -9 -6.5t-13 -9.5q-1 -1 -9 -7.5t-22 -19.5q-6 -3 -21 -17q-2 -4 -6.5 -9t-9.5 -12l-6 -4l-18 -12l-30.5 4.5l-10.5 1.5q-7 0 -21 -2.5t-21 -2.5q-15 0 -15 9q0 11 14 31l10 13.5l10 13.5l13.5 22.5
l9.5 16.5l6 15l18 44l5 15t13 9q6 0 16 -2t20.5 -5t21 -5t18.5 -2q6 0 16 1.5t20.5 3.5t21 3.5t16.5 1.5q21 0 21 -19z"/>
            <glyph glyph-name="dieresis" unicode="&#xa8;" horiz-adv-x="493"
                   d="M385 634q-17 0 -41 15q-23 15 -57 84v4q-7 13 -7 33q0 22 8 33q2 1 28 21q32 23 48 23q4 0 18 -6q10 -4 26 -9.5t39 -12.5h1q12 -9 20 -26q2 -29 3.5 -47.5t1.5 -26.5v-11q0 -18 -9 -25q-5 -5 -24 -15q-5 -2 -12 -6.5l-15 -9.5q-21 -18 -28 -18zM118 641q-36 0 -69 53
q-29 47 -29 85q0 17 40 45q34 23 48 23q1 0 5 -1.5l13 -5t24.5 -9t39.5 -12.5h2l9 -11.5t10 -14.5q2 -32 3 -52t1 -28v-13q0 -16 -31 -32q-50 -27 -66 -27z"/>
            <glyph glyph-name="AE" unicode="&#xc6;" horiz-adv-x="1372"
                   d="M1236 -8q-37 -11 -47 -8l-40.5 10.5t-42.5 12.5l-130 3q-3 0 -10 1t-11 1l-19.5 -3l-57.5 -9q-2 -1 -19 1q-35 6 -85 6q-4 0 -11.5 -2t-10.5 -2q-20 -2 -32 -3t-15 -1q-34 0 -59 15q-30 19 -30 51q0 2 1 5t1 5l-1 2q2 3 4 7.5t6 10.5l4 3v5q11 11 24 17q0 1 2 3
q22 10 22 28q0 12 -14 37q-14 26 -37 33q-17 5 -50 5q-8 0 -23.5 -1.5t-23.5 -1.5q-2 0 -6.5 1t-6.5 1h-59h-56q-19 -1 -33 -1h-24l-24 -27t-12 -33q0 -29 15 -51l15 -21l1 -1q4 -23 4 -34q0 -30 -30 -55q-9 1 -14 1h-4q-4 0 -11.5 -2t-10.5 -2h-45q-19 0 -48 8
q-26 -6 -93 -6q-70 0 -70 61q0 17 9 31q1 1 1 2l1 2h3q-1 3 6 13l21 18l5 1v1l2 1q0 5 21 10v3q15 5 25.5 14.5t17.5 13.5q2 4 4 9t4 11h4v5l46 94l18 57q6 9 14 27.5l23 54.5q5 8 15 26.5t27 59.5q1 6 8 23q5 13 11 25l12 24l9.5 17l13.5 24l21 48l13 17.5t18 25.5
q-8 10 -17 19t-17 18q-22 25 -22 45q0 29 39 40q28 9 63 6q11 -1 27 -2t38 -3q8 -2 19 -3.5l25 -3.5q3 0 6.5 -0.5t8.5 -1.5q39 -13 59 -13q-8 0 27 3q10 0 28.5 3t55.5 11q4 1 8 1q5 0 12 1q22 3 16 3h14t42 -1q25 0 111 -74h5l23 -15.5l57 -38.5q48 -32 48 -73
q0 -16 -13 -36q-14 -20 -26 -17q-14 3 -30 6t-26 11q-5 5 -12 11l-17 14l-21.5 11t-31.5 18q-1 2 -13 4.5t-33 14.5q-18 12 -29 16q-14 4 -39 12q-10 2 -31 4t-54 4h-3q-33 1 -33 -46q0 -18 28 -90q19 -49 25 -59q19 -36 48 -36q13 0 21.5 8t6.5 20q-5 26 -7.5 43t-2.5 24
q0 26 6 37q8 14 33 14q30 0 76 -41q6 -5 13.5 -15.5l17.5 -24.5l1 -1l9.5 -24t12.5 -34q1 -9 7 -28t27 -64l10.5 -21.5l31.5 -66.5q7 -14 7 -43q0 -19 -12.5 -34t-31.5 -15q-12 0 -25 5t-26 12.5t-23.5 17.5t-16.5 21l-32 54q-2 2 -4.5 5l-6.5 8h-3q-22 25 -39 25
q-18 0 -18 -17q0 -8 21 -59q14 -35 45 -92q28 -50 74 -49q9 -1 21.5 -0.5t29.5 1.5q48 7 91 17t83 24q44 16 70 48l14 5.5t21 7.5l-1 2h21l1 -2q40 -6 63 -57q10 -23 10 -35l-2.5 -10.5l-7.5 -32.5q-1 -4 -1.5 -8.5t-2.5 -10.5q-7 -16 -49 -71l-6 -6q-8 -4 -20 -11zM568 388
q0 13 -2 17l-12 20l-17 28q-5 11 -11.5 27l-15.5 37q-2 2 -16 38q-10 28 -26 28q-15 0 -19 -12.5t-11 -32.5q-2 -2 -3.5 -5l-3.5 -7q-5 -11 -11 -23t-11 -25q-2 -7 -6.5 -17t-9.5 -24q-5 -8 -9 -15.5t-9 -15.5q-12 -23 -12 -34q0 -22 32 -22q4 0 11.5 1.5l15.5 3t15.5 2.5
t12.5 1l64 -6q9 2 18.5 3.5t17.5 5.5t13 10t5 17z"/>
            <glyph glyph-name="Oslash" unicode="&#xd8;" horiz-adv-x="917"
                   d="M897 393q0 -15 -34 -120q-3 -11 -11 -28t-34 -58q-15 -21 -60 -68l-3 -1.5t-9 -5.5q-3 -3 -7.5 -7l-10.5 -9l-72 -45q-8 -5 -15 -10.5l-14 -10.5q-17 -11 -34 -15.5t-52 -12.5q-11 -1 -28 -2t-40 -3l-58.5 -6t-22.5 -2l-50.5 18l-71.5 27q-8 5 -17 9t-17 9q-21 10 -36 12
v-2q-1 -2 -2 -4.5t-3 -6.5q-7 -13 -16 -28t-22 -33l-33 -37q-7 -2 -14 -3.5t-15 -3.5q-8 0 -16 5t-14.5 12.5t-10.5 16.5t-4 17q0 3 2 11.5t2 10.5q18 37 31 50q1 0 5 4h1q2 2 4 5q11 18 29 34q19 18 19 21q0 11 -10 22q-8 10 -20 23.5t-26 32.5l-15 33t-6 13l-17.5 61
l-24.5 85q-4 12 -4 28q0 11 7 29q7 25 9 30q-1 -3 -1 17q0 3 2 10t2 9q1 5 1 12q0 8 1 18q1 5 5 15.5t12 25.5q17 33 25 42q5 5 12.5 14t18.5 20q6 3 21 17l17.5 22l24.5 30q5 3 12.5 10.5t23.5 20.5q1 1 71 36q8 5 28 14q1 2 13 7q46 18 90 18h54t28 -1q36 -3 79 -15
l22.5 -7t16.5 -6q12 -7 31 -15.5l45 -19.5q10 36 40 66q5 1 11 7.5t13.5 13.5t17.5 12.5t22 5.5q5 0 31 -23q18 -17 18 -26q0 -16 -21 -40l-27 -34t-29 -27l-16 -10l-5 -3q0 -4 20 -18q20 -12 23 -17q3 -4 10 -10q33 -35 64 -87q4 -8 7 -12q2 -9 5.5 -22.5t7.5 -32.5v-8
q0 -4 1 -10q3 -9 6 -22.5l7 -30.5v-63zM535 647q-2 2 -16.5 9.5l-40.5 21.5l-63 12l-13.5 -1l-40.5 -3q-17 -6 -66 -57l-4 -6q-43 -104 -43 -114v-54l6 -27q4 -16 7.5 -35t8.5 -42q9 -10 23 -34l15 10q7 13 51 63q10 11 24 29l33 41q4 8 10.5 18t14.5 24q9 12 38 43
q4 3 8.5 7.5l10.5 10.5l10 15l14 20q12 10 30 31zM679 376q0 22 -7 35q-4 7 -7.5 20l-8.5 32q-7 37 -17 57l-12 19l-16 25q-27 -65 -70 -111q-6 -7 -19 -19q-8 -5 -21 -15l-11 -13.5t-34 -39.5q0 1 -2 -5h-3q-9 -13 -29.5 -33.5t-52.5 -48.5q-27 -24 -27 -36q0 -6 13 -19
q15 -18 49 -46q4 -2 9 -4t12 -6l38 -22.5t39 -11.5q47 0 64 14l21 17l28 23l10.5 14.5t7.5 11.5l6 18l18 53l2 4l3 6l17 62v19z"/>
            <glyph glyph-name="plusminus" unicode="&#xb1;" horiz-adv-x="526"
                   d="M507 380q0 -61 -99 -68q-25 -2 -35 -3t-5 -1q-10 0 -17 -0.5t-12 -1.5q-1 -1 -2 -1l-1 -1q0 -4 3 -12t3 -11q1 -7 1.5 -13.5t0.5 -13.5q0 -16 -3 -47q-7 -73 -66 -73q-67 0 -71 99q0 10 -1.5 27t-1.5 48q-1 1 -3 1q-7 0 -19 -5l-70 2q-32 1 -60 24q-5 4 -15 17l-15 44
q0 5 5 17q10 25 63 37q37 9 80 9q5 0 15 -1t15 -1l2 1q0 5 -2 15.5t-2 15.5q0 21 13 82q1 7 13 23q14 17 19 18l44 15q5 0 18 -7q21 -10 32 -45q0 -1 2.5 -14.5l7.5 -40.5l3.5 -24.5t1.5 -18.5q0 -6 -6 -22q0 -3 17 -3q4 0 15.5 2t17.5 2q4 0 14.5 -1.5t27.5 -3.5
q37 -6 53 -17q19 -13 19 -49zM507 46q0 -40 -126 -43q-6 0 -20 -1t-22 -1h-22t-23 1q-4 0 -12.5 1t-13.5 1t-15.5 -1.5t-15.5 -1.5h-18q-7 1 -12 1h-6q-4 0 -11 -1t-11 -1l-17.5 0.5l-52.5 1.5q-61 1 -75 26l-15 27q0 2 5 10q20 29 175 29q14 0 33.5 -0.5t45.5 -1.5t46 -1
h34h11q7 0 17 1h28q9 0 24 -2t36 -6q33 -6 33 -38z"/>
            <glyph glyph-name="yen" unicode="&#xa5;" horiz-adv-x="993"
                   d="M974 791q0 -5 -2 -12t-5 -14.5t-6 -13.5t-6 -8q-2 -2 -5 -4.5t-6 -5.5q-16 -7 -36 -17.5t-46 -26.5q-52 -45 -76 -73q-4 -5 -9 -12t-13 -17l-17 -17l-24 -24l-5 -7.5t-8 -9.5l-11.5 -9t-14.5 -12l-24 -39q146 0 197 -6t51 -38q0 -39 -162 -42q-8 0 -24.5 -0.5t-41.5 -1.5
q-20 -1 -36.5 -1.5t-29.5 -0.5l1.5 -42.5t0.5 -16.5q4 -1 18 -1h41t71 1q5 0 15.5 -0.5t27.5 -1.5q59 -4 70 -6q49 -9 49 -37t-94 -37l-120 -6q-11 -1 -31 -1.5t-49 -0.5q0 -1 -1.5 -14t-3.5 -39q0 -3 2 -6.5t2 -21.5q0 -17 4 -20l36 -27q6 -4 11 -20t5 -25q0 -52 -53 -57
v-1h-45v1q-5 0 -13 1.5l-19 3.5q-25 5 -30 4q-62 -9 -88 -9v-1h-29v1q-4 1 -10.5 1.5t-17.5 0.5t-20 21q-9 18 -9 31q0 4 2 11t5 14.5t6 13.5t6 9l37 32l2 4q2 31 2.5 54.5t-0.5 39.5l-30 -3h-79t-41 1q-40 2 -69 8.5t-48 16.5l-25 28q2 2 4 4.5l5 6.5q11 11 73 20
q25 4 76 5.5t130 1.5q0 18 -8 58q-9 -1 -14 -1h-4q-19 0 -48 0.5t-67 1.5q-10 1 -23.5 2t-32.5 3q-36 4 -66 20l-25 28l3 3t6 7q23 26 212 29l-11.5 11.5t-16.5 15.5l-4 2t-4 3l-37 44q-19 19 -45 48.5l-60 70.5q-5 8 -13 16.5t-19 18.5q-3 1 -7 3t-9 4q-6 4 -18 10t-25 10
q-5 2 -20 17q-16 17 -16 37q0 26 18 42t44 16h9q4 -1 9 -1h54q3 0 10 -1.5t15 -3t15 -3t12 -1.5t13.5 3t12.5 3l15.5 1.5l46.5 4.5q-6 -1 14 -0.5t55 -4.5q1 -1 12 -1q27 0 37 -16q7 -10 13 -40l-29 -46v-3q0 -15 89 -101l15.5 -16l15.5 -16q22 -21 38 -21q3 0 13.5 3
t14.5 3q8 11 20.5 25.5l29.5 34.5q1 3 3 3q3 7 13 17l21.5 21.5t21 25t9.5 27.5q0 9 -15 23q-14 16 -14 32q0 24 20 37t45 13h25l75 -12h10q6 0 14.5 1.5t18 3.5t18 3.5t14.5 1.5q11 0 22.5 -4t20.5 -10.5t15 -16t6 -19.5z"/>
            <glyph glyph-name="mu" unicode="&#xb5;" horiz-adv-x="742"
                   d="M591 -1q-34 0 -65 19q-42 27 -63 111q-50 -131 -160 -131q-89 0 -122 36q-10 12 -20 40q-11 32 -17 41q1 -21 3 -81q0 -7 3 -20.5t3 -21.5q0 -12 -8 -44q-5 -17 -7 -28.5t-3 -16.5l-3.5 -34t-1.5 -22t1.5 -25t1.5 -25q0 -60 -47 -60q-22 0 -28 7q-30 16 -30 101v13
q0 7 1 17v30q0 4 -4 27.5t-4 50.5q0 6 1.5 13.5l3.5 17.5q4 14 5.5 21.5t2.5 9.5q2 14 3.5 33t1.5 45q0 -5 -2 21.5t-6 85.5q-1 14 -1.5 36.5t-0.5 51.5q0 55 5 72l5 19.5t6 25.5q-2 43 6 108q31 7 55 7q23 0 57 -7q12 -86 12 -88q0 -15 -8 -44q-7 -27 -9 -41q-1 -7 -1 -16
v-18q0 -8 6 -54v-74q0 -61 30 -94q6 -7 38 -26q25 -14 58 -14q74 0 101 71q17 46 17 92v19q0 12 -1 27q-1 16 -1 27v20q0 17 -3 52q-3 34 -3 53q0 59 6 112q36 16 66 16q20 0 51 -16q10 -46 10 -73q0 -18 -3 -46q-3 -32 -3 -45q0 -7 -1.5 -17.5l-3.5 -25.5q-2 -14 -3 -25.5
t-1 -19.5q0 -2 1.5 -16t3.5 -40l2 -35l2 -35q2 -22 7 -38t12 -27q20 -29 60 -29q58 0 76 69q2 13 9 35v6q-2 27 18 27q18 0 17 -66v-17q0 -63 -35.5 -96.5t-98.5 -33.5z"/>
            <glyph glyph-name="ae" unicode="&#xe6;" horiz-adv-x="861"
                   d="M841 348q0 -61 -46 -67l-36 -6h-14t-20 -1q-2 -1 -8 -1.5t-15 -2.5q-14 -3 -23 -3q-8 0 -24.5 2.5t-24.5 2.5q-3 0 -52 -6q-20 6 -29 6q-45 0 -45 -32q0 -34 27 -53q1 -4 26 -26q13 -4 30.5 -11t29.5 -7q27 0 60 11q5 2 25 14l21 27q16 22 45 22q21 0 36 -14t15 -35
q0 -25 -10 -38l-37 -53q-12 -17 -33 -34q-6 -5 -15 -11l-20 -14q-12 -6 -48 -18q-41 -12 -104 -12q-13 0 -40 8t-40 8q-5 0 -9 -0.5t-9 -1.5v-2h-15q-22 0 -52 14q-29 15 -44 15t-18 -3q-67 -26 -72 -26v-1h-48v1q-10 2 -23.5 5t-30.5 6q-5 0 -11.5 0.5t-13.5 1.5
q-13 7 -38 27q-22 18 -40 52h-3v4q-2 0 -3 1q0 1 2 3q-9 5 -15.5 25t-3.5 39q0 4 -2.5 12.5t-2.5 13.5q0 68 40 104q13 12 24.5 27.5t28.5 23.5q8 5 19.5 10t25.5 10q14 1 30.5 2.5t36.5 4.5l22.5 7.5l30.5 10.5q16 5 21 9t5 20q0 15 -9 32q-11 20 -24 20q-8 0 -43 -41
q-10 -11 -36 -20q-21 -7 -41 -7q-26 0 -43 21.5t-17 48.5q0 37 35 66q31 25 70 34q69 15 102 15q39 0 64 -7l4 -3l10 -2v-4q18 -5 29 -13.5l22 -17.5q13 9 39 21v1q58 24 92 24q-2 0 3.5 -0.5t17.5 -1.5l42.5 -3.5t32.5 -3.5q7 -2 16.5 -5.5l22.5 -8.5v-2q9 -5 18 -7
q4 -2 8.5 -5.5l10.5 -8.5q8 -6 34 -31q2 -2 5.5 -5l8.5 -7l7 -10q16 -25 30.5 -50t20.5 -54q5 -25 5 -36zM661 404q0 5 -5 17q-26 49 -47 50l-9 1q-27 3 -24 3q-17 0 -21 -4q-53 -41 -53 -59q0 -25 14 -30q0 -1 33 -5q3 0 11 -2.5t12 -2.5t12.5 1t11.5 1h21q15 0 29.5 8
t14.5 22zM326 232q0 17 -11.5 34t-27.5 17q-30 0 -48 -25t-18 -56q0 -26 14 -48q15 -24 41 -24q15 0 31.5 12t16.5 26v27v7t1 12q1 5 1 9v9z"/>
            <glyph glyph-name="oslash" unicode="&#xf8;" horiz-adv-x="705"
                   d="M685 602q0 -10 -14 -25t-45 -41q-12 -7 -25 -20l-5 -12l27 -42l9.5 -17l13.5 -24q6 -13 18 -49q3 -9 6 -26t3 -54q0 -1 -2.5 -8.5t-2.5 -8.5q-1 -7 -2 -16.5t-3 -23.5q-1 -5 -9 -21.5t-22 -42.5l-22 -39.5t-16 -26.5l-11.5 -16l-16.5 -22l-26 -16.5t-35 -20.5
q-10 -3 -27.5 -12t-50.5 -24q-14 -4 -25.5 -6t-19.5 -4q-15 -3 -76 -3q-40 0 -73 15q-18 8 -36 17t-36 17q-8 -13 -13.5 -21t-8.5 -12q-6 -7 -28 -28q-21 -8 -29 -8q-13 0 -28.5 9t-15.5 22v8q0 15 25 40h3l2 1l1 4q2 2 5 6t8 9l11.5 9t14.5 13q-8 7 -16.5 17l-19.5 24
q-3 2 -20 41l-12.5 32l-6.5 17q-13 7 -13 42q0 101 24 154l13.5 27.5t14.5 26.5q3 4 7 8.5t9 11.5q6 10 19 25q25 11 37 23q7 12 79 43q14 6 28 9q67 15 108 15q1 0 35 -7q5 -1 10.5 -1.5t11.5 -1.5l21.5 -5.5t30.5 -8.5l26 -5q25 -5 41 -24q4 5 8.5 11.5l11.5 16.5q5 5 8 9
l2 4t3 5q1 1 7 6l18 15q26 20 40 20q9 0 33 -11q19 -9 19 -19zM409 411q-23 20 -34 25l-48 15q-18 5 -28 5q-12 0 -28.5 -9l-30.5 -17q-22 -43 -22 -68q0 -99 24 -133q13 13 31 33l43 46l18 21q5 9 19 29q24 29 56 53zM479 242q0 22 -15 82q-2 3 -4 7t-4 9l-8.5 -8.5
t-11.5 -10.5q-6 -2 -18 -11q-35 -32 -36 -39h-2q-5 -10 -20 -22q-11 -8 -17 -13t-7 -6l-22.5 -26.5l-32.5 -36.5l13 -15q2 -1 8 -3.5t17 -7.5q2 -2 26 -6q13 -2 19 -3.5t7 -1.5q5 0 37 8q71 20 71 104z"/>
            <glyph glyph-name="questiondown" unicode="&#xbf;" horiz-adv-x="572"
                   d="M434 493q0 -21 -7 -40t-20 -33t-30.5 -22.5t-38.5 -8.5h-18q-26 0 -34 5l-11 8t-18 12q-12 7 -25 40q-10 27 -10 48q0 40 39 69q36 27 77 27q11 0 38 -13q5 -2 12.5 -6t17.5 -10q28 -24 28 -76zM553 -68q0 -34 -15 -53q-4 -4 -8 -12l-21 -27l-21 -26q-32 -35 -55 -41
l-30 -12t-41 -17h-62q-5 0 -17.5 -4t-18.5 -4q-31 0 -64 13q-8 3 -19.5 6.5t-26.5 7.5q-17 5 -59 41q-31 25 -52 72q-4 8 -7.5 18t-8.5 22q0 4 -1.5 8t-3 10.5t-3 17t-1.5 28.5q0 45 10 66q4 9 38 57q24 34 56 55v1q11 5 26.5 14l35.5 21l7.5 5t9.5 8l31 21t22 25q1 2 1.5 5
t2.5 7q-1 14 -1 21v7q0 28 29 42q24 11 54 11q71 0 71 -85q0 -20 -4 -27q-5 -10 -9 -19t-9 -19q-16 -33 -25 -37v-4h-1q-2 -2 -15 -11.5l-37 -26.5q-4 -2 -7 -4l-17 -15t-23 -22q-39 -42 -39 -87q0 -43 24 -74q27 -36 67 -36q24 0 40 17t16 41q-1 10 -0.5 23.5t1.5 32.5
q2 4 4 9t4 11q6 16 18 28v2q4 1 10.5 3.5t15.5 7.5q22 1 42 3l4 2q27 0 37 -16l2 -4t3 -4q19 -12 27 -35q4 -7 10 -28q3 -12 3 -40z"/>
            <glyph glyph-name="exclamdown" unicode="&#xa1;" horiz-adv-x="291"
                   d="M268 490q0 -41 -32 -70t-74 -29q-19 0 -49 18q-2 1 -5.5 2.5t-8.5 6t-11 13t-13 23.5q-14 33 -14 46q0 43 34 71q35 29 77 29q21 0 39 -9t30.5 -24t19.5 -35t7 -42zM136 -243q-24 0 -71 35q-46 34 -46 124q0 37 13 76q8 17 15 35l14 37q2 11 6.5 27.5l10.5 39.5q4 8 9 26
l1 15.5l3 46.5q0 8 7 26q16 48 57 48q23 0 39.5 -17.5t19.5 -40.5l2 -18q2 -8 4.5 -20.5t5.5 -29.5q0 -11 1 -27t3 -37q4 -11 10 -30l17 -56q14 -51 14 -114q0 -31 -6 -50l-10 -18l-7.5 -12.5l-9.5 -16.5q-5 -6 -18 -18q-37 -31 -84 -31z"/>
            <glyph glyph-name="logicalnot" unicode="&#xac;" horiz-adv-x="725"
                   d="M658 -245q-16 5 -26 12q-8 10 -16.5 23.5l-18.5 30.5l-24 61q-1 2 -1.5 5t-2.5 7l-27.5 49.5l-39.5 68.5q-9 10 -24 33q-2 5 -6 13t-9 19l-31 55.5l-42 74.5q-20 19 -48 66h-1q0 9 -39 68l-17 17t-19 25q-12 20 -32 61q-3 10 -8 24l-12 34q-5 12 -34 64l-17.5 29
l-24.5 39l-7.5 7.5t-9.5 10.5q-8 9 -15 34q-3 8 -27 32q-9 9 -48 72q-15 24 -15 40q0 12 8 20q29 29 49 29q14 0 26 -13l18 -21.5t25 -33.5l9 -25t13 -32q5 -7 11.5 -17l15.5 -23l-1 -5v-1q0 -4 4 -9l34 -50.5l47 -71.5l12 -17.5l17 -24.5l7.5 -17.5t11.5 -24.5q6 -7 17 -23
t31 -49q4 -8 9 -20.5l12 -29.5q4 -5 8.5 -14t11.5 -20l6.5 -11.5l19.5 -34.5q1 -1 2.5 -3t3.5 -4l15 -28t22 -39l48 -78q7 -14 18 -33.5l25 -45.5q4 -6 10.5 -14.5l14.5 -19.5q3 -5 6.5 -11.5l9 -17t14.5 -25.5t23 -35q2 -2 5 -5.5l7 -8.5q2 -5 8 -15.5t19 -31.5
q20 -38 20 -55q0 -26 -8 -39q-18 -27 -43 -27z"/>
            <glyph glyph-name="florin" unicode="&#x192;" horiz-adv-x="649"
                   d="M632 878q0 -21 -30 -76q-32 -59 -51 -59q-13 0 -25 18q-10 16 -11 30q-3 20 -15 20q-6 0 -9 -5l-2 -1v-1l-26 -30q-1 -2 -5.5 -16.5t-14.5 -40.5q0 -4 -0.5 -8.5t-1.5 -9.5q-2 -14 -9 -33l-6 -16q-5 -15 -5 -18q0 -13 11 -51q1 -2 1 -3v-1q-2 -6 -3 -8v-1l15 1.5t6 0.5
q6 0 15 -2t18 -5t16.5 -5t12.5 -2t14.5 1.5t14.5 1.5q16 0 16 -21q0 -19 -12 -23v-2q1 -4 2 -7.5t3 -7.5v-5q0 -22 -20 -22q-10 0 -17 9q-6 8 -9.5 11.5l-4.5 4.5h-7l-4 14h-4q-3 -1 -11 -3l-1 -1l-1 -2q-40 -14 -55 -32q-10 -10 -10 -79l-11 -42v-3q0 -26 -16 -86
q7 -18 7 -33q0 -12 -9 -88q-9 -77 -10 -78q0 -27 -9 -51q-42 -109 -97 -151q-77 -59 -163 -59q-85 0 -80 41q1 14 5 40.5t17 48.5q15 28 37 28q18 0 29.5 -16t11.5 -35q0 -18 -10 -31q-2 -4 -5 -7t-5 -6q12 0 25 3t25 9t21.5 13.5t14.5 16.5q4 6 15.5 33l31.5 75
q17 42 17 76q0 29 -1 26q4 15 9 38q1 14 1 23v15q0 12 7 27q7 17 7 26q0 5 -3 15.5t-3 14.5q0 28 6 51q3 12 3 13l2 4l2 4q0 17 7 44q7 28 7 45q0 5 -1 14.5t-1 13.5v6q1 3 1 6q0 25 -25 25q-8 0 -10 -2q-5 -2 -12.5 -3.5l-17.5 -3.5l-1 -1q-8 3 -10 26l-1 2v3q18 39 26 39
t37 -21h5l2 -1h2l14 11q2 5 4 12.5t4 18.5q8 34 15 52q1 2 3 5.5t4 8.5q0 2 1 5q3 12 3 35v19q-1 7 -1 11v8v1l9 13t9 12v1q2 5 4.5 10t6.5 11l7 15.5t12 19.5q31 40 69 66q5 2 10 8q54 8 105 44l2 3l2 1l18 -10.5t19 -10.5q25 -16 25 -32z"/>
            <glyph glyph-name="guillemotleft" unicode="&#xab;" horiz-adv-x="719"
                   d="M699 62q-62 -26 -84 -79q-3 36 -21 55q-8 9 -47 39q-93 69 -109 127q-8 25 -66 71l5 12q-1 18 -14 54v18l-10 9q5 7 14 17t20 24q19 19 57 60q1 3 5 9l11.5 18.5l15.5 24.5l8 5q0 2 -1 3v2q0 12 36 32q9 5 33 31q13 14 21.5 24t13.5 15q15 18 28 45q19 -28 42 -40
q4 -2 9 -5t10 -7q4 -1 23 -26q-37 -41 -80 -66v-3q-9 -15 -14 -52l-7 8l-45 -54q-9 -12 -21.5 -30.5l-29.5 -43.5l-39 -20l29 -20q2 -6 7.5 -14.5t12.5 -16.5t12.5 -15.5t7.5 -12.5v-3l2 -1l-12 -1l38 -16l-2 -6h2q4 -5 10 -15t27 -28q18 -17 21 -28q5 -7 15.5 -16.5
t24.5 -23.5q6 -5 14 -12.5t18 -18.5q8 -11 9 -29zM364 62q-60 -27 -84 -79q-3 34 -21 55q-11 13 -46 39q-32 24 -66 60q-45 50 -44 73q-7 10 -23 26t-42 39l6 12q-3 19 -15 54v18l-10 9l35 41l5.5 5.5t7.5 8.5q1 1 3 5q17 17 58 70q4 5 7.5 11t7.5 12q9 4 9 7l-1 2t-1 3
q0 11 34 30q4 1 52 48q27 27 44 67q13 -15 43 -40q6 -3 19 -12q4 -4 9.5 -10.5l12.5 -15.5q-33 -41 -78 -66v-3q-4 -5 -16 -52l-5 8l-46 -54q-8 -13 -21.5 -31t-30.5 -43l-36 -20q5 -3 11.5 -8t14.5 -12q2 -4 5 -8.5l8 -11.5q7 -7 19 -22l2 -4.5t7 -12.5v-3l3 -1l-12 -1
l38 -16l-1 -6q4 -7 12.5 -17.5t21.5 -24.5q9 -8 26 -29q8 -13 35 -37q26 -21 34 -33q7 -11 9 -30z"/>
            </font>
</defs>
</svg>
